G04 Layer: BottomSilkscreenLayer*
G04 EasyEDA v6.5.51, 2025-12-10 14:07:42*
G04 f7da798ecd6947b8b5cd26341a0ba6d3,f920225d1fc94cab822a7ee7b834fcf3,10*
G04 Gerber Generator version 0.2*
G04 Scale: 100 percent, Rotated: No, Reflected: No *
G04 Dimensions in millimeters *
G04 leading zeros omitted , absolute positions ,4 integer and 5 decimal *
%FSLAX45Y45*%
%MOMM*%

%ADD10C,0.1524*%
%ADD11C,0.2032*%
%ADD12C,0.2030*%
%ADD13C,0.0184*%

%LPD*%
D10*
X3631161Y-1219200D02*
G01*
X3740264Y-1219200D01*
X3631161Y-1219200D02*
G01*
X3631161Y-1255567D01*
X3636355Y-1271155D01*
X3646746Y-1281544D01*
X3657137Y-1286741D01*
X3672725Y-1291935D01*
X3698702Y-1291935D01*
X3714287Y-1286741D01*
X3724678Y-1281544D01*
X3735070Y-1271155D01*
X3740264Y-1255567D01*
X3740264Y-1219200D01*
X3631161Y-1326225D02*
G01*
X3740264Y-1326225D01*
X3646746Y-1433253D02*
G01*
X3636355Y-1422862D01*
X3631161Y-1407274D01*
X3631161Y-1386494D01*
X3636355Y-1370906D01*
X3646746Y-1360515D01*
X3657137Y-1360515D01*
X3667528Y-1365712D01*
X3672725Y-1370906D01*
X3677920Y-1381297D01*
X3688311Y-1412471D01*
X3693505Y-1422862D01*
X3698702Y-1428056D01*
X3709093Y-1433253D01*
X3724678Y-1433253D01*
X3735070Y-1422862D01*
X3740264Y-1407274D01*
X3740264Y-1386494D01*
X3735070Y-1370906D01*
X3724678Y-1360515D01*
X3631161Y-1467543D02*
G01*
X3740264Y-1467543D01*
X3631161Y-1467543D02*
G01*
X3631161Y-1514302D01*
X3636355Y-1529887D01*
X3641552Y-1535084D01*
X3651943Y-1540278D01*
X3667528Y-1540278D01*
X3677920Y-1535084D01*
X3683114Y-1529887D01*
X3688311Y-1514302D01*
X3688311Y-1467543D01*
X3634046Y-2765135D02*
G01*
X3623655Y-2754744D01*
X3618461Y-2739158D01*
X3618461Y-2718376D01*
X3623655Y-2702791D01*
X3634046Y-2692400D01*
X3644437Y-2692400D01*
X3654828Y-2697594D01*
X3660025Y-2702791D01*
X3665220Y-2713182D01*
X3675611Y-2744355D01*
X3680805Y-2754744D01*
X3686002Y-2759941D01*
X3696393Y-2765135D01*
X3711978Y-2765135D01*
X3722370Y-2754744D01*
X3727564Y-2739158D01*
X3727564Y-2718376D01*
X3722370Y-2702791D01*
X3711978Y-2692400D01*
X3618461Y-2799425D02*
G01*
X3727564Y-2825404D01*
X3618461Y-2851381D02*
G01*
X3727564Y-2825404D01*
X3618461Y-2851381D02*
G01*
X3727564Y-2877357D01*
X3618461Y-2903334D02*
G01*
X3727564Y-2877357D01*
D11*
X3530600Y-1143000D02*
G01*
X3784600Y-1143000D01*
X3784600Y-127000D01*
X3530600Y-127000D01*
X3530600Y-317500D01*
D12*
X3530600Y-1143000D02*
G01*
X3530600Y-317500D01*
D11*
X3530600Y-2616200D02*
G01*
X3782059Y-2616200D01*
X3782059Y-2108200D01*
X3530600Y-2108200D01*
X3530600Y-2616200D01*
M02*
