G04 Layer: TopLayer*
G04 EasyEDA v6.5.51, 2025-12-10 14:07:42*
G04 f7da798ecd6947b8b5cd26341a0ba6d3,f920225d1fc94cab822a7ee7b834fcf3,10*
G04 Gerber Generator version 0.2*
G04 Scale: 100 percent, Rotated: No, Reflected: No *
G04 Dimensions in millimeters *
G04 leading zeros omitted , absolute positions ,4 integer and 5 decimal *
%FSLAX45Y45*%
%MOMM*%

%AMMACRO1*21,1,$1,$2,0,0,$3*%
%ADD10C,1.0000*%
%ADD11C,0.7000*%
%ADD12R,1.1000X1.8000*%
%ADD13MACRO1,1.5748X1.5748X-90.0000*%
%ADD14C,1.5748*%
%ADD15MACRO1,1.5748X1.5748X0.0000*%
%ADD16R,1.5748X1.5748*%
%ADD17R,0.0172X1.5748*%
%ADD18C,0.7000*%

%LPD*%
G36*
X3077057Y-1573733D02*
G01*
X3073146Y-1572920D01*
X3069844Y-1570736D01*
X3065780Y-1566672D01*
X3063595Y-1563370D01*
X3062833Y-1559509D01*
X3062833Y-1209090D01*
X3063595Y-1205230D01*
X3065780Y-1201928D01*
X3069844Y-1197864D01*
X3073146Y-1195679D01*
X3077057Y-1194866D01*
X3080918Y-1195679D01*
X3084220Y-1197864D01*
X3086404Y-1201166D01*
X3087166Y-1205026D01*
X3087166Y-1563573D01*
X3086404Y-1567434D01*
X3084220Y-1570736D01*
X3080918Y-1572920D01*
G37*

%LPD*%
G36*
X3077057Y-1843938D02*
G01*
X3073146Y-1843176D01*
X3069844Y-1840992D01*
X3065780Y-1836928D01*
X3063595Y-1833625D01*
X3062833Y-1829104D01*
X3063595Y-1825193D01*
X3065780Y-1821942D01*
X3069844Y-1817878D01*
X3073146Y-1815642D01*
X3077057Y-1814880D01*
X3080918Y-1815642D01*
X3084220Y-1817878D01*
X3086404Y-1821180D01*
X3087166Y-1825040D01*
X3087166Y-1833778D01*
X3086404Y-1837689D01*
X3084220Y-1840992D01*
X3080918Y-1843176D01*
G37*

%LPD*%
G36*
X150063Y-4774692D02*
G01*
X146202Y-4773930D01*
X142900Y-4771745D01*
X140665Y-4768494D01*
X139903Y-4764633D01*
X130302Y-3678936D01*
X131165Y-3674668D01*
X133705Y-3671214D01*
X137515Y-3669131D01*
X141782Y-3668776D01*
X145846Y-3670249D01*
X148945Y-3673246D01*
X151231Y-3676802D01*
X163677Y-3692245D01*
X177546Y-3706469D01*
X192735Y-3719271D01*
X209092Y-3730548D01*
X226415Y-3740200D01*
X244652Y-3748125D01*
X263499Y-3754272D01*
X282905Y-3758539D01*
X302615Y-3760978D01*
X322478Y-3761435D01*
X342290Y-3760012D01*
X361848Y-3756660D01*
X381000Y-3751427D01*
X399592Y-3744417D01*
X417372Y-3735578D01*
X434238Y-3725113D01*
X450037Y-3713073D01*
X464566Y-3699560D01*
X477723Y-3684676D01*
X489407Y-3668623D01*
X499465Y-3651504D01*
X507847Y-3633470D01*
X514400Y-3614775D01*
X519176Y-3595471D01*
X522020Y-3575812D01*
X522985Y-3556000D01*
X522020Y-3536187D01*
X519176Y-3516528D01*
X514400Y-3497224D01*
X507847Y-3478529D01*
X499465Y-3460496D01*
X489407Y-3443376D01*
X477723Y-3427323D01*
X464566Y-3412439D01*
X450037Y-3398926D01*
X434238Y-3386886D01*
X417372Y-3376422D01*
X399592Y-3367582D01*
X381000Y-3360572D01*
X361848Y-3355340D01*
X342290Y-3351987D01*
X322478Y-3350564D01*
X302615Y-3351022D01*
X282905Y-3353460D01*
X263499Y-3357727D01*
X244652Y-3363874D01*
X226415Y-3371799D01*
X209092Y-3381451D01*
X192735Y-3392728D01*
X177546Y-3405530D01*
X163677Y-3419754D01*
X151231Y-3435197D01*
X146812Y-3442004D01*
X143764Y-3445001D01*
X139700Y-3446526D01*
X135432Y-3446170D01*
X131673Y-3444138D01*
X129082Y-3440734D01*
X128117Y-3436518D01*
X115112Y-1966722D01*
X115874Y-1962810D01*
X118110Y-1959457D01*
X121412Y-1957273D01*
X125323Y-1956511D01*
X2638806Y-1968906D01*
X2642717Y-1969719D01*
X2645968Y-1971954D01*
X2648153Y-1975205D01*
X2648915Y-1979117D01*
X2648153Y-1982978D01*
X2645968Y-1986280D01*
X2516174Y-2116074D01*
X2512669Y-2118360D01*
X2508605Y-2119020D01*
X2504541Y-2118004D01*
X2501239Y-2115464D01*
X2499258Y-2111857D01*
X2496058Y-2101291D01*
X2489860Y-2087270D01*
X2482088Y-2074113D01*
X2472791Y-2061921D01*
X2462123Y-2050948D01*
X2450236Y-2041296D01*
X2437282Y-2033117D01*
X2423464Y-2026564D01*
X2408986Y-2021636D01*
X2394000Y-2018487D01*
X2378710Y-2017115D01*
X2363419Y-2017572D01*
X2348280Y-2019858D01*
X2333498Y-2023872D01*
X2319324Y-2029612D01*
X2305913Y-2037029D01*
X2293467Y-2045970D01*
X2282190Y-2056282D01*
X2272182Y-2067864D01*
X2263648Y-2080564D01*
X2256840Y-2093823D01*
X2254504Y-2096820D01*
X2251252Y-2098751D01*
X2247493Y-2099310D01*
X2243785Y-2098497D01*
X2240635Y-2096363D01*
X2238502Y-2093264D01*
X2235860Y-2087270D01*
X2228088Y-2074113D01*
X2218791Y-2061921D01*
X2208123Y-2050948D01*
X2196236Y-2041296D01*
X2183282Y-2033117D01*
X2169464Y-2026564D01*
X2154986Y-2021636D01*
X2140000Y-2018487D01*
X2124710Y-2017115D01*
X2109419Y-2017572D01*
X2094280Y-2019858D01*
X2079498Y-2023872D01*
X2065324Y-2029612D01*
X2051913Y-2037029D01*
X2039467Y-2045970D01*
X2028189Y-2056282D01*
X2018182Y-2067864D01*
X2009648Y-2080564D01*
X2002840Y-2093823D01*
X2000504Y-2096820D01*
X1997252Y-2098751D01*
X1993493Y-2099310D01*
X1989785Y-2098497D01*
X1986635Y-2096363D01*
X1984502Y-2093264D01*
X1981860Y-2087270D01*
X1974088Y-2074113D01*
X1964791Y-2061921D01*
X1954123Y-2050948D01*
X1942236Y-2041296D01*
X1929282Y-2033117D01*
X1915464Y-2026564D01*
X1900986Y-2021636D01*
X1886000Y-2018487D01*
X1870710Y-2017115D01*
X1855419Y-2017572D01*
X1840280Y-2019858D01*
X1825498Y-2023872D01*
X1811324Y-2029612D01*
X1797913Y-2037029D01*
X1785467Y-2045970D01*
X1774189Y-2056282D01*
X1764182Y-2067864D01*
X1760728Y-2073046D01*
X1757730Y-2075942D01*
X1753870Y-2077364D01*
X1749755Y-2077212D01*
X1746046Y-2075383D01*
X1743354Y-2072182D01*
X1742186Y-2068220D01*
X1741322Y-2058771D01*
X1739087Y-2050288D01*
X1735328Y-2042312D01*
X1730298Y-2035098D01*
X1724101Y-2028901D01*
X1716887Y-2023872D01*
X1708912Y-2020112D01*
X1700428Y-2017877D01*
X1691182Y-2017064D01*
X1658620Y-2017064D01*
X1658620Y-2100580D01*
X1732330Y-2100580D01*
X1735937Y-2101240D01*
X1739036Y-2103120D01*
X1741322Y-2106015D01*
X1742389Y-2109470D01*
X1742186Y-2113127D01*
X1739696Y-2123440D01*
X1737918Y-2138629D01*
X1737918Y-2153970D01*
X1739696Y-2169160D01*
X1742186Y-2179472D01*
X1742389Y-2183130D01*
X1741322Y-2186584D01*
X1739036Y-2189480D01*
X1735937Y-2191359D01*
X1732330Y-2192020D01*
X1658620Y-2192020D01*
X1658620Y-2275535D01*
X1691182Y-2275535D01*
X1700428Y-2274722D01*
X1708912Y-2272487D01*
X1716887Y-2268728D01*
X1724101Y-2263698D01*
X1730298Y-2257501D01*
X1735328Y-2250287D01*
X1739087Y-2242312D01*
X1741322Y-2233828D01*
X1742186Y-2224379D01*
X1743354Y-2220417D01*
X1746046Y-2217216D01*
X1749755Y-2215388D01*
X1753870Y-2215235D01*
X1757730Y-2216658D01*
X1760728Y-2219553D01*
X1764182Y-2224735D01*
X1774189Y-2236317D01*
X1785467Y-2246630D01*
X1797913Y-2255570D01*
X1811324Y-2262987D01*
X1825498Y-2268728D01*
X1840280Y-2272741D01*
X1855419Y-2275027D01*
X1870710Y-2275484D01*
X1886000Y-2274112D01*
X1900986Y-2270963D01*
X1915464Y-2266035D01*
X1929282Y-2259482D01*
X1942236Y-2251303D01*
X1954123Y-2241651D01*
X1964791Y-2230678D01*
X1974088Y-2218486D01*
X1981860Y-2205329D01*
X1984502Y-2199335D01*
X1986635Y-2196236D01*
X1989785Y-2194102D01*
X1993493Y-2193290D01*
X1997252Y-2193848D01*
X2000504Y-2195779D01*
X2002840Y-2198776D01*
X2009648Y-2212035D01*
X2018182Y-2224735D01*
X2028189Y-2236317D01*
X2039467Y-2246630D01*
X2051913Y-2255570D01*
X2065324Y-2262987D01*
X2079498Y-2268728D01*
X2094280Y-2272741D01*
X2109419Y-2275027D01*
X2125268Y-2275484D01*
X2128977Y-2276297D01*
X2132126Y-2278481D01*
X2234184Y-2380488D01*
X2238756Y-2384806D01*
X2243531Y-2388616D01*
X2248560Y-2392070D01*
X2253792Y-2395220D01*
X2259228Y-2397963D01*
X2264867Y-2400249D01*
X2270658Y-2402179D01*
X2276602Y-2403703D01*
X2282596Y-2404770D01*
X2288641Y-2405430D01*
X2294940Y-2405684D01*
X2432812Y-2405684D01*
X2439111Y-2405430D01*
X2445156Y-2404770D01*
X2451150Y-2403703D01*
X2457094Y-2402179D01*
X2462885Y-2400249D01*
X2468524Y-2397963D01*
X2473960Y-2395220D01*
X2479192Y-2392070D01*
X2484221Y-2388616D01*
X2488996Y-2384806D01*
X2493568Y-2380488D01*
X2837383Y-2036724D01*
X2841650Y-2032101D01*
X2845460Y-2027377D01*
X2848965Y-2022348D01*
X2852064Y-2017115D01*
X2854807Y-2011629D01*
X2857144Y-2005990D01*
X2859074Y-2000199D01*
X2860598Y-1994306D01*
X2861665Y-1988312D01*
X2862326Y-1982216D01*
X2862529Y-1975916D01*
X2862529Y-1818792D01*
X2863443Y-1814677D01*
X2865932Y-1811223D01*
X2869641Y-1809140D01*
X2873857Y-1808734D01*
X2877921Y-1810105D01*
X2881020Y-1813001D01*
X2883662Y-1816760D01*
X2888843Y-1821942D01*
X2891028Y-1825193D01*
X2891790Y-1829104D01*
X2891790Y-1869186D01*
X2892044Y-1875485D01*
X2892704Y-1881530D01*
X2893771Y-1887524D01*
X2895295Y-1893468D01*
X2897225Y-1899259D01*
X2899511Y-1904898D01*
X2902254Y-1910334D01*
X2905404Y-1915566D01*
X2908858Y-1920595D01*
X2912719Y-1925370D01*
X2916986Y-1929942D01*
X3536543Y-2549550D01*
X3541166Y-2553817D01*
X3545789Y-2557526D01*
X3547618Y-2558694D01*
X3550208Y-2561082D01*
X3559708Y-2573578D01*
X3570376Y-2584551D01*
X3582263Y-2594203D01*
X3595217Y-2602382D01*
X3609035Y-2608935D01*
X3623513Y-2613863D01*
X3638499Y-2617012D01*
X3653790Y-2618384D01*
X3669080Y-2617927D01*
X3684219Y-2615641D01*
X3699001Y-2611628D01*
X3713175Y-2605887D01*
X3726586Y-2598470D01*
X3739032Y-2589530D01*
X3750310Y-2579217D01*
X3760317Y-2567635D01*
X3768851Y-2554935D01*
X3775862Y-2541320D01*
X3781196Y-2526944D01*
X3784803Y-2512060D01*
X3786581Y-2496870D01*
X3786581Y-2481529D01*
X3784803Y-2466340D01*
X3781196Y-2451455D01*
X3775862Y-2437079D01*
X3768851Y-2423464D01*
X3760317Y-2410764D01*
X3750310Y-2399182D01*
X3739032Y-2388870D01*
X3730650Y-2382824D01*
X3727856Y-2379827D01*
X3726535Y-2375966D01*
X3726789Y-2371902D01*
X3728618Y-2368245D01*
X3731768Y-2365654D01*
X3735679Y-2364486D01*
X3745128Y-2363622D01*
X3753612Y-2361387D01*
X3761587Y-2357628D01*
X3768801Y-2352598D01*
X3774998Y-2346401D01*
X3780028Y-2339187D01*
X3783787Y-2331212D01*
X3786022Y-2322728D01*
X3786835Y-2313482D01*
X3786835Y-2280920D01*
X3703320Y-2280920D01*
X3703320Y-2354630D01*
X3702659Y-2358288D01*
X3700678Y-2361488D01*
X3697732Y-2363724D01*
X3694176Y-2364740D01*
X3690467Y-2364435D01*
X3684219Y-2362758D01*
X3669080Y-2360472D01*
X3653790Y-2360015D01*
X3638499Y-2361387D01*
X3624122Y-2364435D01*
X3619652Y-2364333D01*
X3615639Y-2362352D01*
X3612845Y-2358847D01*
X3611879Y-2354478D01*
X3611879Y-2280920D01*
X3526434Y-2280920D01*
X3523132Y-2283815D01*
X3518966Y-2285085D01*
X3514699Y-2284476D01*
X3510991Y-2282139D01*
X3209696Y-1980793D01*
X3207410Y-1977389D01*
X3206699Y-1973376D01*
X3207613Y-1969363D01*
X3210052Y-1966061D01*
X3213608Y-1963978D01*
X3226155Y-1959762D01*
X3237941Y-1953920D01*
X3248863Y-1946605D01*
X3258769Y-1937969D01*
X3267456Y-1928063D01*
X3274161Y-1918157D01*
X3280206Y-1906117D01*
X3284626Y-1893468D01*
X3287268Y-1880311D01*
X3288233Y-1866544D01*
X3288233Y-1844954D01*
X3288995Y-1841093D01*
X3291179Y-1837791D01*
X3294481Y-1835556D01*
X3298393Y-1834794D01*
X3313480Y-1834794D01*
X3313480Y-1745640D01*
X3298393Y-1745640D01*
X3294481Y-1744878D01*
X3291179Y-1742693D01*
X3288995Y-1739392D01*
X3288233Y-1735480D01*
X3288233Y-1653133D01*
X3288995Y-1649222D01*
X3291179Y-1645920D01*
X3294481Y-1643735D01*
X3298393Y-1642973D01*
X3313480Y-1642973D01*
X3313480Y-1553768D01*
X3298393Y-1553768D01*
X3294481Y-1553006D01*
X3291179Y-1550822D01*
X3288995Y-1547520D01*
X3288233Y-1543608D01*
X3288233Y-1224991D01*
X3288995Y-1221079D01*
X3291179Y-1217777D01*
X3294481Y-1215593D01*
X3298393Y-1214831D01*
X3313480Y-1214831D01*
X3313480Y-1125626D01*
X3298393Y-1125626D01*
X3294481Y-1124864D01*
X3291179Y-1122680D01*
X3288995Y-1119378D01*
X3288233Y-1115466D01*
X3288233Y-1033119D01*
X3288995Y-1029208D01*
X3291179Y-1025906D01*
X3294481Y-1023721D01*
X3298393Y-1022959D01*
X3313480Y-1022959D01*
X3313480Y-933805D01*
X3298393Y-933805D01*
X3294481Y-933043D01*
X3291179Y-930808D01*
X3288995Y-927506D01*
X3288233Y-923645D01*
X3288233Y-889355D01*
X3287318Y-875893D01*
X3284778Y-862990D01*
X3280511Y-850544D01*
X3274720Y-838809D01*
X3266541Y-826719D01*
X3257550Y-816762D01*
X3247288Y-808126D01*
X3235960Y-800862D01*
X3224022Y-795274D01*
X3211169Y-791260D01*
X3200654Y-789330D01*
X3197910Y-789025D01*
X3187547Y-788517D01*
X3184499Y-788568D01*
X3174441Y-789381D01*
X3171139Y-789889D01*
X3161538Y-791972D01*
X3158032Y-792988D01*
X3149142Y-796188D01*
X3145485Y-797763D01*
X3137357Y-802030D01*
X3133699Y-804214D01*
X3126435Y-809345D01*
X3122879Y-812190D01*
X3116580Y-817981D01*
X3113227Y-821537D01*
X3107944Y-827887D01*
X3104896Y-832053D01*
X3100628Y-838809D01*
X3098038Y-843635D01*
X3094837Y-850595D01*
X3092754Y-855980D01*
X3090621Y-862990D01*
X3089198Y-868984D01*
X3088081Y-875893D01*
X3087420Y-882294D01*
X3087166Y-889152D01*
X3087166Y-943559D01*
X3086404Y-947419D01*
X3084220Y-950721D01*
X3080918Y-952957D01*
X3077057Y-953719D01*
X3073146Y-952957D01*
X3069844Y-950721D01*
X3064764Y-945642D01*
X3057550Y-940612D01*
X3049574Y-936853D01*
X3041091Y-934618D01*
X3031845Y-933805D01*
X2922778Y-933805D01*
X2913532Y-934618D01*
X2905048Y-936853D01*
X2897073Y-940612D01*
X2889859Y-945642D01*
X2883662Y-951839D01*
X2878582Y-959053D01*
X2874873Y-967028D01*
X2872587Y-975512D01*
X2871825Y-984758D01*
X2871825Y-1163878D01*
X2872587Y-1173073D01*
X2874873Y-1181557D01*
X2878582Y-1189532D01*
X2883662Y-1196746D01*
X2888843Y-1201928D01*
X2891028Y-1205230D01*
X2891790Y-1209090D01*
X2891790Y-1559509D01*
X2891028Y-1563370D01*
X2888843Y-1566672D01*
X2883662Y-1571853D01*
X2878582Y-1579067D01*
X2874873Y-1587042D01*
X2872587Y-1595526D01*
X2872232Y-1600098D01*
X2870962Y-1604213D01*
X2868066Y-1607413D01*
X2864154Y-1609140D01*
X2859887Y-1609140D01*
X2855976Y-1607362D01*
X2853182Y-1604111D01*
X2848965Y-1596339D01*
X2841650Y-1586585D01*
X2833014Y-1577949D01*
X2823260Y-1570634D01*
X2812542Y-1564792D01*
X2801112Y-1560525D01*
X2789174Y-1557934D01*
X2777032Y-1557070D01*
X2764891Y-1557934D01*
X2752953Y-1560525D01*
X2741523Y-1564792D01*
X2730804Y-1570634D01*
X2721051Y-1577949D01*
X2712415Y-1586585D01*
X2705100Y-1596339D01*
X2701544Y-1602892D01*
X2698597Y-1606245D01*
X2694533Y-1608023D01*
X2690063Y-1607870D01*
X2686100Y-1605838D01*
X2683408Y-1602333D01*
X2682443Y-1597964D01*
X2692654Y-36017D01*
X2693466Y-32156D01*
X2695651Y-28854D01*
X2698953Y-26670D01*
X2702814Y-25908D01*
X3069031Y-25908D01*
X3073196Y-26822D01*
X3076600Y-29311D01*
X3078734Y-33070D01*
X3079089Y-37287D01*
X3077718Y-41300D01*
X3074771Y-44450D01*
X3062935Y-52628D01*
X3047746Y-65430D01*
X3033877Y-79654D01*
X3021431Y-95097D01*
X3010560Y-111709D01*
X3001314Y-129285D01*
X2993847Y-147675D01*
X2988157Y-166725D01*
X2984347Y-186232D01*
X2982468Y-205994D01*
X2982468Y-225806D01*
X2984347Y-245567D01*
X2988157Y-265074D01*
X2993847Y-284124D01*
X3001314Y-302514D01*
X3010560Y-320090D01*
X3021431Y-336702D01*
X3033877Y-352145D01*
X3047746Y-366369D01*
X3062935Y-379171D01*
X3079292Y-390448D01*
X3096615Y-400100D01*
X3114852Y-408025D01*
X3133699Y-414172D01*
X3153105Y-418439D01*
X3172815Y-420878D01*
X3192678Y-421335D01*
X3212490Y-419912D01*
X3232048Y-416559D01*
X3251200Y-411327D01*
X3269792Y-404317D01*
X3287572Y-395478D01*
X3304438Y-385013D01*
X3320237Y-372973D01*
X3334765Y-359460D01*
X3347923Y-344576D01*
X3359607Y-328523D01*
X3369665Y-311404D01*
X3378047Y-293370D01*
X3384600Y-274675D01*
X3389376Y-255371D01*
X3392220Y-235712D01*
X3393186Y-215900D01*
X3392220Y-196088D01*
X3389376Y-176428D01*
X3384600Y-157124D01*
X3378047Y-138430D01*
X3369665Y-120396D01*
X3359607Y-103276D01*
X3347923Y-87223D01*
X3334765Y-72339D01*
X3320237Y-58826D01*
X3304438Y-46786D01*
X3301085Y-44704D01*
X3297986Y-41656D01*
X3296412Y-37592D01*
X3296665Y-33274D01*
X3298748Y-29464D01*
X3302203Y-26822D01*
X3306470Y-25908D01*
X3862832Y-25908D01*
X3866743Y-26670D01*
X3869994Y-28905D01*
X3872229Y-32156D01*
X3872992Y-36068D01*
X3872992Y-3437026D01*
X3872128Y-3441141D01*
X3869639Y-3444595D01*
X3865981Y-3446678D01*
X3861765Y-3447135D01*
X3857751Y-3445814D01*
X3854602Y-3443020D01*
X3843223Y-3427323D01*
X3830065Y-3412439D01*
X3815537Y-3398926D01*
X3799738Y-3386886D01*
X3782872Y-3376422D01*
X3765092Y-3367582D01*
X3746500Y-3360572D01*
X3727348Y-3355340D01*
X3707790Y-3351987D01*
X3687978Y-3350564D01*
X3668115Y-3351022D01*
X3648405Y-3353460D01*
X3628999Y-3357727D01*
X3610152Y-3363874D01*
X3591915Y-3371799D01*
X3574592Y-3381451D01*
X3558235Y-3392728D01*
X3543046Y-3405530D01*
X3529177Y-3419754D01*
X3516731Y-3435197D01*
X3505860Y-3451809D01*
X3496614Y-3469386D01*
X3489147Y-3487775D01*
X3483457Y-3506825D01*
X3479647Y-3526332D01*
X3477768Y-3546094D01*
X3477768Y-3565906D01*
X3479647Y-3585667D01*
X3483457Y-3605174D01*
X3489147Y-3624224D01*
X3496614Y-3642614D01*
X3505860Y-3660190D01*
X3516731Y-3676802D01*
X3529177Y-3692245D01*
X3543046Y-3706469D01*
X3558235Y-3719271D01*
X3574592Y-3730548D01*
X3591915Y-3740200D01*
X3610152Y-3748125D01*
X3628999Y-3754272D01*
X3648405Y-3758539D01*
X3668115Y-3760978D01*
X3687978Y-3761435D01*
X3707790Y-3760012D01*
X3727348Y-3756660D01*
X3746500Y-3751427D01*
X3765092Y-3744417D01*
X3782872Y-3735578D01*
X3799738Y-3725113D01*
X3815537Y-3713073D01*
X3830065Y-3699560D01*
X3843223Y-3684676D01*
X3854602Y-3668979D01*
X3857751Y-3666185D01*
X3861765Y-3664864D01*
X3865981Y-3665321D01*
X3869639Y-3667404D01*
X3872128Y-3670858D01*
X3872992Y-3674973D01*
X3872992Y-4764532D01*
X3872229Y-4768443D01*
X3869994Y-4771694D01*
X3866743Y-4773930D01*
X3862832Y-4774692D01*
G37*

%LPC*%
G36*
X1534617Y-2275535D02*
G01*
X1567180Y-2275535D01*
X1567180Y-2192020D01*
X1483664Y-2192020D01*
X1483664Y-2224582D01*
X1484477Y-2233828D01*
X1486712Y-2242312D01*
X1490472Y-2250287D01*
X1495501Y-2257501D01*
X1501698Y-2263698D01*
X1508912Y-2268728D01*
X1516888Y-2272487D01*
X1525371Y-2274722D01*
G37*
G36*
X3703320Y-2189480D02*
G01*
X3786835Y-2189480D01*
X3786835Y-2156917D01*
X3786022Y-2147671D01*
X3783787Y-2139188D01*
X3780028Y-2131212D01*
X3774998Y-2123998D01*
X3768801Y-2117801D01*
X3761587Y-2112772D01*
X3753612Y-2109012D01*
X3745128Y-2106777D01*
X3735882Y-2105964D01*
X3703320Y-2105964D01*
G37*
G36*
X3528364Y-2189480D02*
G01*
X3611879Y-2189480D01*
X3611879Y-2105964D01*
X3579317Y-2105964D01*
X3570071Y-2106777D01*
X3561587Y-2109012D01*
X3553612Y-2112772D01*
X3546398Y-2117801D01*
X3540201Y-2123998D01*
X3535172Y-2131212D01*
X3531412Y-2139188D01*
X3529177Y-2147671D01*
X3528364Y-2156917D01*
G37*
G36*
X1483664Y-2100580D02*
G01*
X1567180Y-2100580D01*
X1567180Y-2017064D01*
X1534617Y-2017064D01*
X1525371Y-2017877D01*
X1516888Y-2020112D01*
X1508912Y-2023872D01*
X1501698Y-2028901D01*
X1495501Y-2035098D01*
X1490472Y-2042312D01*
X1486712Y-2050288D01*
X1484477Y-2058771D01*
X1483664Y-2068017D01*
G37*
G36*
X3381146Y-1834794D02*
G01*
X3401872Y-1834794D01*
X3411067Y-1833981D01*
X3419551Y-1831746D01*
X3427526Y-1827987D01*
X3434740Y-1822957D01*
X3440988Y-1816760D01*
X3446018Y-1809546D01*
X3449726Y-1801571D01*
X3452012Y-1793087D01*
X3452825Y-1783842D01*
X3452825Y-1745640D01*
X3381146Y-1745640D01*
G37*
G36*
X3381146Y-1642973D02*
G01*
X3452825Y-1642973D01*
X3452825Y-1604721D01*
X3452012Y-1595526D01*
X3449726Y-1587042D01*
X3446018Y-1579067D01*
X3440988Y-1571853D01*
X3434740Y-1565656D01*
X3427526Y-1560576D01*
X3419551Y-1556867D01*
X3411067Y-1554581D01*
X3401872Y-1553768D01*
X3381146Y-1553768D01*
G37*
G36*
X3381146Y-1214831D02*
G01*
X3401872Y-1214831D01*
X3411067Y-1214018D01*
X3419551Y-1211732D01*
X3427526Y-1208024D01*
X3434740Y-1202944D01*
X3440988Y-1196746D01*
X3446018Y-1189532D01*
X3449726Y-1181557D01*
X3452012Y-1173073D01*
X3452825Y-1163878D01*
X3452825Y-1125626D01*
X3381146Y-1125626D01*
G37*
G36*
X3649929Y-1144981D02*
G01*
X3665270Y-1144981D01*
X3680460Y-1143203D01*
X3695344Y-1139596D01*
X3709720Y-1134262D01*
X3723335Y-1127252D01*
X3736035Y-1118717D01*
X3747617Y-1108710D01*
X3757929Y-1097432D01*
X3766870Y-1084986D01*
X3774287Y-1071575D01*
X3780028Y-1057402D01*
X3784041Y-1042619D01*
X3786327Y-1027480D01*
X3786784Y-1012190D01*
X3785412Y-996899D01*
X3782263Y-981913D01*
X3777335Y-967435D01*
X3770782Y-953617D01*
X3762603Y-940663D01*
X3752951Y-928776D01*
X3741978Y-918108D01*
X3729786Y-908812D01*
X3716629Y-901039D01*
X3710635Y-898398D01*
X3707536Y-896264D01*
X3705402Y-893114D01*
X3704590Y-889406D01*
X3705148Y-885647D01*
X3707079Y-882396D01*
X3710076Y-880059D01*
X3723335Y-873252D01*
X3736035Y-864717D01*
X3747617Y-854710D01*
X3757929Y-843432D01*
X3766870Y-830986D01*
X3774287Y-817575D01*
X3780028Y-803402D01*
X3784041Y-788619D01*
X3786327Y-773480D01*
X3786784Y-758190D01*
X3785412Y-742899D01*
X3782263Y-727913D01*
X3777335Y-713435D01*
X3770782Y-699617D01*
X3762603Y-686663D01*
X3752951Y-674776D01*
X3741978Y-664108D01*
X3729786Y-654812D01*
X3716629Y-647039D01*
X3710635Y-644398D01*
X3707536Y-642264D01*
X3705402Y-639114D01*
X3704590Y-635406D01*
X3705148Y-631647D01*
X3707079Y-628396D01*
X3710076Y-626059D01*
X3723335Y-619252D01*
X3736035Y-610717D01*
X3747617Y-600710D01*
X3757929Y-589432D01*
X3766870Y-576986D01*
X3774287Y-563575D01*
X3780028Y-549402D01*
X3784041Y-534619D01*
X3786327Y-519480D01*
X3786784Y-504190D01*
X3785412Y-488899D01*
X3782263Y-473913D01*
X3777335Y-459435D01*
X3770782Y-445617D01*
X3762603Y-432663D01*
X3752951Y-420776D01*
X3741978Y-410108D01*
X3730599Y-401421D01*
X3727958Y-398424D01*
X3726687Y-394563D01*
X3727043Y-390550D01*
X3728923Y-386943D01*
X3732022Y-384403D01*
X3735882Y-383235D01*
X3745128Y-382422D01*
X3753612Y-380187D01*
X3761587Y-376428D01*
X3768801Y-371398D01*
X3774998Y-365201D01*
X3780028Y-357987D01*
X3783787Y-350012D01*
X3786022Y-341528D01*
X3786835Y-332282D01*
X3786835Y-299720D01*
X3703320Y-299720D01*
X3703320Y-373329D01*
X3702608Y-377037D01*
X3700627Y-380238D01*
X3697579Y-382473D01*
X3693922Y-383489D01*
X3690213Y-383082D01*
X3687978Y-382371D01*
X3672890Y-379679D01*
X3657600Y-378764D01*
X3642309Y-379679D01*
X3627221Y-382371D01*
X3624986Y-383082D01*
X3621278Y-383489D01*
X3617620Y-382473D01*
X3614572Y-380238D01*
X3612591Y-377037D01*
X3611879Y-373329D01*
X3611879Y-299720D01*
X3528364Y-299720D01*
X3528364Y-332282D01*
X3529177Y-341528D01*
X3531412Y-350012D01*
X3535172Y-357987D01*
X3540201Y-365201D01*
X3546398Y-371398D01*
X3553612Y-376428D01*
X3561587Y-380187D01*
X3570071Y-382422D01*
X3579317Y-383235D01*
X3583178Y-384403D01*
X3586276Y-386943D01*
X3588156Y-390550D01*
X3588512Y-394563D01*
X3587242Y-398424D01*
X3584600Y-401421D01*
X3573221Y-410108D01*
X3562248Y-420776D01*
X3552596Y-432663D01*
X3544417Y-445617D01*
X3537864Y-459435D01*
X3532936Y-473913D01*
X3529787Y-488899D01*
X3528415Y-504190D01*
X3528872Y-519480D01*
X3531158Y-534619D01*
X3535172Y-549402D01*
X3540912Y-563575D01*
X3548329Y-576986D01*
X3557270Y-589432D01*
X3567582Y-600710D01*
X3579164Y-610717D01*
X3591864Y-619252D01*
X3605123Y-626059D01*
X3608120Y-628396D01*
X3610051Y-631647D01*
X3610610Y-635406D01*
X3609797Y-639114D01*
X3607663Y-642264D01*
X3604564Y-644398D01*
X3598570Y-647039D01*
X3585413Y-654812D01*
X3573221Y-664108D01*
X3562248Y-674776D01*
X3552596Y-686663D01*
X3544417Y-699617D01*
X3537864Y-713435D01*
X3532936Y-727913D01*
X3529787Y-742899D01*
X3528415Y-758190D01*
X3528872Y-773480D01*
X3531158Y-788619D01*
X3535172Y-803402D01*
X3540912Y-817575D01*
X3548329Y-830986D01*
X3557270Y-843432D01*
X3567582Y-854710D01*
X3579164Y-864717D01*
X3591864Y-873252D01*
X3605123Y-880059D01*
X3608120Y-882396D01*
X3610051Y-885647D01*
X3610610Y-889406D01*
X3609797Y-893114D01*
X3607663Y-896264D01*
X3604564Y-898398D01*
X3598570Y-901039D01*
X3585413Y-908812D01*
X3573221Y-918108D01*
X3562248Y-928776D01*
X3552596Y-940663D01*
X3544417Y-953617D01*
X3537864Y-967435D01*
X3532936Y-981913D01*
X3529787Y-996899D01*
X3528415Y-1012190D01*
X3528872Y-1027480D01*
X3531158Y-1042619D01*
X3535172Y-1057402D01*
X3540912Y-1071575D01*
X3548329Y-1084986D01*
X3557270Y-1097432D01*
X3567582Y-1108710D01*
X3579164Y-1118717D01*
X3591864Y-1127252D01*
X3605479Y-1134262D01*
X3619855Y-1139596D01*
X3634740Y-1143203D01*
G37*
G36*
X3381146Y-1022959D02*
G01*
X3452825Y-1022959D01*
X3452825Y-984758D01*
X3452012Y-975512D01*
X3449726Y-967028D01*
X3446018Y-959053D01*
X3440988Y-951839D01*
X3434740Y-945642D01*
X3427526Y-940612D01*
X3419551Y-936853D01*
X3411067Y-934618D01*
X3401872Y-933805D01*
X3381146Y-933805D01*
G37*
G36*
X3528364Y-208279D02*
G01*
X3611879Y-208279D01*
X3611879Y-124764D01*
X3579317Y-124764D01*
X3570071Y-125577D01*
X3561587Y-127812D01*
X3553612Y-131572D01*
X3546398Y-136601D01*
X3540201Y-142798D01*
X3535172Y-150012D01*
X3531412Y-157988D01*
X3529177Y-166471D01*
X3528364Y-175717D01*
G37*
G36*
X3703320Y-208279D02*
G01*
X3786835Y-208279D01*
X3786835Y-175717D01*
X3786022Y-166471D01*
X3783787Y-157988D01*
X3780028Y-150012D01*
X3774998Y-142798D01*
X3768801Y-136601D01*
X3761587Y-131572D01*
X3753612Y-127812D01*
X3745128Y-125577D01*
X3735882Y-124764D01*
X3703320Y-124764D01*
G37*

%LPD*%
D10*
X3187700Y-1866900D02*
G01*
X3187700Y-889000D01*
D11*
X2120900Y-2146300D02*
G01*
X2294763Y-2320162D01*
X2432989Y-2320162D01*
X2777032Y-1976120D01*
X2777032Y-1642567D01*
X3347313Y-1694306D02*
G01*
X3347313Y-1074293D01*
X3347313Y-1781835D02*
G01*
X3347313Y-1694306D01*
X3347313Y-1781835D02*
G01*
X3347313Y-1869363D01*
X3657600Y-254000D02*
G01*
X3347313Y-564286D01*
X3347313Y-1074293D01*
X3657600Y-2235200D02*
G01*
X3657600Y-2071395D01*
X3657600Y-2071395D02*
G01*
X3455568Y-1869363D01*
X3347313Y-1869363D01*
X2977311Y-1694306D02*
G01*
X2977311Y-1074293D01*
X2977311Y-1781835D02*
G01*
X2977311Y-1694306D01*
X2977311Y-1781835D02*
G01*
X2977311Y-1869363D01*
X3657600Y-2489200D02*
G01*
X3597147Y-2489200D01*
X2977311Y-1869363D01*
D12*
G01*
X3347313Y-1074293D03*
G01*
X3347313Y-1694306D03*
G01*
X2977311Y-1074293D03*
G01*
X2977311Y-1694306D03*
D13*
G01*
X3657600Y-254000D03*
D14*
G01*
X3657600Y-508000D03*
G01*
X3657600Y-762000D03*
G01*
X3657600Y-1016000D03*
D15*
G01*
X3657600Y-2235200D03*
D14*
G01*
X3657600Y-2489200D03*
D16*
G01*
X1612900Y-2146300D03*
D14*
G01*
X1866900Y-2146300D03*
G01*
X2120900Y-2146300D03*
G01*
X2374900Y-2146300D03*
D10*
G01*
X3187700Y-889000D03*
G01*
X3187700Y-1866900D03*
D18*
G01*
X2777032Y-1642567D03*
M02*
