M48
METRIC,LZ,000.000
;FILE_FORMAT=3:3
;TYPE=PLATED
;Layer: PTH_Through
;EasyEDA v6.5.51, 2025-12-10 18:06:53
;0555fe365c4c4ce19a54b4cc8b748554,f920225d1fc94cab822a7ee7b834fcf3,10
;Gerber Generator version 0.2
;Holesize 1 = 0.351 mm
T01C0.351
;Holesize 2 = 0.501 mm
T02C0.501
;Holesize 3 = 0.701 mm
T03C0.701
;Holesize 4 = 0.800 mm
T04C0.800
;Holesize 5 = 0.889 mm
T05C0.889
;Holesize 6 = 0.915 mm
T06C0.915
;Holesize 7 = 1.101 mm
T07C1.101
;Holesize 8 = 1.250 mm
T08C1.250
%
G05
G90
T01
X027166Y045114
X011883Y032197
X011883Y044036
X030928Y017129
X031178Y047744
X027962Y057587
X026416Y091948
X009485Y055571
X021691Y057748
X010123Y035723
X010123Y059591
T02
X024952Y038065
X029314Y075605
X007526Y075611
T03
X005341Y075925
T04
X030099Y090424
X030099Y088646
X030099Y087122
X038227Y087122
X038227Y088646
X038227Y090424
X035687Y092837
X034163Y092837
X032385Y092837
T05
X003302Y065405
X003302Y067945
X003302Y070485
X003302Y073025
X036639Y053674
X036639Y051134
X036639Y048594
X036639Y046054
X003238Y053801
X003238Y051261
X003238Y048721
X003238Y046181
X003238Y043641
X003238Y041101
T06
X007526Y054944
X007526Y052404
X007526Y049864
X007526Y047324
X007526Y044784
X007526Y042244
X007526Y039704
X007526Y037164
X007526Y034624
X007526Y032084
X007526Y029544
X007526Y027004
X007526Y024464
X007526Y021924
X007526Y019384
X007526Y016844
X007526Y014304
X007526Y011764
X007526Y009224
X032986Y009224
X032986Y011764
X032986Y014304
X032986Y016844
X032986Y019384
X032986Y021924
X032986Y024464
X032986Y027004
X032986Y029544
X032986Y032084
X032986Y034624
X032986Y037164
X032986Y039704
X032986Y042244
X032986Y044784
X032986Y047324
X032986Y049864
X032986Y052404
X032986Y054944
T07
X034049Y088693
X036576Y033782
X036576Y031242
T08
X030162Y084831
X038163Y092831
X038163Y084831
X030162Y092831
M30
