M48
METRIC,LZ,000.000
;FILE_FORMAT=3:3
;TYPE=PLATED
;Layer: PTH_Through_Via
;EasyEDA v6.5.51, 2025-12-10 18:06:53
;0555fe365c4c4ce19a54b4cc8b748554,f920225d1fc94cab822a7ee7b834fcf3,10
;Gerber Generator version 0.2
;Holesize 1 = 0.351 mm
T01C0.351
;Holesize 2 = 0.501 mm
T02C0.501
;Holesize 3 = 0.701 mm
T03C0.701
;Holesize 4 = 0.800 mm
T04C0.800
%
G05
G90
T01
X027166Y045114
X011883Y032197
X011883Y044036
X030928Y017129
X031178Y047744
X027962Y057587
X026416Y091948
X009485Y055571
X021691Y057748
X010123Y035723
X010123Y059591
T02
X024952Y038065
X029314Y075605
X007526Y075611
T03
X005341Y075925
T04
X030099Y090424
X030099Y088646
X030099Y087122
X038227Y087122
X038227Y088646
X038227Y090424
X035687Y092837
X034163Y092837
X032385Y092837
M30
