G04 Layer: TopLayer*
G04 Panelize: , Column: 2, Row: 1, Board Size: 40.01mm x 93.13mm, Panelized Board Size: 90.01mm x 93.13mm*
G04 EasyEDA v6.5.51, 2025-12-10 18:06:53*
G04 0555fe365c4c4ce19a54b4cc8b748554,f920225d1fc94cab822a7ee7b834fcf3,10*
G04 Gerber Generator version 0.2*
G04 Scale: 100 percent, Rotated: No, Reflected: No *
G04 Dimensions in millimeters *
G04 leading zeros omitted , absolute positions ,4 integer and 5 decimal *
%FSLAX45Y45*%
%MOMM*%

%ADD10C,0.7000*%
%ADD11C,1.5000*%
%ADD12C,1.0000*%
%ADD13C,2.2500*%
%ADD14R,1.5748X1.7000*%
%ADD15C,1.7000*%
%ADD16R,1.5748X1.5748*%
%ADD17R,0.0155X1.5748*%
%ADD18C,1.5748*%
%ADD19C,1.5240*%
%ADD20C,1.4000*%
%ADD21C,0.7000*%
%ADD22C,1.2000*%

%LPD*%
G36*
X36068Y229108D02*
G01*
X32156Y229870D01*
X28905Y232105D01*
X26670Y235356D01*
X25908Y239267D01*
X25908Y9476130D01*
X26670Y9479991D01*
X28905Y9483293D01*
X32207Y9485528D01*
X36118Y9486290D01*
X2741625Y9477451D01*
X2745536Y9476689D01*
X2748838Y9474454D01*
X2751023Y9471152D01*
X2751785Y9467240D01*
X2743200Y8243316D01*
X2744216Y8242300D01*
X3964432Y8242300D01*
X3968343Y8241538D01*
X3971594Y8239302D01*
X3973829Y8236051D01*
X3974592Y8232140D01*
X3974592Y239267D01*
X3973829Y235356D01*
X3971594Y232105D01*
X3968343Y229870D01*
X3964432Y229108D01*
G37*

%LPC*%
G36*
X462178Y302564D02*
G01*
X481990Y304038D01*
X501548Y307390D01*
X520700Y312572D01*
X539292Y319633D01*
X557072Y328422D01*
X573938Y338886D01*
X589737Y350977D01*
X604266Y364490D01*
X617423Y379323D01*
X629107Y395427D01*
X639165Y412546D01*
X647547Y430530D01*
X654100Y449275D01*
X658876Y468528D01*
X661720Y488188D01*
X662686Y508000D01*
X661720Y527862D01*
X658876Y547522D01*
X654100Y566775D01*
X647547Y585520D01*
X639165Y603504D01*
X629107Y620623D01*
X617423Y636727D01*
X604266Y651560D01*
X589737Y665073D01*
X573938Y677164D01*
X557072Y687628D01*
X539292Y696417D01*
X520700Y703478D01*
X501548Y708660D01*
X481990Y712012D01*
X462178Y713486D01*
X442315Y712978D01*
X422605Y710590D01*
X403199Y706323D01*
X384352Y700176D01*
X366115Y692251D01*
X348792Y682599D01*
X332435Y671322D01*
X317246Y658520D01*
X303377Y644296D01*
X290931Y628802D01*
X280060Y612190D01*
X270814Y594614D01*
X263347Y576224D01*
X257657Y557225D01*
X253847Y537718D01*
X251967Y517956D01*
X251967Y498093D01*
X253847Y478332D01*
X257657Y458825D01*
X263347Y439826D01*
X270814Y421436D01*
X280060Y403860D01*
X290931Y387248D01*
X303377Y371754D01*
X317246Y357530D01*
X332435Y344728D01*
X348792Y333451D01*
X366115Y323799D01*
X384352Y315874D01*
X403199Y309727D01*
X422605Y305460D01*
X442315Y303072D01*
G37*
G36*
X3637178Y302564D02*
G01*
X3656990Y303987D01*
X3676548Y307340D01*
X3695700Y312572D01*
X3714292Y319582D01*
X3732072Y328422D01*
X3748938Y338886D01*
X3764737Y350926D01*
X3779265Y364439D01*
X3792423Y379323D01*
X3804107Y395376D01*
X3814165Y412496D01*
X3822547Y430530D01*
X3829100Y449224D01*
X3833876Y468528D01*
X3836720Y488188D01*
X3837686Y508000D01*
X3836720Y527812D01*
X3833876Y547471D01*
X3829100Y566775D01*
X3822547Y585470D01*
X3814165Y603504D01*
X3804107Y620623D01*
X3792423Y636676D01*
X3779265Y651560D01*
X3764737Y665073D01*
X3748938Y677113D01*
X3732072Y687578D01*
X3714292Y696417D01*
X3695700Y703427D01*
X3676548Y708660D01*
X3656990Y712012D01*
X3637178Y713435D01*
X3617315Y712978D01*
X3597605Y710539D01*
X3578199Y706272D01*
X3559352Y700125D01*
X3541115Y692200D01*
X3523792Y682548D01*
X3507435Y671271D01*
X3492246Y658469D01*
X3478377Y644245D01*
X3465931Y628802D01*
X3455060Y612190D01*
X3445814Y594614D01*
X3438347Y576224D01*
X3432657Y557174D01*
X3428847Y537667D01*
X3426968Y517906D01*
X3426968Y498093D01*
X3428847Y478332D01*
X3432657Y458825D01*
X3438347Y439775D01*
X3445814Y421385D01*
X3455060Y403809D01*
X3465931Y387197D01*
X3478377Y371754D01*
X3492246Y357530D01*
X3507435Y344728D01*
X3523792Y333451D01*
X3541115Y323799D01*
X3559352Y315874D01*
X3578199Y309727D01*
X3597605Y305460D01*
X3617315Y303022D01*
G37*
G36*
X3229610Y674573D02*
G01*
X3381044Y674573D01*
X3387344Y674827D01*
X3393440Y675487D01*
X3399434Y676554D01*
X3405327Y678078D01*
X3411118Y680008D01*
X3416757Y682294D01*
X3422243Y685038D01*
X3427476Y688187D01*
X3432505Y691642D01*
X3437229Y695452D01*
X3441852Y699770D01*
X3717950Y975868D01*
X3722217Y980440D01*
X3726027Y985215D01*
X3729532Y990244D01*
X3732631Y995476D01*
X3735374Y1000912D01*
X3737711Y1006551D01*
X3739642Y1012342D01*
X3741165Y1018286D01*
X3742232Y1024280D01*
X3742893Y1030325D01*
X3743096Y1036624D01*
X3743096Y3014522D01*
X3743960Y3018536D01*
X3746296Y3021939D01*
X3756151Y3031236D01*
X3766261Y3043275D01*
X3774948Y3056432D01*
X3782009Y3070555D01*
X3787394Y3085338D01*
X3791051Y3100679D01*
X3792880Y3116326D01*
X3792880Y3132074D01*
X3791051Y3147720D01*
X3787394Y3163062D01*
X3782009Y3177844D01*
X3774948Y3191967D01*
X3766261Y3205124D01*
X3756151Y3217164D01*
X3745229Y3227476D01*
X3742791Y3231032D01*
X3742029Y3235248D01*
X3743096Y3239363D01*
X3745737Y3242716D01*
X3749548Y3244697D01*
X3753612Y3245764D01*
X3761587Y3249472D01*
X3768801Y3254552D01*
X3774998Y3260750D01*
X3780028Y3267964D01*
X3783787Y3275939D01*
X3786022Y3284423D01*
X3786835Y3293668D01*
X3786835Y3329330D01*
X3703320Y3329330D01*
X3703320Y3265373D01*
X3702608Y3261664D01*
X3700627Y3258464D01*
X3697630Y3256229D01*
X3693972Y3255213D01*
X3673348Y3258769D01*
X3657600Y3259683D01*
X3641851Y3258769D01*
X3621227Y3255213D01*
X3617569Y3256229D01*
X3614572Y3258464D01*
X3612591Y3261664D01*
X3611879Y3265373D01*
X3611879Y3329330D01*
X3528364Y3329330D01*
X3528364Y3293668D01*
X3529177Y3284423D01*
X3531412Y3275939D01*
X3535172Y3267964D01*
X3540201Y3260750D01*
X3546398Y3254552D01*
X3553612Y3249472D01*
X3561587Y3245764D01*
X3565651Y3244697D01*
X3569462Y3242716D01*
X3572103Y3239363D01*
X3573170Y3235248D01*
X3572408Y3231032D01*
X3569970Y3227476D01*
X3559048Y3217164D01*
X3548938Y3205124D01*
X3540251Y3191967D01*
X3533190Y3177844D01*
X3527806Y3163062D01*
X3524148Y3147720D01*
X3522319Y3132074D01*
X3522319Y3116326D01*
X3524148Y3100679D01*
X3527806Y3085338D01*
X3533190Y3070555D01*
X3540251Y3056432D01*
X3548938Y3043275D01*
X3559048Y3031236D01*
X3568903Y3021939D01*
X3571240Y3018536D01*
X3572103Y3014522D01*
X3572103Y1076096D01*
X3571341Y1072184D01*
X3569106Y1068882D01*
X3440125Y939901D01*
X3436416Y937564D01*
X3432098Y936955D01*
X3427882Y938276D01*
X3424682Y941222D01*
X3422954Y945286D01*
X3421583Y952753D01*
X3417011Y967333D01*
X3410762Y981303D01*
X3402837Y994410D01*
X3393389Y1006449D01*
X3382568Y1017269D01*
X3370529Y1026668D01*
X3357473Y1034592D01*
X3345129Y1040180D01*
X3341928Y1042365D01*
X3339846Y1045616D01*
X3339134Y1049426D01*
X3339846Y1053236D01*
X3341928Y1056487D01*
X3345129Y1058672D01*
X3357473Y1064260D01*
X3370529Y1072184D01*
X3382568Y1081582D01*
X3393389Y1092403D01*
X3402837Y1104442D01*
X3410762Y1117549D01*
X3417011Y1131519D01*
X3421583Y1146098D01*
X3424326Y1161135D01*
X3425291Y1176426D01*
X3424326Y1191717D01*
X3421583Y1206754D01*
X3417011Y1221333D01*
X3410762Y1235303D01*
X3402837Y1248410D01*
X3393389Y1260449D01*
X3382568Y1271270D01*
X3370529Y1280668D01*
X3357473Y1288592D01*
X3345129Y1294180D01*
X3341928Y1296365D01*
X3339846Y1299616D01*
X3339134Y1303426D01*
X3339846Y1307236D01*
X3341928Y1310487D01*
X3345129Y1312672D01*
X3357473Y1318260D01*
X3370529Y1326184D01*
X3382568Y1335582D01*
X3393389Y1346403D01*
X3402837Y1358442D01*
X3410762Y1371549D01*
X3417011Y1385519D01*
X3421583Y1400098D01*
X3424326Y1415135D01*
X3425291Y1430426D01*
X3424326Y1445717D01*
X3421583Y1460754D01*
X3417011Y1475333D01*
X3410762Y1489303D01*
X3402837Y1502410D01*
X3393389Y1514449D01*
X3382568Y1525270D01*
X3370529Y1534668D01*
X3357473Y1542592D01*
X3345129Y1548180D01*
X3341928Y1550365D01*
X3339846Y1553616D01*
X3339134Y1557426D01*
X3339846Y1561236D01*
X3341928Y1564487D01*
X3345129Y1566672D01*
X3357473Y1572260D01*
X3370529Y1580184D01*
X3382568Y1589582D01*
X3393389Y1600403D01*
X3402837Y1612442D01*
X3410762Y1625549D01*
X3417011Y1639519D01*
X3421583Y1654098D01*
X3424326Y1669135D01*
X3425291Y1684426D01*
X3424326Y1699717D01*
X3421583Y1714754D01*
X3417011Y1729333D01*
X3410762Y1743303D01*
X3402837Y1756410D01*
X3393389Y1768449D01*
X3382568Y1779270D01*
X3370529Y1788668D01*
X3357473Y1796592D01*
X3345129Y1802180D01*
X3341928Y1804365D01*
X3339846Y1807616D01*
X3339134Y1811426D01*
X3339846Y1815236D01*
X3341928Y1818487D01*
X3345129Y1820672D01*
X3357473Y1826260D01*
X3370529Y1834184D01*
X3382568Y1843582D01*
X3393389Y1854403D01*
X3402837Y1866442D01*
X3410762Y1879549D01*
X3417011Y1893519D01*
X3421583Y1908098D01*
X3424326Y1923135D01*
X3425291Y1938426D01*
X3424326Y1953717D01*
X3421583Y1968754D01*
X3417011Y1983333D01*
X3410762Y1997303D01*
X3402837Y2010410D01*
X3393389Y2022449D01*
X3382568Y2033270D01*
X3370529Y2042668D01*
X3357473Y2050592D01*
X3345129Y2056180D01*
X3341928Y2058365D01*
X3339846Y2061616D01*
X3339134Y2065426D01*
X3339846Y2069236D01*
X3341928Y2072487D01*
X3345129Y2074672D01*
X3357473Y2080260D01*
X3370529Y2088184D01*
X3382568Y2097582D01*
X3393389Y2108403D01*
X3402837Y2120442D01*
X3410762Y2133549D01*
X3417011Y2147519D01*
X3421583Y2162098D01*
X3424326Y2177135D01*
X3425291Y2192426D01*
X3424326Y2207717D01*
X3421583Y2222754D01*
X3417011Y2237333D01*
X3410762Y2251303D01*
X3402837Y2264410D01*
X3393389Y2276449D01*
X3382568Y2287270D01*
X3370529Y2296668D01*
X3357473Y2304592D01*
X3345129Y2310180D01*
X3341928Y2312365D01*
X3339846Y2315616D01*
X3339134Y2319426D01*
X3339846Y2323236D01*
X3341928Y2326487D01*
X3345129Y2328672D01*
X3357473Y2334260D01*
X3370529Y2342184D01*
X3382568Y2351582D01*
X3393389Y2362403D01*
X3402837Y2374442D01*
X3410762Y2387549D01*
X3417011Y2401519D01*
X3421583Y2416098D01*
X3424326Y2431135D01*
X3425291Y2446426D01*
X3424326Y2461717D01*
X3421583Y2476754D01*
X3417011Y2491333D01*
X3410762Y2505303D01*
X3402837Y2518410D01*
X3393389Y2530449D01*
X3382568Y2541270D01*
X3370529Y2550668D01*
X3357473Y2558592D01*
X3345129Y2564180D01*
X3341928Y2566365D01*
X3339846Y2569616D01*
X3339134Y2573426D01*
X3339846Y2577236D01*
X3341928Y2580487D01*
X3345129Y2582672D01*
X3357473Y2588260D01*
X3370529Y2596184D01*
X3382568Y2605582D01*
X3393389Y2616403D01*
X3402837Y2628442D01*
X3410762Y2641549D01*
X3417011Y2655519D01*
X3421583Y2670098D01*
X3424326Y2685135D01*
X3425291Y2700426D01*
X3424326Y2715717D01*
X3421583Y2730754D01*
X3417011Y2745333D01*
X3410762Y2759303D01*
X3402837Y2772410D01*
X3393389Y2784449D01*
X3382568Y2795270D01*
X3370529Y2804668D01*
X3357473Y2812592D01*
X3345129Y2818180D01*
X3341928Y2820365D01*
X3339846Y2823616D01*
X3339134Y2827426D01*
X3339846Y2831236D01*
X3341928Y2834487D01*
X3345129Y2836672D01*
X3357473Y2842260D01*
X3370529Y2850184D01*
X3382568Y2859582D01*
X3393389Y2870403D01*
X3402837Y2882442D01*
X3410762Y2895549D01*
X3417011Y2909519D01*
X3421583Y2924098D01*
X3424326Y2939135D01*
X3425291Y2954426D01*
X3424326Y2969717D01*
X3421583Y2984754D01*
X3417011Y2999333D01*
X3410762Y3013303D01*
X3402837Y3026410D01*
X3393389Y3038449D01*
X3382568Y3049270D01*
X3370529Y3058668D01*
X3357473Y3066592D01*
X3345129Y3072180D01*
X3341928Y3074365D01*
X3339846Y3077616D01*
X3339134Y3081426D01*
X3339846Y3085236D01*
X3341928Y3088487D01*
X3345129Y3090672D01*
X3357473Y3096260D01*
X3370529Y3104184D01*
X3382568Y3113582D01*
X3393389Y3124403D01*
X3402837Y3136442D01*
X3410762Y3149549D01*
X3417011Y3163519D01*
X3421583Y3178098D01*
X3424326Y3193135D01*
X3425291Y3208426D01*
X3424326Y3223717D01*
X3421583Y3238754D01*
X3417011Y3253333D01*
X3410762Y3267303D01*
X3402837Y3280410D01*
X3393389Y3292449D01*
X3382568Y3303270D01*
X3370529Y3312668D01*
X3357473Y3320592D01*
X3345129Y3326180D01*
X3341928Y3328365D01*
X3339846Y3331616D01*
X3339134Y3335426D01*
X3339846Y3339236D01*
X3341928Y3342487D01*
X3345129Y3344672D01*
X3357473Y3350260D01*
X3370529Y3358184D01*
X3382568Y3367582D01*
X3393389Y3378403D01*
X3402837Y3390442D01*
X3410762Y3403549D01*
X3417011Y3417519D01*
X3421583Y3432098D01*
X3424326Y3447135D01*
X3425291Y3462426D01*
X3424326Y3477717D01*
X3421583Y3492754D01*
X3417011Y3507333D01*
X3410762Y3521303D01*
X3402837Y3534410D01*
X3393389Y3546449D01*
X3382568Y3557270D01*
X3370529Y3566668D01*
X3357473Y3574592D01*
X3345129Y3580180D01*
X3341928Y3582365D01*
X3339846Y3585616D01*
X3339134Y3589426D01*
X3339846Y3593236D01*
X3341928Y3596487D01*
X3345129Y3598672D01*
X3357473Y3604260D01*
X3370529Y3612184D01*
X3382568Y3621582D01*
X3393389Y3632403D01*
X3402837Y3644442D01*
X3410762Y3657549D01*
X3417011Y3671519D01*
X3421583Y3686098D01*
X3424326Y3701135D01*
X3425291Y3716426D01*
X3424326Y3731717D01*
X3421583Y3746754D01*
X3417011Y3761333D01*
X3410762Y3775303D01*
X3402837Y3788410D01*
X3393389Y3800449D01*
X3382568Y3811270D01*
X3370529Y3820668D01*
X3357473Y3828592D01*
X3345129Y3834180D01*
X3341928Y3836365D01*
X3339846Y3839616D01*
X3339541Y3841343D01*
X3337255Y3839667D01*
X3333597Y3838701D01*
X3313836Y3842207D01*
X3298596Y3843121D01*
X3283305Y3842207D01*
X3263544Y3838701D01*
X3259886Y3839667D01*
X3257651Y3841343D01*
X3257296Y3839616D01*
X3255213Y3836365D01*
X3252063Y3834180D01*
X3239719Y3828592D01*
X3226612Y3820668D01*
X3219704Y3815283D01*
X3215640Y3813352D01*
X3211118Y3813403D01*
X3207054Y3815334D01*
X3204260Y3818890D01*
X3203295Y3823258D01*
X3203295Y3863594D01*
X3204260Y3867962D01*
X3207054Y3871518D01*
X3211118Y3873449D01*
X3215640Y3873500D01*
X3219704Y3871569D01*
X3226612Y3866184D01*
X3239719Y3858260D01*
X3252063Y3852672D01*
X3254146Y3851249D01*
X3254146Y3925976D01*
X3213455Y3925976D01*
X3209544Y3926738D01*
X3206242Y3928973D01*
X3204057Y3932224D01*
X3203295Y3936136D01*
X3203295Y4004716D01*
X3204057Y4008628D01*
X3206242Y4011879D01*
X3209544Y4014114D01*
X3213455Y4014876D01*
X3254146Y4014876D01*
X3254146Y4089603D01*
X3252063Y4088180D01*
X3239719Y4082592D01*
X3226612Y4074668D01*
X3219704Y4069283D01*
X3215640Y4067352D01*
X3211118Y4067403D01*
X3207054Y4069334D01*
X3204260Y4072890D01*
X3203295Y4077258D01*
X3203295Y4117594D01*
X3204260Y4121962D01*
X3207054Y4125518D01*
X3211118Y4127449D01*
X3215640Y4127500D01*
X3219704Y4125569D01*
X3226612Y4120184D01*
X3239719Y4112260D01*
X3252063Y4106672D01*
X3255213Y4104487D01*
X3257296Y4101236D01*
X3257651Y4099509D01*
X3259886Y4101185D01*
X3263544Y4102150D01*
X3283305Y4098645D01*
X3298596Y4097731D01*
X3313836Y4098645D01*
X3333597Y4102150D01*
X3337255Y4101185D01*
X3339541Y4099509D01*
X3339846Y4101236D01*
X3341928Y4104487D01*
X3345129Y4106672D01*
X3357473Y4112260D01*
X3370529Y4120184D01*
X3382568Y4129582D01*
X3393389Y4140403D01*
X3402837Y4152442D01*
X3410762Y4165549D01*
X3417011Y4179519D01*
X3421583Y4194098D01*
X3424326Y4209135D01*
X3425291Y4224426D01*
X3424326Y4239717D01*
X3421583Y4254754D01*
X3417011Y4269333D01*
X3410762Y4283303D01*
X3402837Y4296410D01*
X3393389Y4308449D01*
X3382568Y4319270D01*
X3370529Y4328668D01*
X3357473Y4336592D01*
X3345129Y4342180D01*
X3341928Y4344365D01*
X3339846Y4347616D01*
X3339134Y4351426D01*
X3339846Y4355236D01*
X3341928Y4358487D01*
X3345129Y4360672D01*
X3357473Y4366260D01*
X3370529Y4374184D01*
X3382568Y4383582D01*
X3393389Y4394403D01*
X3402837Y4406442D01*
X3410762Y4419549D01*
X3417011Y4433519D01*
X3421583Y4448098D01*
X3424326Y4463135D01*
X3425291Y4478426D01*
X3424326Y4493717D01*
X3421583Y4508754D01*
X3417011Y4523333D01*
X3410762Y4537303D01*
X3402837Y4550410D01*
X3393389Y4562449D01*
X3382568Y4573270D01*
X3370529Y4582668D01*
X3357473Y4590592D01*
X3345129Y4596180D01*
X3341928Y4598365D01*
X3339846Y4601616D01*
X3339134Y4605426D01*
X3339846Y4609236D01*
X3341928Y4612487D01*
X3345129Y4614672D01*
X3357473Y4620260D01*
X3370529Y4628184D01*
X3382568Y4637582D01*
X3393389Y4648403D01*
X3402837Y4660442D01*
X3410762Y4673549D01*
X3417011Y4687519D01*
X3421583Y4702098D01*
X3424326Y4717135D01*
X3425291Y4732426D01*
X3424326Y4747717D01*
X3421583Y4762754D01*
X3417011Y4777333D01*
X3410762Y4791303D01*
X3402837Y4804410D01*
X3393389Y4816449D01*
X3382568Y4827270D01*
X3370529Y4836668D01*
X3357473Y4844592D01*
X3345129Y4850180D01*
X3341928Y4852365D01*
X3339846Y4855616D01*
X3339134Y4859426D01*
X3339846Y4863236D01*
X3341928Y4866487D01*
X3345129Y4868672D01*
X3357473Y4874260D01*
X3370529Y4882184D01*
X3382568Y4891582D01*
X3393389Y4902403D01*
X3402837Y4914442D01*
X3410762Y4927549D01*
X3417011Y4941519D01*
X3421583Y4956098D01*
X3424326Y4971135D01*
X3425291Y4986426D01*
X3424326Y5001717D01*
X3421583Y5016754D01*
X3417011Y5031333D01*
X3410762Y5045303D01*
X3402837Y5058410D01*
X3393389Y5070449D01*
X3382568Y5081270D01*
X3370529Y5090668D01*
X3357473Y5098592D01*
X3345129Y5104180D01*
X3341928Y5106365D01*
X3339846Y5109616D01*
X3339134Y5113426D01*
X3339846Y5117236D01*
X3341928Y5120487D01*
X3345129Y5122672D01*
X3357473Y5128260D01*
X3370529Y5136184D01*
X3382568Y5145582D01*
X3393389Y5156403D01*
X3402837Y5168442D01*
X3410762Y5181549D01*
X3417011Y5195519D01*
X3421583Y5210098D01*
X3424326Y5225135D01*
X3425291Y5240426D01*
X3424326Y5255717D01*
X3421583Y5270754D01*
X3417011Y5285333D01*
X3410762Y5299303D01*
X3402837Y5312410D01*
X3393389Y5324449D01*
X3382568Y5335270D01*
X3370529Y5344668D01*
X3357473Y5352592D01*
X3345129Y5358180D01*
X3341928Y5360365D01*
X3339846Y5363616D01*
X3339541Y5365343D01*
X3337255Y5363667D01*
X3333597Y5362702D01*
X3313836Y5366207D01*
X3298596Y5367121D01*
X3293465Y5367680D01*
X3289909Y5370017D01*
X3257092Y5402834D01*
X3254908Y5406136D01*
X3254146Y5409996D01*
X3254146Y5449976D01*
X3214166Y5449976D01*
X3210255Y5450738D01*
X3206953Y5452973D01*
X2880410Y5779465D01*
X2878074Y5783122D01*
X2873959Y5794197D01*
X2868117Y5804916D01*
X2860802Y5814669D01*
X2852166Y5823305D01*
X2842412Y5830620D01*
X2836164Y5834024D01*
X2833268Y5836361D01*
X2831439Y5839663D01*
X2830880Y5843371D01*
X2831744Y5847029D01*
X2833878Y5850128D01*
X2999028Y6015278D01*
X3002280Y6017463D01*
X3006191Y6018225D01*
X3010103Y6017463D01*
X3013354Y6015278D01*
X3458718Y5569915D01*
X3468827Y5561025D01*
X3479749Y5553710D01*
X3491585Y5547918D01*
X3504031Y5543702D01*
X3516884Y5541111D01*
X3530346Y5540248D01*
X3664407Y5540248D01*
X3668268Y5539486D01*
X3671570Y5537250D01*
X3706622Y5502249D01*
X3708806Y5498947D01*
X3709568Y5495036D01*
X3709568Y5413146D01*
X3732987Y5413146D01*
X3736898Y5412384D01*
X3740150Y5410149D01*
X3742385Y5406898D01*
X3743147Y5402986D01*
X3743147Y5331866D01*
X3742385Y5327954D01*
X3740150Y5324703D01*
X3736898Y5322468D01*
X3732987Y5321706D01*
X3709568Y5321706D01*
X3709568Y5260340D01*
X3708806Y5256428D01*
X3706622Y5253126D01*
X3696665Y5243220D01*
X3693871Y5241239D01*
X3690569Y5240274D01*
X3671519Y5242407D01*
X3656228Y5242407D01*
X3641039Y5240629D01*
X3630676Y5238140D01*
X3627069Y5237937D01*
X3623564Y5239004D01*
X3620719Y5241290D01*
X3618788Y5244388D01*
X3618179Y5247995D01*
X3618179Y5321706D01*
X3534613Y5321706D01*
X3534613Y5289143D01*
X3535426Y5279898D01*
X3537712Y5271414D01*
X3541420Y5263438D01*
X3546449Y5256225D01*
X3552698Y5250027D01*
X3559911Y5244998D01*
X3567887Y5241239D01*
X3576370Y5239004D01*
X3585819Y5238140D01*
X3589782Y5236972D01*
X3592931Y5234279D01*
X3594760Y5230571D01*
X3594963Y5226456D01*
X3593490Y5222595D01*
X3590594Y5219598D01*
X3585464Y5216144D01*
X3573881Y5206136D01*
X3563518Y5194858D01*
X3554577Y5182412D01*
X3547211Y5169001D01*
X3541471Y5154828D01*
X3537407Y5140045D01*
X3535172Y5124907D01*
X3534714Y5109616D01*
X3536035Y5094325D01*
X3539236Y5079339D01*
X3544112Y5064861D01*
X3550716Y5051044D01*
X3558895Y5038090D01*
X3568547Y5026202D01*
X3579520Y5015534D01*
X3591661Y5006238D01*
X3604869Y4998466D01*
X3610813Y4995824D01*
X3613962Y4993690D01*
X3616096Y4990541D01*
X3616909Y4986832D01*
X3616299Y4983073D01*
X3614369Y4979822D01*
X3611372Y4977485D01*
X3598164Y4970678D01*
X3585464Y4962144D01*
X3573881Y4952136D01*
X3563518Y4940858D01*
X3554577Y4928412D01*
X3547211Y4915001D01*
X3541471Y4900828D01*
X3537407Y4886045D01*
X3535172Y4870907D01*
X3534714Y4855616D01*
X3536035Y4840325D01*
X3539236Y4825339D01*
X3544112Y4810861D01*
X3550716Y4797044D01*
X3558895Y4784090D01*
X3568547Y4772202D01*
X3579520Y4761534D01*
X3591661Y4752238D01*
X3604869Y4744466D01*
X3610813Y4741824D01*
X3613962Y4739690D01*
X3616096Y4736541D01*
X3616909Y4732832D01*
X3616299Y4729073D01*
X3614369Y4725822D01*
X3611372Y4723485D01*
X3598164Y4716678D01*
X3585464Y4708144D01*
X3573881Y4698136D01*
X3563518Y4686858D01*
X3554577Y4674412D01*
X3547211Y4661001D01*
X3541471Y4646828D01*
X3537407Y4632045D01*
X3535172Y4616907D01*
X3534714Y4601616D01*
X3536035Y4586325D01*
X3539236Y4571339D01*
X3544112Y4556861D01*
X3550716Y4543044D01*
X3558895Y4530090D01*
X3568547Y4518202D01*
X3579520Y4507534D01*
X3591661Y4498238D01*
X3604869Y4490466D01*
X3618890Y4484268D01*
X3633520Y4479798D01*
X3648608Y4477105D01*
X3663899Y4476191D01*
X3679139Y4477105D01*
X3694226Y4479798D01*
X3708857Y4484268D01*
X3722878Y4490466D01*
X3736086Y4498238D01*
X3748227Y4507534D01*
X3759200Y4518202D01*
X3768851Y4530090D01*
X3777030Y4543044D01*
X3783634Y4556861D01*
X3788511Y4571339D01*
X3791712Y4586325D01*
X3793032Y4601616D01*
X3792575Y4616907D01*
X3790340Y4632045D01*
X3786276Y4646828D01*
X3780536Y4661001D01*
X3773170Y4674412D01*
X3764229Y4686858D01*
X3753865Y4698136D01*
X3742283Y4708144D01*
X3729583Y4716678D01*
X3716375Y4723485D01*
X3713378Y4725822D01*
X3711448Y4729073D01*
X3710838Y4732832D01*
X3711651Y4736541D01*
X3713784Y4739690D01*
X3716934Y4741824D01*
X3722878Y4744466D01*
X3736086Y4752238D01*
X3748227Y4761534D01*
X3759200Y4772202D01*
X3768851Y4784090D01*
X3777030Y4797044D01*
X3783634Y4810861D01*
X3788511Y4825339D01*
X3791712Y4840325D01*
X3793032Y4855616D01*
X3792575Y4870907D01*
X3790340Y4886045D01*
X3786276Y4900828D01*
X3780536Y4915001D01*
X3773170Y4928412D01*
X3764229Y4940858D01*
X3753865Y4952136D01*
X3742283Y4962144D01*
X3729583Y4970678D01*
X3716375Y4977485D01*
X3713378Y4979822D01*
X3711448Y4983073D01*
X3710838Y4986832D01*
X3711651Y4990541D01*
X3713784Y4993690D01*
X3716934Y4995824D01*
X3722878Y4998466D01*
X3736086Y5006238D01*
X3748227Y5015534D01*
X3759098Y5026101D01*
X3760571Y5027269D01*
X3770223Y5033721D01*
X3780332Y5042611D01*
X3914495Y5176723D01*
X3923385Y5186883D01*
X3930700Y5197805D01*
X3936492Y5209590D01*
X3940708Y5222036D01*
X3943299Y5234940D01*
X3944162Y5248402D01*
X3944162Y5506974D01*
X3943299Y5520436D01*
X3940708Y5533339D01*
X3936492Y5545785D01*
X3930700Y5557570D01*
X3923385Y5568492D01*
X3914495Y5578652D01*
X3781551Y5711596D01*
X3771392Y5720486D01*
X3760114Y5728004D01*
X3757371Y5730697D01*
X3755847Y5734202D01*
X3755745Y5738063D01*
X3757066Y5741670D01*
X3759606Y5744514D01*
X3764737Y5748426D01*
X3779265Y5761939D01*
X3792423Y5776823D01*
X3804107Y5792876D01*
X3814165Y5809996D01*
X3822547Y5828030D01*
X3829100Y5846724D01*
X3833876Y5866028D01*
X3836720Y5885688D01*
X3837686Y5905500D01*
X3836720Y5925312D01*
X3833876Y5944971D01*
X3829100Y5964275D01*
X3822547Y5982970D01*
X3814165Y6001004D01*
X3804107Y6018123D01*
X3792423Y6034176D01*
X3779265Y6049060D01*
X3764737Y6062573D01*
X3748938Y6074613D01*
X3732072Y6085078D01*
X3714292Y6093917D01*
X3695700Y6100927D01*
X3676548Y6106160D01*
X3656990Y6109512D01*
X3637178Y6110935D01*
X3617315Y6110478D01*
X3597605Y6108039D01*
X3578199Y6103772D01*
X3559352Y6097625D01*
X3541115Y6089700D01*
X3523792Y6080048D01*
X3507435Y6068771D01*
X3492246Y6055969D01*
X3478377Y6041745D01*
X3465931Y6026302D01*
X3455060Y6009690D01*
X3445814Y5992114D01*
X3438347Y5973724D01*
X3432657Y5954674D01*
X3428847Y5935167D01*
X3426968Y5915406D01*
X3426968Y5910478D01*
X3426155Y5906617D01*
X3423970Y5903315D01*
X3420668Y5901131D01*
X3416808Y5900318D01*
X3412896Y5901131D01*
X3409594Y5903315D01*
X3034842Y6278067D01*
X3032658Y6281369D01*
X3031896Y6285230D01*
X3031896Y7560157D01*
X3030982Y7573619D01*
X3028442Y7586522D01*
X3024225Y7598968D01*
X3018383Y7610703D01*
X3010204Y7622794D01*
X3001213Y7632750D01*
X2990951Y7641386D01*
X2979623Y7648651D01*
X2967685Y7654239D01*
X2954832Y7658252D01*
X2944317Y7660182D01*
X2941574Y7660487D01*
X2931210Y7660995D01*
X2928162Y7660944D01*
X2918104Y7660131D01*
X2914802Y7659624D01*
X2905201Y7657541D01*
X2901696Y7656525D01*
X2892806Y7653324D01*
X2889148Y7651750D01*
X2881020Y7647482D01*
X2877362Y7645298D01*
X2870098Y7640167D01*
X2866542Y7637322D01*
X2860243Y7631531D01*
X2856890Y7627975D01*
X2851607Y7621625D01*
X2848559Y7617459D01*
X2844292Y7610703D01*
X2841701Y7605877D01*
X2838500Y7598918D01*
X2836418Y7593533D01*
X2834284Y7586522D01*
X2832862Y7580528D01*
X2831693Y7573619D01*
X2831084Y7567218D01*
X2830880Y7560360D01*
X2830880Y6239764D01*
X2831744Y6226302D01*
X2834284Y6213398D01*
X2838500Y6200952D01*
X2844342Y6189167D01*
X2851658Y6178245D01*
X2857550Y6171488D01*
X2859481Y6168237D01*
X2860040Y6164478D01*
X2859227Y6160770D01*
X2857093Y6157620D01*
X2424430Y5724956D01*
X2415540Y5714796D01*
X2408224Y5703874D01*
X2402382Y5692089D01*
X2398166Y5679643D01*
X2395626Y5666740D01*
X2394762Y5653278D01*
X2394762Y3806698D01*
X2394966Y3799789D01*
X2395575Y3793439D01*
X2396744Y3786479D01*
X2398166Y3780536D01*
X2400300Y3773525D01*
X2402382Y3768090D01*
X2405583Y3761130D01*
X2408174Y3756304D01*
X2412441Y3749598D01*
X2415489Y3745382D01*
X2420772Y3739032D01*
X2424125Y3735527D01*
X2430424Y3729736D01*
X2433980Y3726840D01*
X2441244Y3721760D01*
X2444902Y3719525D01*
X2453030Y3715308D01*
X2456688Y3713734D01*
X2465578Y3710482D01*
X2469083Y3709466D01*
X2478684Y3707384D01*
X2481986Y3706876D01*
X2492044Y3706063D01*
X2495092Y3706012D01*
X2505456Y3706520D01*
X2518714Y3708806D01*
X2521000Y3709365D01*
X2533700Y3713683D01*
X2545486Y3719474D01*
X2556408Y3726789D01*
X2566314Y3735476D01*
X2575001Y3745382D01*
X2581706Y3755288D01*
X2587752Y3767277D01*
X2592171Y3779977D01*
X2594813Y3793134D01*
X2595727Y3806850D01*
X2595727Y5607812D01*
X2596540Y5611672D01*
X2598724Y5614974D01*
X2699664Y5715914D01*
X2702966Y5718098D01*
X2706827Y5718860D01*
X2710738Y5718098D01*
X2714040Y5715914D01*
X2716225Y5712612D01*
X2718409Y5707278D01*
X2721152Y5701792D01*
X2724302Y5696559D01*
X2727756Y5691530D01*
X2731566Y5686806D01*
X2735884Y5682183D01*
X3169005Y5249062D01*
X3171291Y5245506D01*
X3171901Y5240426D01*
X3172815Y5225135D01*
X3175558Y5210098D01*
X3180130Y5195519D01*
X3186379Y5181549D01*
X3194304Y5168442D01*
X3203752Y5156403D01*
X3214573Y5145582D01*
X3226612Y5136184D01*
X3239719Y5128260D01*
X3252063Y5122672D01*
X3255213Y5120487D01*
X3257296Y5117236D01*
X3258058Y5113426D01*
X3257296Y5109616D01*
X3255213Y5106365D01*
X3252063Y5104180D01*
X3239719Y5098592D01*
X3226612Y5090668D01*
X3214573Y5081270D01*
X3203752Y5070449D01*
X3194304Y5058410D01*
X3186379Y5045303D01*
X3180130Y5031333D01*
X3175558Y5016754D01*
X3172815Y5001717D01*
X3171901Y4986426D01*
X3172815Y4971135D01*
X3175558Y4956098D01*
X3180130Y4941519D01*
X3186379Y4927549D01*
X3194304Y4914442D01*
X3203752Y4902403D01*
X3214573Y4891582D01*
X3226612Y4882184D01*
X3239719Y4874260D01*
X3252063Y4868672D01*
X3255213Y4866487D01*
X3257296Y4863236D01*
X3258058Y4859426D01*
X3257296Y4855616D01*
X3255213Y4852365D01*
X3252063Y4850180D01*
X3239719Y4844592D01*
X3226612Y4836668D01*
X3214573Y4827270D01*
X3205734Y4818430D01*
X3202076Y4816094D01*
X3197809Y4815484D01*
X3193643Y4816703D01*
X3190392Y4819548D01*
X3182366Y4830419D01*
X3173730Y4839004D01*
X3163976Y4846320D01*
X3153308Y4852162D01*
X3141878Y4856429D01*
X3129940Y4859020D01*
X3117799Y4859883D01*
X3105607Y4859020D01*
X3093669Y4856429D01*
X3082239Y4852162D01*
X3071571Y4846320D01*
X3061817Y4839004D01*
X3053181Y4830368D01*
X3045866Y4820615D01*
X3040024Y4809947D01*
X3035757Y4798517D01*
X3033166Y4786579D01*
X3032252Y4774031D01*
X3032252Y3643426D01*
X3032506Y3637127D01*
X3033166Y3631031D01*
X3034233Y3625037D01*
X3035757Y3619144D01*
X3037687Y3613353D01*
X3040024Y3607714D01*
X3042716Y3602228D01*
X3045866Y3596995D01*
X3049320Y3591966D01*
X3053181Y3587242D01*
X3057448Y3582619D01*
X3169005Y3471062D01*
X3171291Y3467506D01*
X3171901Y3462426D01*
X3172815Y3447135D01*
X3175558Y3432098D01*
X3180130Y3417519D01*
X3186379Y3403549D01*
X3194304Y3390442D01*
X3203752Y3378403D01*
X3214573Y3367582D01*
X3226612Y3358184D01*
X3239719Y3350260D01*
X3252063Y3344672D01*
X3255213Y3342487D01*
X3257296Y3339236D01*
X3258058Y3335426D01*
X3257296Y3331616D01*
X3255213Y3328365D01*
X3252063Y3326180D01*
X3239719Y3320592D01*
X3226612Y3312668D01*
X3214573Y3303270D01*
X3203752Y3292449D01*
X3194304Y3280410D01*
X3186379Y3267303D01*
X3180130Y3253333D01*
X3175558Y3238754D01*
X3172815Y3223666D01*
X3171088Y3219602D01*
X3167837Y3216656D01*
X3163671Y3215335D01*
X3159302Y3215944D01*
X3155645Y3218281D01*
X2805023Y3568903D01*
X2802839Y3572205D01*
X2802077Y3576065D01*
X2802077Y4510989D01*
X2801162Y4523536D01*
X2798572Y4535474D01*
X2794304Y4546904D01*
X2788462Y4557572D01*
X2781147Y4567326D01*
X2772511Y4575962D01*
X2762758Y4583277D01*
X2752090Y4589119D01*
X2740660Y4593386D01*
X2728722Y4595977D01*
X2716580Y4596841D01*
X2704388Y4595977D01*
X2692450Y4593386D01*
X2681020Y4589119D01*
X2670352Y4583277D01*
X2660599Y4575962D01*
X2651963Y4567326D01*
X2644648Y4557572D01*
X2638806Y4546904D01*
X2634538Y4535474D01*
X2631948Y4523536D01*
X2631033Y4510989D01*
X2631033Y3536645D01*
X2631287Y3530346D01*
X2631948Y3524250D01*
X2633014Y3518255D01*
X2634538Y3512362D01*
X2636469Y3506571D01*
X2638806Y3500932D01*
X2641498Y3495446D01*
X2644648Y3490214D01*
X2648102Y3485184D01*
X2651963Y3480460D01*
X2656230Y3475837D01*
X3169005Y2963062D01*
X3171291Y2959506D01*
X3171901Y2954426D01*
X3172815Y2939135D01*
X3175558Y2924098D01*
X3180130Y2909519D01*
X3186379Y2895549D01*
X3194304Y2882442D01*
X3203752Y2870403D01*
X3214573Y2859582D01*
X3226612Y2850184D01*
X3239719Y2842260D01*
X3252063Y2836672D01*
X3255213Y2834487D01*
X3257296Y2831236D01*
X3258058Y2827426D01*
X3257296Y2823616D01*
X3255213Y2820365D01*
X3252063Y2818180D01*
X3239719Y2812592D01*
X3226612Y2804668D01*
X3214573Y2795270D01*
X3203752Y2784449D01*
X3194304Y2772410D01*
X3186379Y2759303D01*
X3180130Y2745333D01*
X3175558Y2730754D01*
X3172815Y2715717D01*
X3171901Y2700426D01*
X3172815Y2685135D01*
X3175558Y2670098D01*
X3180130Y2655519D01*
X3186379Y2641549D01*
X3194304Y2628442D01*
X3203752Y2616403D01*
X3214573Y2605582D01*
X3226612Y2596184D01*
X3239719Y2588260D01*
X3252063Y2582672D01*
X3255213Y2580487D01*
X3257296Y2577236D01*
X3258058Y2573426D01*
X3257296Y2569616D01*
X3255213Y2566365D01*
X3252063Y2564180D01*
X3239719Y2558592D01*
X3226612Y2550668D01*
X3214573Y2541270D01*
X3203752Y2530449D01*
X3194304Y2518410D01*
X3186379Y2505303D01*
X3180130Y2491333D01*
X3175558Y2476754D01*
X3172815Y2461717D01*
X3171901Y2446426D01*
X3172815Y2431135D01*
X3175558Y2416098D01*
X3180130Y2401519D01*
X3186379Y2387549D01*
X3194304Y2374442D01*
X3203752Y2362403D01*
X3214573Y2351582D01*
X3226612Y2342184D01*
X3239719Y2334260D01*
X3252063Y2328672D01*
X3255213Y2326487D01*
X3257296Y2323236D01*
X3258058Y2319426D01*
X3257296Y2315616D01*
X3255213Y2312365D01*
X3252063Y2310180D01*
X3239719Y2304592D01*
X3226612Y2296668D01*
X3214573Y2287270D01*
X3203752Y2276449D01*
X3194304Y2264410D01*
X3186379Y2251303D01*
X3180130Y2237333D01*
X3175558Y2222754D01*
X3172815Y2207717D01*
X3171901Y2192426D01*
X3172815Y2177135D01*
X3175558Y2162098D01*
X3180130Y2147519D01*
X3186379Y2133549D01*
X3194304Y2120442D01*
X3203752Y2108403D01*
X3214573Y2097582D01*
X3226612Y2088184D01*
X3239719Y2080260D01*
X3252063Y2074672D01*
X3255213Y2072487D01*
X3257296Y2069236D01*
X3258058Y2065426D01*
X3257296Y2061616D01*
X3255213Y2058365D01*
X3252063Y2056180D01*
X3239719Y2050592D01*
X3226612Y2042668D01*
X3214573Y2033270D01*
X3203752Y2022449D01*
X3194304Y2010410D01*
X3186379Y1997303D01*
X3180130Y1983333D01*
X3175558Y1968754D01*
X3172815Y1953666D01*
X3171088Y1949602D01*
X3167837Y1946656D01*
X3163671Y1945335D01*
X3159302Y1945944D01*
X3155645Y1948281D01*
X2257602Y2846324D01*
X2255367Y2849626D01*
X2254605Y2853537D01*
X2254605Y5774436D01*
X2253742Y5786932D01*
X2251151Y5798870D01*
X2246884Y5810300D01*
X2241042Y5821019D01*
X2233726Y5830773D01*
X2225090Y5839409D01*
X2215337Y5846724D01*
X2204618Y5852566D01*
X2193188Y5856833D01*
X2181250Y5859424D01*
X2169109Y5860288D01*
X2156968Y5859424D01*
X2145030Y5856833D01*
X2133600Y5852566D01*
X2122881Y5846724D01*
X2113127Y5839409D01*
X2104491Y5830773D01*
X2097176Y5821019D01*
X2091334Y5810300D01*
X2087067Y5798870D01*
X2084476Y5786932D01*
X2083612Y5774436D01*
X2083612Y2814066D01*
X2083816Y2807766D01*
X2084476Y2801721D01*
X2085543Y2795727D01*
X2087067Y2789783D01*
X2088997Y2783992D01*
X2091334Y2778353D01*
X2094077Y2772918D01*
X2097176Y2767685D01*
X2100681Y2762656D01*
X2104491Y2757881D01*
X2108758Y2753309D01*
X3056839Y1805228D01*
X3058922Y1802130D01*
X3059785Y1798472D01*
X3059277Y1794764D01*
X3057398Y1791512D01*
X3054502Y1789125D01*
X3046526Y1784807D01*
X3036773Y1777492D01*
X3028137Y1768856D01*
X3020822Y1759102D01*
X3014980Y1748383D01*
X3010712Y1736953D01*
X3008122Y1725015D01*
X3007258Y1712518D01*
X3007258Y896924D01*
X3007461Y890625D01*
X3008122Y884580D01*
X3009188Y878586D01*
X3010712Y872642D01*
X3012643Y866851D01*
X3014980Y861212D01*
X3017723Y855776D01*
X3020822Y850544D01*
X3024327Y845515D01*
X3028137Y840740D01*
X3032404Y836168D01*
X3168802Y699770D01*
X3173425Y695452D01*
X3178149Y691642D01*
X3183178Y688187D01*
X3188411Y685038D01*
X3193897Y682294D01*
X3199536Y680008D01*
X3205327Y678078D01*
X3211220Y676554D01*
X3217214Y675487D01*
X3223310Y674827D01*
G37*
G36*
X752602Y795731D02*
G01*
X770178Y796899D01*
X812342Y796899D01*
X820115Y797153D01*
X827633Y797814D01*
X835152Y798982D01*
X842568Y800557D01*
X849833Y802589D01*
X857046Y805078D01*
X864006Y807974D01*
X870864Y811276D01*
X877468Y815035D01*
X883818Y819150D01*
X889914Y823620D01*
X895756Y828497D01*
X901395Y833780D01*
X1557223Y1489659D01*
X1562557Y1495298D01*
X1567383Y1501089D01*
X1571904Y1507236D01*
X1576019Y1513586D01*
X1579727Y1520190D01*
X1583029Y1526997D01*
X1585925Y1534007D01*
X1588414Y1541170D01*
X1590446Y1548485D01*
X1592072Y1555902D01*
X1593189Y1563370D01*
X1593900Y1570939D01*
X1594104Y1578660D01*
X1594104Y7096099D01*
X1593900Y7103872D01*
X1593189Y7111390D01*
X1592072Y7118908D01*
X1590446Y7126325D01*
X1588414Y7133590D01*
X1585925Y7140803D01*
X1583029Y7147763D01*
X1579727Y7154621D01*
X1576019Y7161225D01*
X1571904Y7167575D01*
X1567383Y7173671D01*
X1562557Y7179513D01*
X1557223Y7185152D01*
X912114Y7830261D01*
X906475Y7835544D01*
X900684Y7840421D01*
X894537Y7844891D01*
X888187Y7849006D01*
X881583Y7852765D01*
X874776Y7856067D01*
X867765Y7858963D01*
X860602Y7861452D01*
X853287Y7863484D01*
X845870Y7865059D01*
X838403Y7866227D01*
X830834Y7866888D01*
X823112Y7867142D01*
X683412Y7867142D01*
X675690Y7866888D01*
X665378Y7865770D01*
X661416Y7865973D01*
X657860Y7867650D01*
X655167Y7870596D01*
X653796Y7874304D01*
X653999Y7878267D01*
X658876Y7898028D01*
X661720Y7917688D01*
X662686Y7937500D01*
X661720Y7957312D01*
X658876Y7976971D01*
X654100Y7996275D01*
X647547Y8014970D01*
X639165Y8033003D01*
X629107Y8050123D01*
X617423Y8066176D01*
X604266Y8081060D01*
X589737Y8094573D01*
X573938Y8106613D01*
X557072Y8117078D01*
X539292Y8125917D01*
X520700Y8132927D01*
X501548Y8138159D01*
X481990Y8141512D01*
X462178Y8142935D01*
X442315Y8142478D01*
X422605Y8140039D01*
X403199Y8135772D01*
X384352Y8129625D01*
X366115Y8121700D01*
X348792Y8112048D01*
X332435Y8100771D01*
X317246Y8087969D01*
X303377Y8073745D01*
X290931Y8058302D01*
X280060Y8041690D01*
X270814Y8024114D01*
X263347Y8005724D01*
X257657Y7986674D01*
X253847Y7967167D01*
X251967Y7947406D01*
X251967Y7927594D01*
X253847Y7907832D01*
X257657Y7888325D01*
X263347Y7869275D01*
X270814Y7850886D01*
X280060Y7833309D01*
X290931Y7816697D01*
X303377Y7801254D01*
X317246Y7787030D01*
X332435Y7774228D01*
X348792Y7762951D01*
X366115Y7753299D01*
X384352Y7745374D01*
X403199Y7739227D01*
X422605Y7734960D01*
X442315Y7732522D01*
X462178Y7732064D01*
X471678Y7732775D01*
X475691Y7732217D01*
X479247Y7730134D01*
X481634Y7726832D01*
X482549Y7722870D01*
X481838Y7718856D01*
X479602Y7715453D01*
X445516Y7681366D01*
X440182Y7675727D01*
X435356Y7669885D01*
X430834Y7663789D01*
X426720Y7657439D01*
X423011Y7650835D01*
X419709Y7643977D01*
X416814Y7637018D01*
X414324Y7629804D01*
X412292Y7622540D01*
X410667Y7615123D01*
X409549Y7607604D01*
X408838Y7600086D01*
X408635Y7592314D01*
X408635Y7423810D01*
X407720Y7419644D01*
X405231Y7416241D01*
X401574Y7414107D01*
X397306Y7413701D01*
X393293Y7415072D01*
X389229Y7417460D01*
X375920Y7423302D01*
X375920Y7348220D01*
X398475Y7348220D01*
X402336Y7347458D01*
X405638Y7345222D01*
X407873Y7341971D01*
X408635Y7338059D01*
X408635Y7266940D01*
X407873Y7263028D01*
X405638Y7259777D01*
X402336Y7257542D01*
X398475Y7256780D01*
X375920Y7256780D01*
X375920Y7183170D01*
X375208Y7179462D01*
X373227Y7176262D01*
X370179Y7174026D01*
X366522Y7173010D01*
X362813Y7173417D01*
X360578Y7174128D01*
X345490Y7176820D01*
X330200Y7177735D01*
X314909Y7176820D01*
X299821Y7174128D01*
X297586Y7173417D01*
X293878Y7173010D01*
X290220Y7174026D01*
X287172Y7176262D01*
X285191Y7179462D01*
X284480Y7183170D01*
X284480Y7256780D01*
X209550Y7256780D01*
X213512Y7246924D01*
X220929Y7233513D01*
X229870Y7221067D01*
X240182Y7209790D01*
X251764Y7199782D01*
X264464Y7191248D01*
X277723Y7184440D01*
X280720Y7182103D01*
X282651Y7178852D01*
X283210Y7175093D01*
X282397Y7171385D01*
X280263Y7168235D01*
X277164Y7166102D01*
X271170Y7163460D01*
X258013Y7155688D01*
X245821Y7146391D01*
X234848Y7135723D01*
X225196Y7123836D01*
X217017Y7110882D01*
X210464Y7097064D01*
X205536Y7082586D01*
X202387Y7067600D01*
X201015Y7052309D01*
X201472Y7037019D01*
X203758Y7021880D01*
X207771Y7007098D01*
X213512Y6992924D01*
X220929Y6979513D01*
X229870Y6967067D01*
X240182Y6955790D01*
X251764Y6945782D01*
X264464Y6937248D01*
X277723Y6930440D01*
X280720Y6928103D01*
X282651Y6924852D01*
X283210Y6921093D01*
X282397Y6917385D01*
X280263Y6914235D01*
X277164Y6912102D01*
X271170Y6909460D01*
X258013Y6901688D01*
X245821Y6892391D01*
X234848Y6881723D01*
X225196Y6869836D01*
X217017Y6856882D01*
X210464Y6843064D01*
X206451Y6831330D01*
X204012Y6827367D01*
X98806Y6722160D01*
X94538Y6717588D01*
X90728Y6712813D01*
X87223Y6707784D01*
X84124Y6702552D01*
X81381Y6697116D01*
X79044Y6691477D01*
X77114Y6685686D01*
X75590Y6679742D01*
X74523Y6673748D01*
X73863Y6667703D01*
X73660Y6661403D01*
X73660Y3040024D01*
X73863Y3033725D01*
X74523Y3027680D01*
X75590Y3021685D01*
X77114Y3015742D01*
X79044Y3009950D01*
X81381Y3004312D01*
X84124Y2998876D01*
X87223Y2993644D01*
X90728Y2988614D01*
X94538Y2983839D01*
X98806Y2979267D01*
X622960Y2455113D01*
X625297Y2451506D01*
X625906Y2446426D01*
X626821Y2431135D01*
X629564Y2416098D01*
X634136Y2401519D01*
X640384Y2387549D01*
X648309Y2374442D01*
X657758Y2362403D01*
X668578Y2351582D01*
X680618Y2342184D01*
X693724Y2334260D01*
X706069Y2328672D01*
X709218Y2326487D01*
X711301Y2323236D01*
X711657Y2321509D01*
X713892Y2323185D01*
X717550Y2324150D01*
X737311Y2320645D01*
X752602Y2319731D01*
X767842Y2320645D01*
X787603Y2324150D01*
X791260Y2323185D01*
X793496Y2321509D01*
X793851Y2323236D01*
X795934Y2326487D01*
X799084Y2328672D01*
X811428Y2334260D01*
X824534Y2342184D01*
X836574Y2351582D01*
X847394Y2362403D01*
X856843Y2374442D01*
X864768Y2387549D01*
X871016Y2401519D01*
X875588Y2416098D01*
X878332Y2431135D01*
X879246Y2446426D01*
X878332Y2461717D01*
X875588Y2476754D01*
X871016Y2491333D01*
X864768Y2505303D01*
X856843Y2518410D01*
X847394Y2530449D01*
X836574Y2541270D01*
X824534Y2550668D01*
X811428Y2558592D01*
X799084Y2564180D01*
X795934Y2566365D01*
X793851Y2569616D01*
X793089Y2573426D01*
X793851Y2577236D01*
X795934Y2580487D01*
X799084Y2582672D01*
X811428Y2588260D01*
X824534Y2596184D01*
X836574Y2605582D01*
X847394Y2616403D01*
X856843Y2628442D01*
X864768Y2641549D01*
X871016Y2655519D01*
X875588Y2670098D01*
X878332Y2685135D01*
X879246Y2700426D01*
X878332Y2715717D01*
X875588Y2730754D01*
X871016Y2745333D01*
X864768Y2759303D01*
X856843Y2772410D01*
X847394Y2784449D01*
X836574Y2795270D01*
X824534Y2804668D01*
X811428Y2812592D01*
X799084Y2818180D01*
X795934Y2820365D01*
X793851Y2823616D01*
X793089Y2827426D01*
X793851Y2831236D01*
X795934Y2834487D01*
X799084Y2836672D01*
X811428Y2842260D01*
X824534Y2850184D01*
X836574Y2859582D01*
X847394Y2870403D01*
X856843Y2882442D01*
X864768Y2895549D01*
X871016Y2909519D01*
X875588Y2924098D01*
X878332Y2939135D01*
X879246Y2954426D01*
X878332Y2969717D01*
X875588Y2984754D01*
X871016Y2999333D01*
X864768Y3013303D01*
X856843Y3026410D01*
X847394Y3038449D01*
X836574Y3049270D01*
X824534Y3058668D01*
X811428Y3066592D01*
X799084Y3072180D01*
X795934Y3074365D01*
X793851Y3077616D01*
X793089Y3081426D01*
X793851Y3085236D01*
X795934Y3088487D01*
X799084Y3090672D01*
X811428Y3096260D01*
X824534Y3104184D01*
X836574Y3113582D01*
X847394Y3124403D01*
X856843Y3136442D01*
X864768Y3149549D01*
X871016Y3163519D01*
X875588Y3178098D01*
X878332Y3193135D01*
X879246Y3208426D01*
X878332Y3223717D01*
X875588Y3238754D01*
X871016Y3253333D01*
X864768Y3267303D01*
X856843Y3280410D01*
X847394Y3292449D01*
X836574Y3303270D01*
X824534Y3312668D01*
X811428Y3320592D01*
X799084Y3326180D01*
X795934Y3328365D01*
X793851Y3331616D01*
X793089Y3335426D01*
X793851Y3339236D01*
X795934Y3342487D01*
X799084Y3344672D01*
X811428Y3350260D01*
X824534Y3358184D01*
X836574Y3367582D01*
X847394Y3378403D01*
X856843Y3390442D01*
X864768Y3403549D01*
X871016Y3417519D01*
X875588Y3432098D01*
X878332Y3447135D01*
X879246Y3462426D01*
X878332Y3477717D01*
X877366Y3483000D01*
X877316Y3486251D01*
X878281Y3489350D01*
X880160Y3491992D01*
X909472Y3521303D01*
X912774Y3523487D01*
X916686Y3524250D01*
X920546Y3523487D01*
X923848Y3521303D01*
X926084Y3518001D01*
X926846Y3514090D01*
X926846Y3225800D01*
X927049Y3219500D01*
X927709Y3213455D01*
X928776Y3207461D01*
X930300Y3201517D01*
X932230Y3195726D01*
X934567Y3190087D01*
X937310Y3184652D01*
X940409Y3179419D01*
X943914Y3174390D01*
X947724Y3169615D01*
X951992Y3165043D01*
X1077874Y3039160D01*
X1082497Y3034842D01*
X1087221Y3031032D01*
X1092250Y3027578D01*
X1097483Y3024428D01*
X1102969Y3021685D01*
X1108608Y3019399D01*
X1114399Y3017469D01*
X1120292Y3015945D01*
X1126286Y3014878D01*
X1132382Y3014218D01*
X1138682Y3013964D01*
X1237843Y3013964D01*
X1244142Y3014218D01*
X1250238Y3014878D01*
X1256233Y3015945D01*
X1262126Y3017469D01*
X1267917Y3019399D01*
X1273556Y3021685D01*
X1279042Y3024428D01*
X1284274Y3027578D01*
X1289304Y3031032D01*
X1294028Y3034842D01*
X1298651Y3039160D01*
X1325727Y3066288D01*
X1329029Y3068472D01*
X1332941Y3069234D01*
X1336802Y3068472D01*
X1340104Y3066288D01*
X1342339Y3062986D01*
X1343101Y3059074D01*
X1343101Y1634693D01*
X1342339Y1630832D01*
X1340104Y1627530D01*
X895807Y1183182D01*
X892606Y1180998D01*
X888796Y1180236D01*
X884986Y1180846D01*
X881735Y1182878D01*
X879398Y1186027D01*
X878484Y1189736D01*
X878332Y1191717D01*
X875588Y1206754D01*
X871016Y1221333D01*
X864768Y1235303D01*
X856843Y1248410D01*
X847394Y1260449D01*
X836574Y1271270D01*
X824534Y1280668D01*
X811428Y1288592D01*
X799084Y1294180D01*
X795934Y1296365D01*
X793851Y1299616D01*
X793089Y1303426D01*
X793851Y1307236D01*
X795934Y1310487D01*
X799084Y1312672D01*
X811428Y1318260D01*
X824534Y1326184D01*
X836574Y1335582D01*
X847394Y1346403D01*
X856843Y1358442D01*
X864768Y1371549D01*
X871016Y1385519D01*
X875588Y1400098D01*
X878332Y1415135D01*
X879246Y1430426D01*
X878332Y1445717D01*
X875588Y1460754D01*
X871016Y1475333D01*
X864768Y1489303D01*
X856843Y1502410D01*
X847394Y1514449D01*
X836574Y1525270D01*
X824534Y1534668D01*
X811428Y1542592D01*
X799084Y1548180D01*
X795934Y1550365D01*
X793851Y1553616D01*
X793089Y1557426D01*
X793851Y1561236D01*
X795934Y1564487D01*
X799084Y1566672D01*
X811428Y1572260D01*
X824534Y1580184D01*
X836574Y1589582D01*
X847394Y1600403D01*
X856843Y1612442D01*
X864768Y1625549D01*
X871016Y1639519D01*
X875588Y1654098D01*
X878332Y1669135D01*
X879246Y1684426D01*
X878332Y1699717D01*
X875588Y1714754D01*
X871016Y1729333D01*
X864768Y1743303D01*
X856843Y1756410D01*
X847394Y1768449D01*
X836574Y1779270D01*
X824534Y1788668D01*
X811428Y1796592D01*
X799084Y1802180D01*
X795934Y1804365D01*
X793851Y1807616D01*
X793089Y1811426D01*
X793851Y1815236D01*
X795934Y1818487D01*
X799084Y1820672D01*
X811428Y1826260D01*
X824534Y1834184D01*
X836574Y1843582D01*
X847394Y1854403D01*
X856843Y1866442D01*
X864768Y1879549D01*
X871016Y1893519D01*
X875588Y1908098D01*
X878332Y1923135D01*
X879246Y1938426D01*
X878332Y1953717D01*
X875588Y1968754D01*
X871016Y1983333D01*
X864768Y1997303D01*
X856843Y2010410D01*
X847394Y2022449D01*
X836574Y2033270D01*
X824534Y2042668D01*
X811428Y2050592D01*
X799084Y2056180D01*
X795934Y2058365D01*
X793851Y2061616D01*
X793496Y2063343D01*
X791260Y2061667D01*
X787603Y2060702D01*
X767842Y2064207D01*
X752602Y2065121D01*
X737311Y2064207D01*
X717550Y2060702D01*
X713892Y2061667D01*
X711657Y2063343D01*
X711301Y2061616D01*
X709218Y2058365D01*
X706069Y2056180D01*
X693724Y2050592D01*
X680618Y2042668D01*
X668578Y2033270D01*
X657758Y2022449D01*
X648309Y2010410D01*
X640384Y1997303D01*
X634136Y1983333D01*
X629564Y1968754D01*
X626821Y1953717D01*
X625906Y1938426D01*
X626821Y1923135D01*
X629564Y1908098D01*
X634136Y1893519D01*
X640384Y1879549D01*
X648309Y1866442D01*
X657758Y1854403D01*
X668578Y1843582D01*
X680618Y1834184D01*
X693724Y1826260D01*
X706069Y1820672D01*
X709218Y1818487D01*
X711301Y1815236D01*
X712063Y1811426D01*
X711301Y1807616D01*
X709218Y1804365D01*
X706069Y1802180D01*
X693724Y1796592D01*
X680618Y1788668D01*
X668578Y1779270D01*
X657758Y1768449D01*
X648309Y1756410D01*
X640384Y1743303D01*
X634136Y1729333D01*
X629564Y1714754D01*
X626821Y1699717D01*
X625906Y1684426D01*
X626821Y1669135D01*
X629564Y1654098D01*
X634136Y1639519D01*
X640384Y1625549D01*
X648309Y1612442D01*
X657758Y1600403D01*
X668578Y1589582D01*
X680618Y1580184D01*
X693724Y1572260D01*
X706069Y1566672D01*
X709218Y1564487D01*
X711301Y1561236D01*
X712063Y1557426D01*
X711301Y1553616D01*
X709218Y1550365D01*
X706069Y1548180D01*
X693724Y1542592D01*
X680618Y1534668D01*
X668578Y1525270D01*
X657758Y1514449D01*
X648309Y1502410D01*
X640384Y1489303D01*
X634136Y1475333D01*
X629564Y1460754D01*
X626821Y1445717D01*
X625906Y1430426D01*
X626821Y1415135D01*
X629564Y1400098D01*
X634136Y1385519D01*
X640384Y1371549D01*
X648309Y1358442D01*
X657758Y1346403D01*
X668578Y1335582D01*
X680618Y1326184D01*
X693724Y1318260D01*
X706069Y1312672D01*
X709218Y1310487D01*
X711301Y1307236D01*
X712063Y1303426D01*
X711301Y1299616D01*
X709218Y1296365D01*
X706069Y1294180D01*
X693724Y1288592D01*
X680618Y1280668D01*
X668578Y1271270D01*
X657758Y1260449D01*
X648309Y1248410D01*
X640384Y1235303D01*
X634136Y1221333D01*
X629564Y1206754D01*
X626821Y1191717D01*
X625906Y1176426D01*
X626821Y1161135D01*
X629564Y1146098D01*
X634136Y1131519D01*
X640384Y1117549D01*
X648309Y1104442D01*
X657758Y1092403D01*
X668578Y1081582D01*
X680618Y1072184D01*
X693724Y1064260D01*
X706069Y1058672D01*
X709218Y1056487D01*
X711301Y1053236D01*
X712063Y1049426D01*
X711301Y1045616D01*
X709218Y1042365D01*
X706069Y1040180D01*
X693724Y1034592D01*
X680618Y1026668D01*
X668578Y1017269D01*
X657758Y1006449D01*
X648309Y994410D01*
X640384Y981303D01*
X634136Y967333D01*
X629564Y952753D01*
X626821Y937717D01*
X625906Y922426D01*
X626821Y907135D01*
X629564Y892098D01*
X634136Y877519D01*
X640384Y863549D01*
X648309Y850442D01*
X657758Y838403D01*
X668578Y827582D01*
X680618Y818184D01*
X693724Y810260D01*
X707644Y803960D01*
X722274Y799439D01*
X737311Y796645D01*
G37*
G36*
X797052Y2073249D02*
G01*
X799084Y2074672D01*
X811428Y2080260D01*
X824534Y2088184D01*
X836574Y2097582D01*
X847394Y2108403D01*
X856843Y2120442D01*
X864768Y2133549D01*
X871169Y2147976D01*
X797052Y2147976D01*
G37*
G36*
X708152Y2073249D02*
G01*
X708152Y2147976D01*
X633984Y2147976D01*
X640384Y2133549D01*
X648309Y2120442D01*
X657758Y2108403D01*
X668578Y2097582D01*
X680618Y2088184D01*
X693724Y2080260D01*
X706069Y2074672D01*
G37*
G36*
X797052Y2236876D02*
G01*
X871169Y2236876D01*
X864768Y2251303D01*
X856843Y2264410D01*
X847394Y2276449D01*
X836574Y2287270D01*
X824534Y2296668D01*
X811428Y2304592D01*
X799084Y2310180D01*
X797052Y2311603D01*
G37*
G36*
X633984Y2236876D02*
G01*
X708152Y2236876D01*
X708152Y2311603D01*
X706069Y2310180D01*
X693724Y2304592D01*
X680618Y2296668D01*
X668578Y2287270D01*
X657758Y2276449D01*
X648309Y2264410D01*
X640384Y2251303D01*
G37*
G36*
X3703320Y3427069D02*
G01*
X3786835Y3427069D01*
X3786835Y3462731D01*
X3786022Y3471976D01*
X3783787Y3480460D01*
X3780028Y3488436D01*
X3774998Y3495649D01*
X3768801Y3501847D01*
X3761587Y3506927D01*
X3753612Y3510635D01*
X3745128Y3512921D01*
X3735882Y3513683D01*
X3703320Y3513683D01*
G37*
G36*
X3528364Y3427069D02*
G01*
X3611879Y3427069D01*
X3611879Y3513683D01*
X3579317Y3513683D01*
X3570071Y3512921D01*
X3561587Y3510635D01*
X3553612Y3506927D01*
X3546398Y3501847D01*
X3540201Y3495649D01*
X3535172Y3488436D01*
X3531412Y3480460D01*
X3529177Y3471976D01*
X3528364Y3462731D01*
G37*
G36*
X3343046Y3851249D02*
G01*
X3345129Y3852672D01*
X3357473Y3858260D01*
X3370529Y3866184D01*
X3382568Y3875582D01*
X3393389Y3886403D01*
X3402837Y3898442D01*
X3410762Y3911549D01*
X3417163Y3925976D01*
X3343046Y3925976D01*
G37*
G36*
X3343046Y4014876D02*
G01*
X3417163Y4014876D01*
X3410762Y4029303D01*
X3402837Y4042410D01*
X3393389Y4054449D01*
X3382568Y4065270D01*
X3370529Y4074668D01*
X3357473Y4082592D01*
X3345129Y4088180D01*
X3343046Y4089603D01*
G37*
G36*
X3343046Y5375249D02*
G01*
X3345129Y5376672D01*
X3357473Y5382260D01*
X3370529Y5390184D01*
X3382568Y5399582D01*
X3393389Y5410403D01*
X3402837Y5422442D01*
X3410762Y5435549D01*
X3417163Y5449976D01*
X3343046Y5449976D01*
G37*
G36*
X3534613Y5413146D02*
G01*
X3618179Y5413146D01*
X3618179Y5496661D01*
X3585565Y5496661D01*
X3576370Y5495848D01*
X3567887Y5493613D01*
X3559911Y5489854D01*
X3552698Y5484825D01*
X3546449Y5478627D01*
X3541420Y5471414D01*
X3537712Y5463438D01*
X3535426Y5454954D01*
X3534613Y5445709D01*
G37*
G36*
X3343046Y5538876D02*
G01*
X3417163Y5538876D01*
X3410762Y5553303D01*
X3402837Y5566410D01*
X3393389Y5578449D01*
X3382568Y5589270D01*
X3370529Y5598668D01*
X3357473Y5606592D01*
X3343046Y5613044D01*
G37*
G36*
X3179978Y5538876D02*
G01*
X3254146Y5538876D01*
X3254146Y5613044D01*
X3239719Y5606592D01*
X3226612Y5598668D01*
X3214573Y5589270D01*
X3203752Y5578449D01*
X3194304Y5566410D01*
X3186379Y5553303D01*
G37*
G36*
X209499Y7348220D02*
G01*
X284480Y7348220D01*
X284480Y7423302D01*
X271170Y7417460D01*
X258013Y7409688D01*
X245821Y7400391D01*
X234848Y7389723D01*
X225196Y7377836D01*
X217017Y7364882D01*
X210464Y7351064D01*
G37*

%LPD*%
G36*
X397306Y7159701D02*
G01*
X393293Y7161072D01*
X389229Y7163460D01*
X383235Y7166102D01*
X380136Y7168235D01*
X378002Y7171385D01*
X377190Y7175093D01*
X377748Y7178852D01*
X379679Y7182103D01*
X382676Y7184440D01*
X393852Y7190130D01*
X397814Y7191248D01*
X401878Y7190689D01*
X405434Y7188555D01*
X407771Y7185152D01*
X408635Y7181138D01*
X408635Y7169810D01*
X407720Y7165644D01*
X405231Y7162241D01*
X401574Y7160107D01*
G37*

%LPD*%
G36*
X397306Y6905701D02*
G01*
X393293Y6907072D01*
X389229Y6909460D01*
X383235Y6912102D01*
X380136Y6914235D01*
X378002Y6917385D01*
X377190Y6921093D01*
X377748Y6924852D01*
X379679Y6928103D01*
X382676Y6930440D01*
X393852Y6936130D01*
X397814Y6937248D01*
X401878Y6936689D01*
X405434Y6934555D01*
X407771Y6931152D01*
X408635Y6927138D01*
X408635Y6915810D01*
X407720Y6911644D01*
X405231Y6908241D01*
X401574Y6906107D01*
G37*

%LPD*%
G36*
X852881Y5323179D02*
G01*
X848969Y5323941D01*
X845667Y5326176D01*
X836574Y5335270D01*
X824534Y5344668D01*
X811428Y5352592D01*
X799084Y5358180D01*
X795934Y5360365D01*
X793851Y5363616D01*
X793089Y5367426D01*
X793851Y5371236D01*
X795934Y5374487D01*
X799084Y5376672D01*
X811428Y5382260D01*
X824534Y5390184D01*
X836574Y5399582D01*
X845667Y5408676D01*
X848969Y5410911D01*
X852881Y5411673D01*
X856742Y5410911D01*
X860044Y5408676D01*
X862279Y5405424D01*
X863041Y5401513D01*
X863041Y5333339D01*
X862279Y5329428D01*
X860044Y5326176D01*
X856742Y5323941D01*
G37*

%LPD*%
G36*
X255981Y5236921D02*
G01*
X251764Y5237327D01*
X248056Y5239461D01*
X245567Y5242864D01*
X244652Y5247030D01*
X244652Y5259070D01*
X245516Y5263134D01*
X247853Y5266486D01*
X251409Y5268671D01*
X255473Y5269230D01*
X259486Y5268112D01*
X271272Y5262067D01*
X274269Y5259730D01*
X276199Y5256479D01*
X276809Y5252720D01*
X275996Y5249011D01*
X273862Y5245862D01*
X270713Y5243728D01*
X264769Y5241086D01*
X259994Y5238292D01*
G37*

%LPD*%
G36*
X852881Y5069179D02*
G01*
X848969Y5069941D01*
X845667Y5072176D01*
X836574Y5081270D01*
X824534Y5090668D01*
X811428Y5098592D01*
X799084Y5104180D01*
X795934Y5106365D01*
X793851Y5109616D01*
X793089Y5113426D01*
X793851Y5117236D01*
X795934Y5120487D01*
X799084Y5122672D01*
X811428Y5128260D01*
X824534Y5136184D01*
X836574Y5145582D01*
X845667Y5154676D01*
X848969Y5156911D01*
X852881Y5157673D01*
X856742Y5156911D01*
X860044Y5154676D01*
X862279Y5151424D01*
X863041Y5147513D01*
X863041Y5079339D01*
X862279Y5075428D01*
X860044Y5072176D01*
X856742Y5069941D01*
G37*

%LPD*%
G36*
X255981Y4982921D02*
G01*
X251764Y4983327D01*
X248056Y4985461D01*
X245567Y4988864D01*
X244652Y4993030D01*
X244652Y5005070D01*
X245516Y5009134D01*
X247853Y5012486D01*
X251409Y5014671D01*
X255473Y5015230D01*
X259486Y5014112D01*
X271272Y5008067D01*
X274269Y5005730D01*
X276199Y5002479D01*
X276809Y4998720D01*
X275996Y4995011D01*
X273862Y4991862D01*
X270713Y4989728D01*
X264769Y4987086D01*
X259994Y4984292D01*
G37*

%LPD*%
G36*
X852881Y4815179D02*
G01*
X848969Y4815941D01*
X845667Y4818176D01*
X836574Y4827270D01*
X824534Y4836668D01*
X811428Y4844592D01*
X799084Y4850180D01*
X795934Y4852365D01*
X793851Y4855616D01*
X793089Y4859426D01*
X793851Y4863236D01*
X795934Y4866487D01*
X799084Y4868672D01*
X811428Y4874260D01*
X824534Y4882184D01*
X836574Y4891582D01*
X845667Y4900676D01*
X848969Y4902911D01*
X852881Y4903673D01*
X856742Y4902911D01*
X860044Y4900676D01*
X862279Y4897424D01*
X863041Y4893513D01*
X863041Y4825339D01*
X862279Y4821428D01*
X860044Y4818176D01*
X856742Y4815941D01*
G37*

%LPD*%
G36*
X255981Y4728921D02*
G01*
X251764Y4729327D01*
X248056Y4731461D01*
X245567Y4734864D01*
X244652Y4739030D01*
X244652Y4751070D01*
X245516Y4755134D01*
X247853Y4758486D01*
X251409Y4760671D01*
X255473Y4761230D01*
X259486Y4760112D01*
X271272Y4754067D01*
X274269Y4751730D01*
X276199Y4748479D01*
X276809Y4744720D01*
X275996Y4741011D01*
X273862Y4737862D01*
X270713Y4735728D01*
X264769Y4733086D01*
X259994Y4730292D01*
G37*

%LPD*%
G36*
X3215640Y4575352D02*
G01*
X3211118Y4575403D01*
X3207054Y4577334D01*
X3204260Y4580890D01*
X3203295Y4585258D01*
X3203295Y4625594D01*
X3204260Y4629962D01*
X3207054Y4633518D01*
X3211118Y4635449D01*
X3215640Y4635500D01*
X3219704Y4633569D01*
X3226612Y4628184D01*
X3239719Y4620260D01*
X3252063Y4614672D01*
X3255213Y4612487D01*
X3257296Y4609236D01*
X3258058Y4605426D01*
X3257296Y4601616D01*
X3255213Y4598365D01*
X3252063Y4596180D01*
X3239719Y4590592D01*
X3226612Y4582668D01*
X3219704Y4577283D01*
G37*

%LPD*%
G36*
X852881Y4561179D02*
G01*
X848969Y4561941D01*
X845667Y4564176D01*
X836574Y4573270D01*
X824534Y4582668D01*
X811428Y4590592D01*
X799084Y4596180D01*
X795934Y4598365D01*
X793851Y4601616D01*
X793089Y4605426D01*
X793851Y4609236D01*
X795934Y4612487D01*
X799084Y4614672D01*
X811428Y4620260D01*
X824534Y4628184D01*
X836574Y4637582D01*
X845667Y4646676D01*
X848969Y4648911D01*
X852881Y4649673D01*
X856742Y4648911D01*
X860044Y4646676D01*
X862279Y4643424D01*
X863041Y4639513D01*
X863041Y4571339D01*
X862279Y4567428D01*
X860044Y4564176D01*
X856742Y4561941D01*
G37*

%LPD*%
G36*
X255981Y4474921D02*
G01*
X251764Y4475327D01*
X248056Y4477461D01*
X245567Y4480864D01*
X244652Y4485030D01*
X244652Y4497070D01*
X245516Y4501134D01*
X247853Y4504486D01*
X251409Y4506671D01*
X255473Y4507230D01*
X259486Y4506112D01*
X271272Y4500067D01*
X274269Y4497730D01*
X276199Y4494479D01*
X276809Y4490720D01*
X275996Y4487011D01*
X273862Y4483862D01*
X270713Y4481728D01*
X264769Y4479086D01*
X259994Y4476292D01*
G37*

%LPD*%
G36*
X3215640Y4321352D02*
G01*
X3211118Y4321403D01*
X3207054Y4323334D01*
X3204260Y4326890D01*
X3203295Y4331258D01*
X3203295Y4371594D01*
X3204260Y4375962D01*
X3207054Y4379518D01*
X3211118Y4381449D01*
X3215640Y4381500D01*
X3219704Y4379569D01*
X3226612Y4374184D01*
X3239719Y4366260D01*
X3252063Y4360672D01*
X3255213Y4358487D01*
X3257296Y4355236D01*
X3258058Y4351426D01*
X3257296Y4347616D01*
X3255213Y4344365D01*
X3252063Y4342180D01*
X3239719Y4336592D01*
X3226612Y4328668D01*
X3219704Y4323283D01*
G37*

%LPD*%
G36*
X852881Y4307179D02*
G01*
X848969Y4307941D01*
X845667Y4310176D01*
X836574Y4319270D01*
X824534Y4328668D01*
X811428Y4336592D01*
X799084Y4342180D01*
X795934Y4344365D01*
X793851Y4347616D01*
X793089Y4351426D01*
X793851Y4355236D01*
X795934Y4358487D01*
X799084Y4360672D01*
X811428Y4366260D01*
X824534Y4374184D01*
X836574Y4383582D01*
X845667Y4392676D01*
X848969Y4394911D01*
X852881Y4395673D01*
X856742Y4394911D01*
X860044Y4392676D01*
X862279Y4389424D01*
X863041Y4385513D01*
X863041Y4317339D01*
X862279Y4313428D01*
X860044Y4310176D01*
X856742Y4307941D01*
G37*

%LPD*%
G36*
X852881Y4053179D02*
G01*
X848969Y4053941D01*
X845667Y4056176D01*
X836574Y4065270D01*
X824534Y4074668D01*
X811428Y4082592D01*
X799084Y4088180D01*
X795934Y4090365D01*
X793851Y4093616D01*
X793089Y4097426D01*
X793851Y4101236D01*
X795934Y4104487D01*
X799084Y4106672D01*
X811428Y4112260D01*
X824534Y4120184D01*
X836574Y4129582D01*
X845667Y4138676D01*
X848969Y4140911D01*
X852881Y4141673D01*
X856742Y4140911D01*
X860044Y4138676D01*
X862279Y4135424D01*
X863041Y4131513D01*
X863041Y4063339D01*
X862279Y4059428D01*
X860044Y4056176D01*
X856742Y4053941D01*
G37*

%LPD*%
G36*
X852881Y3799179D02*
G01*
X848969Y3799941D01*
X845667Y3802176D01*
X836574Y3811270D01*
X824534Y3820668D01*
X811428Y3828592D01*
X799084Y3834180D01*
X795934Y3836365D01*
X793851Y3839616D01*
X793089Y3843426D01*
X793851Y3847236D01*
X795934Y3850487D01*
X799084Y3852672D01*
X811428Y3858260D01*
X824534Y3866184D01*
X836574Y3875582D01*
X845667Y3884676D01*
X848969Y3886911D01*
X852881Y3887673D01*
X856742Y3886911D01*
X860044Y3884676D01*
X862279Y3881424D01*
X863041Y3877513D01*
X863041Y3809339D01*
X862279Y3805428D01*
X860044Y3802176D01*
X856742Y3799941D01*
G37*

%LPD*%
G36*
X1091641Y3614165D02*
G01*
X1087628Y3615436D01*
X1084478Y3618179D01*
X1076960Y3628237D01*
X1068324Y3636873D01*
X1058570Y3644188D01*
X1047851Y3650030D01*
X1038809Y3653383D01*
X1035812Y3655161D01*
X1033526Y3657854D01*
X1032357Y3661206D01*
X1032357Y3664712D01*
X1033170Y3669080D01*
X1033830Y3675176D01*
X1034034Y3681476D01*
X1034034Y5556758D01*
X1033170Y5569305D01*
X1030579Y5581243D01*
X1026312Y5592673D01*
X1020470Y5603341D01*
X1013155Y5613095D01*
X1004519Y5621731D01*
X994765Y5629046D01*
X984046Y5634888D01*
X972616Y5639155D01*
X960678Y5641746D01*
X948537Y5642610D01*
X936396Y5641746D01*
X924458Y5639155D01*
X913028Y5634888D01*
X902309Y5629046D01*
X892556Y5621731D01*
X883919Y5613095D01*
X876604Y5603341D01*
X872185Y5595162D01*
X869238Y5591860D01*
X865174Y5590082D01*
X860755Y5590184D01*
X856792Y5592216D01*
X854049Y5595721D01*
X853084Y5600039D01*
X853084Y7509764D01*
X853846Y7513675D01*
X856081Y7516977D01*
X859332Y7519162D01*
X863244Y7519924D01*
X867156Y7519162D01*
X870407Y7516977D01*
X1340104Y7047280D01*
X1342339Y7043978D01*
X1343101Y7040067D01*
X1343101Y5773775D01*
X1342339Y5769914D01*
X1340104Y5766612D01*
X1336802Y5764428D01*
X1332941Y5763615D01*
X1329029Y5764428D01*
X1325727Y5766612D01*
X1072946Y6019444D01*
X1068324Y6023711D01*
X1063599Y6027521D01*
X1058570Y6031026D01*
X1053338Y6034125D01*
X1047851Y6036868D01*
X1042212Y6039205D01*
X1036421Y6041136D01*
X1030528Y6042660D01*
X1024534Y6043726D01*
X1018438Y6044387D01*
X1012342Y6044590D01*
X1006246Y6044387D01*
X1000150Y6043726D01*
X994156Y6042660D01*
X988263Y6041136D01*
X982471Y6039205D01*
X976833Y6036868D01*
X971346Y6034125D01*
X966114Y6031026D01*
X961085Y6027521D01*
X956360Y6023711D01*
X951890Y6019546D01*
X947724Y6015075D01*
X943914Y6010351D01*
X940409Y6005322D01*
X937310Y6000089D01*
X934567Y5994603D01*
X932230Y5988964D01*
X930300Y5983173D01*
X928776Y5977280D01*
X927709Y5971286D01*
X927049Y5965190D01*
X926846Y5959094D01*
X927049Y5952998D01*
X927709Y5946902D01*
X928776Y5940907D01*
X930300Y5935014D01*
X932230Y5929223D01*
X934567Y5923584D01*
X937310Y5918098D01*
X940409Y5912866D01*
X943914Y5907836D01*
X947724Y5903112D01*
X951992Y5898489D01*
X1219962Y5630570D01*
X1222146Y5627268D01*
X1222908Y5623356D01*
X1222908Y4495901D01*
X1221943Y4491532D01*
X1219149Y4487976D01*
X1215085Y4485995D01*
X1210614Y4485995D01*
X1200404Y4488180D01*
X1188262Y4489043D01*
X1176121Y4488180D01*
X1164183Y4485589D01*
X1152753Y4481322D01*
X1142034Y4475480D01*
X1132281Y4468164D01*
X1123645Y4459528D01*
X1116330Y4449775D01*
X1110488Y4439107D01*
X1106220Y4427677D01*
X1103630Y4415739D01*
X1102766Y4403191D01*
X1102766Y3624275D01*
X1101902Y3620160D01*
X1099413Y3616756D01*
X1095806Y3614623D01*
G37*

%LPD*%
G36*
X617677Y2707386D02*
G01*
X613308Y2707944D01*
X609650Y2710281D01*
X247650Y3072282D01*
X245414Y3075584D01*
X244652Y3079496D01*
X244652Y3970731D01*
X245414Y3974592D01*
X247650Y3977894D01*
X250952Y3980129D01*
X254812Y3980891D01*
X402082Y3980891D01*
X411276Y3981704D01*
X419760Y3983939D01*
X427735Y3987698D01*
X434949Y3992727D01*
X441198Y3998925D01*
X446227Y4006138D01*
X449935Y4014114D01*
X452221Y4022598D01*
X453034Y4031843D01*
X453034Y4188409D01*
X452221Y4197654D01*
X449935Y4206138D01*
X446227Y4214114D01*
X441198Y4221327D01*
X434949Y4227525D01*
X427735Y4232554D01*
X419760Y4236313D01*
X411276Y4238548D01*
X401828Y4239412D01*
X397865Y4240580D01*
X394716Y4243273D01*
X392887Y4246981D01*
X392684Y4251096D01*
X394157Y4254957D01*
X397052Y4257954D01*
X402183Y4261408D01*
X413766Y4271416D01*
X424129Y4282694D01*
X433070Y4295140D01*
X440435Y4308551D01*
X444449Y4318406D01*
X369519Y4318406D01*
X369519Y4249521D01*
X368706Y4245660D01*
X366522Y4242358D01*
X363220Y4240123D01*
X359359Y4239361D01*
X288239Y4239361D01*
X284327Y4240123D01*
X281025Y4242358D01*
X278841Y4245660D01*
X278079Y4249521D01*
X278079Y4318406D01*
X254812Y4318406D01*
X250952Y4319168D01*
X247650Y4321403D01*
X245414Y4324654D01*
X244652Y4328566D01*
X244652Y4399686D01*
X245414Y4403598D01*
X247650Y4406849D01*
X250952Y4409084D01*
X254812Y4409846D01*
X278079Y4409846D01*
X278079Y4483557D01*
X278688Y4487164D01*
X280619Y4490262D01*
X283464Y4492548D01*
X286969Y4493615D01*
X290576Y4493412D01*
X300939Y4490923D01*
X316128Y4489145D01*
X331419Y4489145D01*
X346608Y4490923D01*
X356971Y4493412D01*
X360578Y4493615D01*
X364083Y4492548D01*
X366928Y4490262D01*
X368858Y4487164D01*
X369519Y4483557D01*
X369519Y4409846D01*
X444500Y4409846D01*
X443534Y4412691D01*
X436930Y4426508D01*
X428751Y4439462D01*
X419100Y4451350D01*
X408127Y4462018D01*
X395986Y4471314D01*
X382778Y4479086D01*
X376834Y4481728D01*
X373684Y4483862D01*
X371551Y4487011D01*
X370738Y4490720D01*
X371348Y4494479D01*
X373278Y4497730D01*
X376275Y4500067D01*
X389483Y4506874D01*
X402183Y4515408D01*
X413766Y4525416D01*
X424129Y4536694D01*
X433070Y4549140D01*
X440435Y4562551D01*
X446176Y4576724D01*
X450240Y4591507D01*
X452475Y4606645D01*
X452932Y4621936D01*
X451612Y4637227D01*
X448411Y4652213D01*
X443534Y4666691D01*
X436930Y4680508D01*
X428751Y4693462D01*
X419100Y4705350D01*
X408127Y4716018D01*
X395986Y4725314D01*
X382778Y4733086D01*
X376834Y4735728D01*
X373684Y4737862D01*
X371551Y4741011D01*
X370738Y4744720D01*
X371348Y4748479D01*
X373278Y4751730D01*
X376275Y4754067D01*
X389483Y4760874D01*
X402183Y4769408D01*
X413766Y4779416D01*
X424129Y4790694D01*
X433070Y4803140D01*
X440435Y4816551D01*
X444449Y4826406D01*
X369519Y4826406D01*
X369519Y4752797D01*
X368808Y4749088D01*
X366776Y4745888D01*
X363778Y4743653D01*
X360121Y4742637D01*
X356362Y4743043D01*
X354126Y4743754D01*
X339039Y4746447D01*
X323799Y4747361D01*
X308508Y4746447D01*
X293420Y4743754D01*
X291185Y4743043D01*
X287426Y4742637D01*
X283768Y4743653D01*
X280771Y4745888D01*
X278739Y4749088D01*
X278079Y4752797D01*
X278079Y4826406D01*
X254812Y4826406D01*
X250952Y4827168D01*
X247650Y4829403D01*
X245414Y4832654D01*
X244652Y4836566D01*
X244652Y4907686D01*
X245414Y4911598D01*
X247650Y4914849D01*
X250952Y4917084D01*
X254812Y4917846D01*
X278079Y4917846D01*
X278079Y5080406D01*
X254812Y5080406D01*
X250952Y5081168D01*
X247650Y5083403D01*
X245414Y5086654D01*
X244652Y5090566D01*
X244652Y5161686D01*
X245414Y5165598D01*
X247650Y5168849D01*
X250952Y5171084D01*
X254812Y5171846D01*
X278079Y5171846D01*
X278079Y5245557D01*
X278688Y5249164D01*
X280619Y5252262D01*
X283464Y5254548D01*
X286969Y5255615D01*
X290576Y5255412D01*
X300939Y5252923D01*
X316128Y5251145D01*
X331419Y5251145D01*
X346608Y5252923D01*
X356971Y5255412D01*
X360578Y5255615D01*
X364083Y5254548D01*
X366928Y5252262D01*
X368858Y5249164D01*
X369519Y5245557D01*
X369519Y5171846D01*
X444500Y5171846D01*
X443534Y5174691D01*
X436930Y5188508D01*
X428751Y5201462D01*
X419100Y5213350D01*
X408127Y5224018D01*
X395986Y5233314D01*
X382778Y5241086D01*
X376834Y5243728D01*
X373684Y5245862D01*
X371551Y5249011D01*
X370738Y5252720D01*
X371348Y5256479D01*
X373278Y5259730D01*
X376275Y5262067D01*
X389483Y5268874D01*
X402183Y5277408D01*
X413766Y5287416D01*
X424129Y5298694D01*
X433070Y5311140D01*
X440435Y5324551D01*
X446176Y5338724D01*
X450240Y5353507D01*
X452475Y5368645D01*
X452932Y5383936D01*
X451612Y5399227D01*
X448411Y5414213D01*
X443534Y5428691D01*
X436930Y5442508D01*
X428751Y5455462D01*
X419100Y5467350D01*
X408127Y5478018D01*
X395986Y5487314D01*
X382778Y5495086D01*
X368757Y5501284D01*
X354126Y5505754D01*
X339039Y5508447D01*
X323799Y5509361D01*
X308508Y5508447D01*
X293420Y5505754D01*
X278790Y5501284D01*
X264769Y5495086D01*
X259994Y5492292D01*
X255981Y5490921D01*
X251764Y5491327D01*
X248056Y5493461D01*
X245567Y5496864D01*
X244652Y5501030D01*
X244652Y6401104D01*
X245414Y6404965D01*
X247650Y6408267D01*
X250952Y6410502D01*
X254812Y6411264D01*
X408482Y6411264D01*
X417677Y6412077D01*
X427228Y6414617D01*
X429869Y6414973D01*
X533857Y6414973D01*
X541578Y6415227D01*
X549148Y6415887D01*
X556615Y6417056D01*
X564032Y6418630D01*
X571347Y6420662D01*
X578510Y6423152D01*
X585520Y6426047D01*
X592328Y6429349D01*
X598932Y6433108D01*
X605282Y6437223D01*
X611428Y6441694D01*
X617220Y6446570D01*
X622757Y6451752D01*
X627938Y6457238D01*
X634034Y6464706D01*
X637286Y6467297D01*
X641248Y6468414D01*
X645312Y6467856D01*
X648868Y6465722D01*
X651205Y6462318D01*
X652068Y6458305D01*
X652068Y5574690D01*
X651510Y5571388D01*
X649884Y5568442D01*
X648309Y5566410D01*
X640384Y5553303D01*
X634136Y5539333D01*
X629564Y5524754D01*
X626821Y5509717D01*
X625906Y5494426D01*
X626821Y5479135D01*
X629564Y5464098D01*
X634136Y5449519D01*
X640384Y5435549D01*
X648309Y5422442D01*
X657758Y5410403D01*
X668578Y5399582D01*
X680618Y5390184D01*
X693724Y5382260D01*
X706069Y5376672D01*
X709218Y5374487D01*
X711301Y5371236D01*
X712063Y5367426D01*
X711301Y5363616D01*
X709218Y5360365D01*
X706069Y5358180D01*
X693724Y5352592D01*
X680618Y5344668D01*
X668578Y5335270D01*
X657758Y5324449D01*
X648309Y5312410D01*
X640384Y5299303D01*
X634136Y5285333D01*
X629564Y5270754D01*
X626821Y5255717D01*
X625906Y5240426D01*
X626821Y5225135D01*
X629564Y5210098D01*
X634136Y5195519D01*
X640384Y5181549D01*
X648309Y5168442D01*
X657758Y5156403D01*
X668578Y5145582D01*
X680618Y5136184D01*
X693724Y5128260D01*
X706069Y5122672D01*
X709218Y5120487D01*
X711301Y5117236D01*
X712063Y5113426D01*
X711301Y5109616D01*
X709218Y5106365D01*
X706069Y5104180D01*
X693724Y5098592D01*
X680618Y5090668D01*
X668578Y5081270D01*
X657758Y5070449D01*
X648309Y5058410D01*
X640384Y5045303D01*
X634136Y5031333D01*
X629564Y5016754D01*
X626821Y5001717D01*
X625906Y4986426D01*
X626821Y4971135D01*
X629564Y4956098D01*
X634136Y4941519D01*
X640384Y4927549D01*
X648309Y4914442D01*
X657758Y4902403D01*
X668578Y4891582D01*
X680618Y4882184D01*
X693724Y4874260D01*
X706069Y4868672D01*
X709218Y4866487D01*
X711301Y4863236D01*
X712063Y4859426D01*
X711301Y4855616D01*
X709218Y4852365D01*
X706069Y4850180D01*
X693724Y4844592D01*
X680618Y4836668D01*
X668578Y4827270D01*
X657758Y4816449D01*
X648309Y4804410D01*
X640384Y4791303D01*
X634136Y4777333D01*
X629564Y4762754D01*
X626821Y4747717D01*
X625906Y4732426D01*
X626821Y4717135D01*
X629564Y4702098D01*
X634136Y4687519D01*
X640384Y4673549D01*
X648309Y4660442D01*
X657758Y4648403D01*
X668578Y4637582D01*
X680618Y4628184D01*
X693724Y4620260D01*
X706069Y4614672D01*
X709218Y4612487D01*
X711301Y4609236D01*
X712063Y4605426D01*
X711301Y4601616D01*
X709218Y4598365D01*
X706069Y4596180D01*
X693724Y4590592D01*
X680618Y4582668D01*
X668578Y4573270D01*
X657758Y4562449D01*
X648309Y4550410D01*
X640384Y4537303D01*
X634136Y4523333D01*
X629564Y4508754D01*
X626821Y4493717D01*
X625906Y4478426D01*
X626821Y4463135D01*
X629564Y4448098D01*
X634136Y4433519D01*
X640384Y4419549D01*
X648309Y4406442D01*
X657758Y4394403D01*
X668578Y4383582D01*
X680618Y4374184D01*
X693724Y4366260D01*
X706069Y4360672D01*
X709218Y4358487D01*
X711301Y4355236D01*
X712063Y4351426D01*
X711301Y4347616D01*
X709218Y4344365D01*
X706069Y4342180D01*
X693724Y4336592D01*
X680618Y4328668D01*
X668578Y4319270D01*
X657758Y4308449D01*
X648309Y4296410D01*
X640384Y4283303D01*
X634136Y4269333D01*
X629564Y4254754D01*
X626821Y4239717D01*
X625906Y4224426D01*
X626821Y4209135D01*
X629564Y4194098D01*
X634136Y4179519D01*
X640384Y4165549D01*
X648309Y4152442D01*
X657758Y4140403D01*
X668578Y4129582D01*
X680618Y4120184D01*
X693724Y4112260D01*
X706069Y4106672D01*
X709218Y4104487D01*
X711301Y4101236D01*
X712063Y4097426D01*
X711301Y4093616D01*
X709218Y4090365D01*
X706069Y4088180D01*
X693724Y4082592D01*
X680618Y4074668D01*
X668578Y4065270D01*
X657758Y4054449D01*
X648309Y4042410D01*
X640384Y4029303D01*
X634136Y4015333D01*
X629564Y4000754D01*
X626821Y3985717D01*
X625906Y3970426D01*
X626821Y3955135D01*
X629564Y3940098D01*
X634136Y3925519D01*
X640384Y3911549D01*
X648309Y3898442D01*
X657758Y3886403D01*
X668578Y3875582D01*
X680618Y3866184D01*
X693724Y3858260D01*
X706069Y3852672D01*
X709218Y3850487D01*
X711301Y3847236D01*
X712063Y3843426D01*
X711301Y3839616D01*
X709218Y3836365D01*
X706069Y3834180D01*
X693724Y3828592D01*
X680618Y3820668D01*
X668578Y3811270D01*
X657758Y3800449D01*
X648309Y3788410D01*
X640384Y3775303D01*
X634136Y3761333D01*
X629564Y3746754D01*
X626821Y3731717D01*
X625906Y3716426D01*
X626821Y3701135D01*
X629564Y3686098D01*
X634136Y3671519D01*
X640384Y3657549D01*
X648309Y3644442D01*
X657758Y3632403D01*
X668578Y3621582D01*
X680618Y3612184D01*
X693724Y3604260D01*
X706069Y3598672D01*
X709218Y3596487D01*
X711301Y3593236D01*
X712063Y3589426D01*
X711301Y3585616D01*
X709218Y3582365D01*
X706069Y3580180D01*
X693724Y3574592D01*
X680618Y3566668D01*
X668578Y3557270D01*
X657758Y3546449D01*
X648309Y3534410D01*
X640384Y3521303D01*
X634136Y3507333D01*
X629564Y3492754D01*
X626821Y3477717D01*
X625906Y3462426D01*
X626821Y3447135D01*
X629564Y3432098D01*
X634136Y3417519D01*
X640384Y3403549D01*
X648309Y3390442D01*
X657758Y3378403D01*
X668578Y3367582D01*
X680618Y3358184D01*
X693724Y3350260D01*
X706069Y3344672D01*
X709218Y3342487D01*
X711301Y3339236D01*
X712063Y3335426D01*
X711301Y3331616D01*
X709218Y3328365D01*
X706069Y3326180D01*
X693724Y3320592D01*
X680618Y3312668D01*
X668578Y3303270D01*
X657758Y3292449D01*
X648309Y3280410D01*
X640384Y3267303D01*
X634136Y3253333D01*
X629564Y3238754D01*
X626821Y3223717D01*
X625906Y3208426D01*
X626821Y3193135D01*
X629564Y3178098D01*
X634136Y3163519D01*
X640384Y3149549D01*
X648309Y3136442D01*
X657758Y3124403D01*
X668578Y3113582D01*
X680618Y3104184D01*
X693724Y3096260D01*
X706069Y3090672D01*
X709218Y3088487D01*
X711301Y3085236D01*
X712063Y3081426D01*
X711301Y3077616D01*
X709218Y3074365D01*
X706069Y3072180D01*
X693724Y3066592D01*
X680618Y3058668D01*
X668578Y3049270D01*
X657758Y3038449D01*
X648309Y3026410D01*
X640384Y3013303D01*
X634136Y2999333D01*
X629564Y2984754D01*
X626821Y2969717D01*
X625906Y2954426D01*
X626821Y2939135D01*
X629564Y2924098D01*
X634136Y2909519D01*
X640384Y2895549D01*
X648309Y2882442D01*
X657758Y2870403D01*
X668578Y2859582D01*
X680618Y2850184D01*
X693724Y2842260D01*
X706069Y2836672D01*
X709218Y2834487D01*
X711301Y2831236D01*
X712063Y2827426D01*
X711301Y2823616D01*
X709218Y2820365D01*
X706069Y2818180D01*
X693724Y2812592D01*
X680618Y2804668D01*
X668578Y2795270D01*
X657758Y2784449D01*
X648309Y2772410D01*
X640384Y2759303D01*
X634136Y2745333D01*
X629564Y2730754D01*
X626821Y2715666D01*
X625094Y2711602D01*
X621842Y2708656D01*
G37*

%LPC*%
G36*
X369519Y4917846D02*
G01*
X444500Y4917846D01*
X443534Y4920691D01*
X436930Y4934508D01*
X428751Y4947462D01*
X419100Y4959350D01*
X408127Y4970018D01*
X395986Y4979314D01*
X382778Y4987086D01*
X376834Y4989728D01*
X373684Y4991862D01*
X371551Y4995011D01*
X370738Y4998720D01*
X371348Y5002479D01*
X373278Y5005730D01*
X376275Y5008067D01*
X389483Y5014874D01*
X402183Y5023408D01*
X413766Y5033416D01*
X424129Y5044694D01*
X433070Y5057140D01*
X440435Y5070551D01*
X444449Y5080406D01*
X369519Y5080406D01*
G37*

%LPD*%
G36*
X3189224Y1501241D02*
G01*
X3185109Y1501749D01*
X3181553Y1503883D01*
X3179114Y1507286D01*
X3178251Y1511350D01*
X3178251Y1603502D01*
X3179114Y1607566D01*
X3181553Y1610969D01*
X3185109Y1613103D01*
X3189224Y1613611D01*
X3193237Y1612442D01*
X3196437Y1609750D01*
X3203752Y1600403D01*
X3214573Y1589582D01*
X3226612Y1580184D01*
X3239719Y1572260D01*
X3252063Y1566672D01*
X3255213Y1564487D01*
X3257296Y1561236D01*
X3258058Y1557426D01*
X3257296Y1553616D01*
X3255213Y1550365D01*
X3252063Y1548180D01*
X3239719Y1542592D01*
X3226612Y1534668D01*
X3214573Y1525270D01*
X3203752Y1514449D01*
X3196437Y1505102D01*
X3193237Y1502410D01*
G37*

%LPD*%
G36*
X3189224Y1247241D02*
G01*
X3185109Y1247749D01*
X3181553Y1249883D01*
X3179114Y1253286D01*
X3178251Y1257350D01*
X3178251Y1349502D01*
X3179114Y1353566D01*
X3181553Y1356969D01*
X3185109Y1359103D01*
X3189224Y1359611D01*
X3193237Y1358442D01*
X3196437Y1355750D01*
X3203752Y1346403D01*
X3214573Y1335582D01*
X3226612Y1326184D01*
X3239719Y1318260D01*
X3252063Y1312672D01*
X3255213Y1310487D01*
X3257296Y1307236D01*
X3258058Y1303426D01*
X3257296Y1299616D01*
X3255213Y1296365D01*
X3252063Y1294180D01*
X3239719Y1288592D01*
X3226612Y1280668D01*
X3214573Y1271270D01*
X3203752Y1260449D01*
X3196437Y1251102D01*
X3193237Y1248410D01*
G37*

%LPD*%
G36*
X3189224Y993241D02*
G01*
X3185109Y993749D01*
X3181553Y995883D01*
X3179114Y999286D01*
X3178251Y1003350D01*
X3178251Y1095502D01*
X3179114Y1099566D01*
X3181553Y1102969D01*
X3185109Y1105103D01*
X3189224Y1105611D01*
X3193237Y1104442D01*
X3196437Y1101750D01*
X3203752Y1092403D01*
X3214573Y1081582D01*
X3226612Y1072184D01*
X3239719Y1064260D01*
X3252063Y1058672D01*
X3255213Y1056487D01*
X3257296Y1053236D01*
X3258058Y1049426D01*
X3257296Y1045616D01*
X3255213Y1042365D01*
X3252063Y1040180D01*
X3239719Y1034592D01*
X3226612Y1026668D01*
X3214573Y1017269D01*
X3203752Y1006449D01*
X3196437Y997102D01*
X3193237Y994410D01*
G37*

%LPD*%
D10*
X3632200Y7937500D02*
G01*
X2895600Y7937500D01*
X2641600Y8191500D01*
X2641600Y9194800D01*
D11*
X3822700Y8712200D02*
G01*
X3816350Y8705850D01*
X3816350Y8483092D01*
X3822700Y8712200D02*
G01*
X3822700Y8864600D01*
X3016250Y9283064D02*
G01*
X3009900Y9276714D01*
X3009900Y9042400D01*
X3009900Y9042400D02*
G01*
X3009900Y8864600D01*
X3009900Y8712200D02*
G01*
X3016250Y8705850D01*
X3016250Y8483092D01*
X3009900Y8712200D02*
G01*
X3009900Y8864600D01*
X3822700Y8864600D02*
G01*
X3822700Y9042400D01*
X3822700Y9042400D02*
G01*
X3822700Y9276714D01*
X3816350Y9283064D01*
D10*
X3298570Y2954426D02*
G01*
X2716555Y3536442D01*
X2716555Y4511370D01*
D12*
X3006191Y6164579D02*
G01*
X3530015Y5640755D01*
X3710228Y5640755D01*
X3843654Y5507329D01*
X3843654Y5248046D01*
X3709034Y5113426D01*
X3663873Y5113426D01*
X2931363Y7560513D02*
G01*
X2931363Y6239408D01*
X3006191Y6164579D01*
X3006191Y6164579D02*
G01*
X2495245Y5653633D01*
X2495245Y3806520D01*
X752576Y5494426D02*
G01*
X752576Y7561148D01*
D10*
X1188262Y4403572D02*
G01*
X1188262Y3219653D01*
X3657600Y3124200D02*
G01*
X3657600Y1036446D01*
X3381247Y760095D01*
X3229406Y760095D01*
X3092754Y896746D01*
X3092754Y1712874D01*
X3298570Y3462426D02*
G01*
X3117773Y3643223D01*
X3117773Y4774412D01*
D11*
X752576Y922426D02*
G01*
X812520Y922426D01*
X1468602Y1578508D01*
X1468602Y7096277D01*
X823264Y7741615D01*
X683260Y7741615D01*
X534136Y7592491D01*
X330200Y6540500D02*
G01*
X534009Y6540500D01*
X534009Y6540500D02*
G01*
X534136Y6540627D01*
X534136Y7592491D01*
D10*
X3298570Y5240426D02*
G01*
X2796209Y5742787D01*
X2796209Y5758687D01*
X752576Y2446426D02*
G01*
X159156Y3039846D01*
X159156Y6661581D01*
X292074Y6794500D01*
X330200Y6794500D01*
X3663873Y5367426D02*
G01*
X3498189Y5201742D01*
X3498189Y4170045D01*
X3298570Y3970426D01*
X323773Y4872126D02*
G01*
X323773Y5126126D01*
X454405Y5908294D02*
G01*
X454405Y5648223D01*
X454405Y5648223D02*
G01*
X502234Y5600395D01*
X502234Y5304586D01*
X323773Y5126126D01*
X752576Y3462426D02*
G01*
X752576Y3485311D01*
X948537Y3681272D01*
X948537Y5557138D01*
X3298570Y1684426D02*
G01*
X2169109Y2813888D01*
X2169109Y5774791D01*
X1012342Y3572255D02*
G01*
X1012342Y3225622D01*
X1138478Y3099485D01*
X1238046Y3099485D01*
X1308430Y3169869D01*
X1308430Y5663006D01*
X1012342Y5959094D01*
G36*
X279400Y6083300D02*
G01*
X629412Y6083300D01*
X629412Y5733287D01*
X279400Y5733287D01*
G37*
G36*
X3457193Y8112505D02*
G01*
X3807205Y8112505D01*
X3807205Y7762493D01*
X3457193Y7762493D01*
G37*
D13*
G01*
X3404870Y8869324D03*
G01*
X3016250Y8483092D03*
G01*
X3816350Y9283064D03*
G01*
X3816350Y8483092D03*
G01*
X3016250Y9283064D03*
D14*
G01*
X3657600Y3378200D03*
D15*
G01*
X3657600Y3124200D03*
D16*
G01*
X330200Y6540500D03*
D18*
G01*
X330200Y6794500D03*
G01*
X330200Y7048500D03*
G01*
X330200Y7302500D03*
D16*
G01*
X3663873Y5367426D03*
D18*
G01*
X3663873Y5113426D03*
G01*
X3663873Y4859426D03*
G01*
X3663873Y4605426D03*
G01*
X323773Y5380126D03*
G01*
X323773Y5126126D03*
G01*
X323773Y4872126D03*
G01*
X323773Y4618126D03*
G01*
X323773Y4364126D03*
D16*
G01*
X323773Y4110126D03*
D19*
G01*
X752576Y5494426D03*
G01*
X752576Y5240426D03*
G01*
X752576Y4986426D03*
G01*
X752576Y4732426D03*
G01*
X752576Y4478426D03*
G01*
X752576Y4224426D03*
G01*
X752576Y3970426D03*
G01*
X752576Y3716426D03*
G01*
X752576Y3462426D03*
G01*
X752576Y3208426D03*
G01*
X752576Y2954426D03*
G01*
X752576Y2700426D03*
G01*
X752576Y2446426D03*
G01*
X752576Y2192426D03*
G01*
X752576Y1938426D03*
G01*
X752576Y1684426D03*
G01*
X752576Y1430426D03*
G01*
X752576Y1176426D03*
G01*
X752576Y922426D03*
G01*
X3298570Y922426D03*
G01*
X3298570Y1176426D03*
G01*
X3298570Y1430426D03*
G01*
X3298570Y1684426D03*
G01*
X3298570Y1938426D03*
G01*
X3298570Y2192426D03*
G01*
X3298570Y2446426D03*
G01*
X3298570Y2700426D03*
G01*
X3298570Y2954426D03*
G01*
X3298570Y3208426D03*
G01*
X3298570Y3462426D03*
G01*
X3298570Y3716426D03*
G01*
X3298570Y3970426D03*
G01*
X3298570Y4224426D03*
G01*
X3298570Y4478426D03*
G01*
X3298570Y4732426D03*
G01*
X3298570Y4986426D03*
G01*
X3298570Y5240426D03*
G01*
X3298570Y5494426D03*
D20*
G01*
X3009900Y9042400D03*
G01*
X3009900Y8864600D03*
G01*
X3009900Y8712200D03*
G01*
X3822700Y8712200D03*
G01*
X3822700Y8864600D03*
G01*
X3822700Y9042400D03*
G01*
X3568700Y9283700D03*
G01*
X3416300Y9283700D03*
G01*
X3238500Y9283700D03*
D21*
G01*
X2716555Y4511370D03*
D12*
G01*
X2495245Y3806520D03*
G01*
X2931363Y7560513D03*
G01*
X752576Y7561148D03*
D21*
G01*
X1188262Y3219653D03*
G01*
X1188262Y4403572D03*
G01*
X3092754Y1712874D03*
G01*
X3117773Y4774412D03*
D22*
G01*
X534136Y7592491D03*
D21*
G01*
X2796209Y5758687D03*
G01*
X2641600Y9194800D03*
G01*
X948537Y5557138D03*
G01*
X2169109Y5774791D03*
G01*
X1012342Y3572255D03*
G01*
X1012342Y5959094D03*
M02*
