G04 Layer: TopSilkscreenLayer*
G04 Panelize: , Column: 2, Row: 1, Board Size: 40.01mm x 93.13mm, Panelized Board Size: 90.01mm x 93.13mm*
G04 EasyEDA v6.5.51, 2025-12-10 18:06:53*
G04 0555fe365c4c4ce19a54b4cc8b748554,f920225d1fc94cab822a7ee7b834fcf3,10*
G04 Gerber Generator version 0.2*
G04 Scale: 100 percent, Rotated: No, Reflected: No *
G04 Dimensions in millimeters *
G04 leading zeros omitted , absolute positions ,4 integer and 5 decimal *
%FSLAX45Y45*%
%MOMM*%

%ADD10C,0.1524*%
%ADD11C,0.2032*%
%ADD12C,0.2030*%
%ADD13C,0.2540*%
%ADD14C,0.0159*%

%LPD*%
G36*
X275590Y3908551D02*
G01*
X275590Y3867658D01*
X282956Y3867658D01*
X285750Y3885946D01*
X360172Y3860037D01*
X284988Y3831844D01*
X282956Y3851148D01*
X275590Y3851148D01*
X275590Y3797808D01*
X282956Y3797808D01*
X284734Y3810508D01*
X382524Y3850640D01*
X382524Y3859784D01*
X285750Y3896106D01*
X282956Y3908551D01*
G37*
G36*
X335026Y3788664D02*
G01*
X327863Y3788257D01*
X321259Y3787089D01*
X315163Y3785158D01*
X309676Y3782517D01*
X304800Y3779215D01*
X300532Y3775252D01*
X296824Y3770731D01*
X293827Y3765600D01*
X291388Y3759962D01*
X289712Y3753815D01*
X288645Y3747211D01*
X288290Y3740150D01*
X288493Y3734206D01*
X289102Y3728567D01*
X290118Y3723030D01*
X291592Y3717544D01*
X249428Y3720592D01*
X249428Y3784600D01*
X232156Y3784600D01*
X232156Y3711956D01*
X301498Y3707384D01*
X303276Y3712972D01*
X301955Y3718356D01*
X300990Y3723741D01*
X300431Y3729075D01*
X300228Y3734308D01*
X300482Y3739489D01*
X301294Y3744315D01*
X302666Y3748786D01*
X304495Y3752900D01*
X306882Y3756558D01*
X309778Y3759860D01*
X313131Y3762654D01*
X316941Y3764991D01*
X321208Y3766870D01*
X325983Y3768242D01*
X331165Y3769055D01*
X336804Y3769360D01*
X342493Y3769106D01*
X347776Y3768344D01*
X352704Y3767124D01*
X357174Y3765397D01*
X361289Y3763213D01*
X364845Y3760571D01*
X367995Y3757472D01*
X370586Y3753916D01*
X372668Y3749954D01*
X374192Y3745585D01*
X375107Y3740759D01*
X375412Y3735578D01*
X375259Y3732022D01*
X374243Y3725062D01*
X373380Y3721608D01*
X353110Y3715765D01*
X348843Y3713378D01*
X346608Y3710178D01*
X345948Y3705860D01*
X346405Y3702456D01*
X347675Y3699459D01*
X349910Y3697020D01*
X353060Y3695192D01*
X360222Y3697376D01*
X366420Y3700475D01*
X371703Y3704437D01*
X376021Y3709263D01*
X379425Y3714953D01*
X381863Y3721455D01*
X383286Y3728770D01*
X383794Y3736848D01*
X383590Y3742639D01*
X382879Y3748125D01*
X381812Y3753307D01*
X380288Y3758234D01*
X378358Y3762806D01*
X376072Y3767074D01*
X373380Y3770985D01*
X370382Y3774592D01*
X366979Y3777742D01*
X363270Y3780586D01*
X359257Y3782974D01*
X354990Y3785006D01*
X350367Y3786581D01*
X345490Y3787749D01*
X340410Y3788410D01*
G37*
G36*
X302260Y3680206D02*
G01*
X302260Y3633724D01*
X252729Y3633724D01*
X252729Y3622040D01*
X302260Y3622040D01*
X302260Y3575304D01*
X312928Y3575304D01*
X312928Y3622040D01*
X363220Y3622040D01*
X363220Y3633724D01*
X312928Y3633724D01*
X312928Y3680206D01*
G37*
G36*
X3292856Y9179560D02*
G01*
X3261733Y9087866D01*
X3271012Y9087866D01*
X3293618Y9156954D01*
X3316732Y9087866D01*
X3261733Y9087866D01*
X3245612Y9040368D01*
X3227324Y9037320D01*
X3227324Y9029700D01*
X3277108Y9029700D01*
X3277108Y9037320D01*
X3255264Y9040368D01*
X3267964Y9078976D01*
X3319779Y9078976D01*
X3332734Y9040114D01*
X3310636Y9037320D01*
X3310636Y9029700D01*
X3371342Y9029700D01*
X3371342Y9037320D01*
X3353815Y9039352D01*
X3305810Y9179560D01*
G37*
G36*
X3535426Y9165844D02*
G01*
X3529584Y9135872D01*
X3509772Y9133332D01*
X3509772Y9125458D01*
X3528568Y9125458D01*
X3528314Y9052814D01*
X3528720Y9046616D01*
X3529990Y9041282D01*
X3532124Y9036812D01*
X3534968Y9033205D01*
X3538575Y9030411D01*
X3542893Y9028480D01*
X3547821Y9027312D01*
X3553460Y9026906D01*
X3561537Y9027718D01*
X3568598Y9029954D01*
X3574542Y9033560D01*
X3579368Y9038336D01*
X3574796Y9043416D01*
X3570681Y9040622D01*
X3566972Y9038640D01*
X3563365Y9037472D01*
X3559556Y9037066D01*
X3554222Y9037980D01*
X3550259Y9040926D01*
X3547719Y9046057D01*
X3546856Y9053576D01*
X3546856Y9125458D01*
X3576828Y9125458D01*
X3576828Y9135110D01*
X3547110Y9135110D01*
X3548379Y9165844D01*
G37*
G36*
X3456940Y9138158D02*
G01*
X3451758Y9137802D01*
X3446526Y9136735D01*
X3441293Y9135008D01*
X3436112Y9132620D01*
X3431082Y9129674D01*
X3426155Y9126169D01*
X3421481Y9122105D01*
X3417062Y9117584D01*
X3415284Y9135872D01*
X3412236Y9137904D01*
X3380740Y9125712D01*
X3380740Y9119108D01*
X3398520Y9117330D01*
X3398926Y9104071D01*
X3398926Y9048292D01*
X3398774Y9039098D01*
X3382264Y9036558D01*
X3382264Y9029700D01*
X3433572Y9029700D01*
X3433572Y9036558D01*
X3418078Y9039098D01*
X3417570Y9076436D01*
X3417570Y9109456D01*
X3425951Y9116161D01*
X3433724Y9120733D01*
X3441293Y9123375D01*
X3448812Y9124188D01*
X3453282Y9123832D01*
X3457143Y9122816D01*
X3460292Y9120987D01*
X3462782Y9118244D01*
X3464712Y9114586D01*
X3466033Y9109964D01*
X3466846Y9104172D01*
X3467100Y9097264D01*
X3466846Y9039098D01*
X3450336Y9036558D01*
X3450336Y9029700D01*
X3501644Y9029700D01*
X3501644Y9036558D01*
X3485896Y9039098D01*
X3485387Y9076436D01*
X3485387Y9097772D01*
X3484930Y9107728D01*
X3483610Y9116212D01*
X3481374Y9123172D01*
X3478276Y9128709D01*
X3474313Y9132925D01*
X3469386Y9135872D01*
X3463594Y9137599D01*
G37*
D10*
X3728389Y4389526D02*
G01*
X3619423Y4389526D01*
X3728389Y4389526D02*
G01*
X3728389Y4353204D01*
X3723309Y4337456D01*
X3712895Y4327296D01*
X3702481Y4321962D01*
X3686733Y4316882D01*
X3660825Y4316882D01*
X3645331Y4321962D01*
X3634917Y4327296D01*
X3624503Y4337456D01*
X3619423Y4353204D01*
X3619423Y4389526D01*
X3728389Y4282592D02*
G01*
X3723309Y4277258D01*
X3728389Y4272178D01*
X3733723Y4277258D01*
X3728389Y4282592D01*
X3692067Y4277258D02*
G01*
X3619423Y4277258D01*
X3676573Y4180738D02*
G01*
X3686733Y4185818D01*
X3692067Y4201566D01*
X3692067Y4217060D01*
X3686733Y4232554D01*
X3676573Y4237888D01*
X3666159Y4232554D01*
X3660825Y4222140D01*
X3655745Y4196232D01*
X3650411Y4185818D01*
X3639997Y4180738D01*
X3634917Y4180738D01*
X3624503Y4185818D01*
X3619423Y4201566D01*
X3619423Y4217060D01*
X3624503Y4232554D01*
X3634917Y4237888D01*
X3692067Y4146448D02*
G01*
X3582847Y4146448D01*
X3676573Y4146448D02*
G01*
X3686733Y4136034D01*
X3692067Y4125620D01*
X3692067Y4110126D01*
X3686733Y4099712D01*
X3676573Y4089298D01*
X3660825Y4083964D01*
X3650411Y4083964D01*
X3634917Y4089298D01*
X3624503Y4099712D01*
X3619423Y4110126D01*
X3619423Y4125620D01*
X3624503Y4136034D01*
X3634917Y4146448D01*
X3666159Y4049674D02*
G01*
X3666159Y3956202D01*
X3712895Y3875176D02*
G01*
X3619423Y3875176D01*
X3666159Y3921912D02*
G01*
X3666159Y3828440D01*
X533400Y7317486D02*
G01*
X626871Y7317486D01*
X739139Y7353808D02*
G01*
X734060Y7364221D01*
X723645Y7374636D01*
X713231Y7379715D01*
X692404Y7379715D01*
X681989Y7374636D01*
X671576Y7364221D01*
X666495Y7353808D01*
X661162Y7338060D01*
X661162Y7312152D01*
X666495Y7296658D01*
X671576Y7286244D01*
X681989Y7275829D01*
X692404Y7270750D01*
X713231Y7270750D01*
X723645Y7275829D01*
X734060Y7286244D01*
X739139Y7296658D01*
X739139Y7312152D01*
X713231Y7312152D02*
G01*
X739139Y7312152D01*
X773429Y7379715D02*
G01*
X773429Y7270750D01*
X773429Y7379715D02*
G01*
X820165Y7379715D01*
X835660Y7374636D01*
X840994Y7369302D01*
X846073Y7358887D01*
X846073Y7343394D01*
X840994Y7332979D01*
X835660Y7327900D01*
X820165Y7322565D01*
X773429Y7322565D01*
X953262Y7364221D02*
G01*
X942847Y7374636D01*
X927100Y7379715D01*
X906526Y7379715D01*
X890778Y7374636D01*
X880363Y7364221D01*
X880363Y7353808D01*
X885697Y7343394D01*
X890778Y7338060D01*
X901192Y7332979D01*
X932434Y7322565D01*
X942847Y7317486D01*
X947928Y7312152D01*
X953262Y7301737D01*
X953262Y7286244D01*
X942847Y7275829D01*
X927100Y7270750D01*
X906526Y7270750D01*
X890778Y7275829D01*
X880363Y7286244D01*
X580136Y6602221D02*
G01*
X580136Y6508750D01*
X533400Y6555486D02*
G01*
X626871Y6555486D01*
X739139Y6591808D02*
G01*
X734060Y6602221D01*
X723645Y6612636D01*
X713231Y6617715D01*
X692404Y6617715D01*
X681989Y6612636D01*
X671576Y6602221D01*
X666495Y6591808D01*
X661162Y6576060D01*
X661162Y6550152D01*
X666495Y6534657D01*
X671576Y6524244D01*
X681989Y6513829D01*
X692404Y6508750D01*
X713231Y6508750D01*
X723645Y6513829D01*
X734060Y6524244D01*
X739139Y6534657D01*
X739139Y6550152D01*
X713231Y6550152D02*
G01*
X739139Y6550152D01*
X773429Y6617715D02*
G01*
X773429Y6508750D01*
X773429Y6617715D02*
G01*
X820165Y6617715D01*
X835660Y6612636D01*
X840994Y6607302D01*
X846073Y6596887D01*
X846073Y6581394D01*
X840994Y6570979D01*
X835660Y6565900D01*
X820165Y6560565D01*
X773429Y6560565D01*
X953262Y6602221D02*
G01*
X942847Y6612636D01*
X927100Y6617715D01*
X906526Y6617715D01*
X890778Y6612636D01*
X880363Y6602221D01*
X880363Y6591808D01*
X885697Y6581394D01*
X890778Y6576060D01*
X901192Y6570979D01*
X932434Y6560565D01*
X942847Y6555486D01*
X947928Y6550152D01*
X953262Y6539737D01*
X953262Y6524244D01*
X942847Y6513829D01*
X927100Y6508750D01*
X906526Y6508750D01*
X890778Y6513829D01*
X880363Y6524244D01*
X533400Y6838187D02*
G01*
X543813Y6843521D01*
X559307Y6859015D01*
X559307Y6750050D01*
X656081Y6859015D02*
G01*
X604012Y6859015D01*
X598931Y6812279D01*
X604012Y6817360D01*
X619760Y6822694D01*
X635254Y6822694D01*
X650747Y6817360D01*
X661162Y6807200D01*
X666495Y6791452D01*
X666495Y6781037D01*
X661162Y6765544D01*
X650747Y6755129D01*
X635254Y6750050D01*
X619760Y6750050D01*
X604012Y6755129D01*
X598931Y6760210D01*
X593597Y6770623D01*
X700786Y6796786D02*
G01*
X794257Y6796786D01*
X828547Y6822694D02*
G01*
X828547Y6750050D01*
X828547Y6791452D02*
G01*
X833628Y6807200D01*
X844042Y6817360D01*
X854455Y6822694D01*
X869950Y6822694D01*
X904239Y6822694D02*
G01*
X961389Y6750050D01*
X961389Y6822694D02*
G01*
X904239Y6750050D01*
X533400Y7104887D02*
G01*
X543813Y7110221D01*
X559307Y7125715D01*
X559307Y7016750D01*
X598931Y7099808D02*
G01*
X598931Y7104887D01*
X604012Y7115302D01*
X609345Y7120636D01*
X619760Y7125715D01*
X640334Y7125715D01*
X650747Y7120636D01*
X656081Y7115302D01*
X661162Y7104887D01*
X661162Y7094473D01*
X656081Y7084060D01*
X645668Y7068565D01*
X593597Y7016750D01*
X666495Y7016750D01*
X700786Y7063486D02*
G01*
X794257Y7063486D01*
X844042Y7125715D02*
G01*
X844042Y7037323D01*
X849376Y7021829D01*
X859789Y7016750D01*
X869950Y7016750D01*
X828547Y7089394D02*
G01*
X864870Y7089394D01*
X904239Y7089394D02*
G01*
X961389Y7016750D01*
X961389Y7089394D02*
G01*
X904239Y7016750D01*
X1866392Y6542278D02*
G01*
X1855978Y6536944D01*
X1845563Y6526529D01*
X1840484Y6516370D01*
X1840484Y6495542D01*
X1845563Y6485128D01*
X1855978Y6474713D01*
X1866392Y6469379D01*
X1882139Y6464300D01*
X1908047Y6464300D01*
X1923542Y6469379D01*
X1933956Y6474713D01*
X1944370Y6485128D01*
X1949450Y6495542D01*
X1949450Y6516370D01*
X1944370Y6526529D01*
X1933956Y6536944D01*
X1923542Y6542278D01*
X1908047Y6542278D01*
X1908047Y6516370D02*
G01*
X1908047Y6542278D01*
X1840484Y6576568D02*
G01*
X1892300Y6617970D01*
X1949450Y6617970D01*
X1840484Y6659626D02*
G01*
X1892300Y6617970D01*
X1902713Y6693915D02*
G01*
X1902713Y6787387D01*
X1840484Y6821678D02*
G01*
X1949450Y6821678D01*
X1840484Y6821678D02*
G01*
X1949450Y6894576D01*
X1840484Y6894576D02*
G01*
X1949450Y6894576D01*
X1840484Y6928865D02*
G01*
X1949450Y6928865D01*
X1840484Y6928865D02*
G01*
X1840484Y6996429D01*
X1892300Y6928865D02*
G01*
X1892300Y6970268D01*
X1949450Y6928865D02*
G01*
X1949450Y6996429D01*
X1840484Y7061708D02*
G01*
X1845563Y7051294D01*
X1855978Y7040879D01*
X1866392Y7035800D01*
X1882139Y7030720D01*
X1908047Y7030720D01*
X1923542Y7035800D01*
X1933956Y7040879D01*
X1944370Y7051294D01*
X1949450Y7061708D01*
X1949450Y7082536D01*
X1944370Y7092950D01*
X1933956Y7103363D01*
X1923542Y7108444D01*
X1908047Y7113778D01*
X1882139Y7113778D01*
X1866392Y7108444D01*
X1855978Y7103363D01*
X1845563Y7092950D01*
X1840484Y7082536D01*
X1840484Y7061708D01*
X1902713Y7148068D02*
G01*
X1902713Y7241539D01*
X1855978Y7338060D02*
G01*
X1845563Y7332979D01*
X1840484Y7317486D01*
X1840484Y7307071D01*
X1845563Y7291323D01*
X1861312Y7280910D01*
X1887220Y7275829D01*
X1913128Y7275829D01*
X1933956Y7280910D01*
X1944370Y7291323D01*
X1949450Y7307071D01*
X1949450Y7312152D01*
X1944370Y7327900D01*
X1933956Y7338060D01*
X1918462Y7343394D01*
X1913128Y7343394D01*
X1897634Y7338060D01*
X1887220Y7327900D01*
X1882139Y7312152D01*
X1882139Y7307071D01*
X1887220Y7291323D01*
X1897634Y7280910D01*
X1913128Y7275829D01*
X1840484Y7377684D02*
G01*
X1949450Y7377684D01*
X1840484Y7377684D02*
G01*
X1949450Y7419339D01*
X1840484Y7460742D02*
G01*
X1949450Y7419339D01*
X1840484Y7460742D02*
G01*
X1949450Y7460742D01*
X1876805Y7495031D02*
G01*
X1949450Y7526273D01*
X1876805Y7557515D02*
G01*
X1949450Y7526273D01*
X1866392Y7596886D02*
G01*
X1861312Y7596886D01*
X1850897Y7602220D01*
X1845563Y7607300D01*
X1840484Y7617713D01*
X1840484Y7638542D01*
X1845563Y7648955D01*
X1850897Y7654036D01*
X1861312Y7659370D01*
X1871726Y7659370D01*
X1882139Y7654036D01*
X1897634Y7643621D01*
X1949450Y7591805D01*
X1949450Y7664450D01*
X1535684Y6934200D02*
G01*
X1613662Y6934200D01*
X1629155Y6939279D01*
X1639570Y6949694D01*
X1644650Y6965442D01*
X1644650Y6975855D01*
X1639570Y6991350D01*
X1629155Y7001763D01*
X1613662Y7006844D01*
X1535684Y7006844D01*
X1535684Y7051547D02*
G01*
X1535684Y7108697D01*
X1577339Y7077710D01*
X1577339Y7093204D01*
X1582420Y7103618D01*
X1587500Y7108697D01*
X1603247Y7114031D01*
X1613662Y7114031D01*
X1629155Y7108697D01*
X1639570Y7098284D01*
X1644650Y7082789D01*
X1644650Y7067295D01*
X1639570Y7051547D01*
X1634489Y7046468D01*
X1624076Y7041134D01*
X3693922Y2873755D02*
G01*
X3704336Y2884170D01*
X3709415Y2899663D01*
X3709415Y2920492D01*
X3704336Y2935986D01*
X3693922Y2946400D01*
X3683508Y2946400D01*
X3673093Y2941320D01*
X3667759Y2935986D01*
X3662679Y2925571D01*
X3652265Y2894329D01*
X3647186Y2884170D01*
X3641852Y2878836D01*
X3631438Y2873755D01*
X3615943Y2873755D01*
X3605529Y2884170D01*
X3600450Y2899663D01*
X3600450Y2920492D01*
X3605529Y2935986D01*
X3615943Y2946400D01*
X3709415Y2839465D02*
G01*
X3600450Y2813304D01*
X3709415Y2787395D02*
G01*
X3600450Y2813304D01*
X3709415Y2787395D02*
G01*
X3600450Y2761487D01*
X3709415Y2735579D02*
G01*
X3600450Y2761487D01*
X1892300Y5335015D02*
G01*
X1892300Y5257037D01*
X1897379Y5241544D01*
X1907794Y5231129D01*
X1923542Y5226050D01*
X1933956Y5226050D01*
X1949450Y5231129D01*
X1959863Y5241544D01*
X1964943Y5257037D01*
X1964943Y5335015D01*
X2004568Y5309107D02*
G01*
X2004568Y5314187D01*
X2009647Y5324602D01*
X2014981Y5329936D01*
X2025395Y5335015D01*
X2045970Y5335015D01*
X2056384Y5329936D01*
X2061718Y5324602D01*
X2066797Y5314187D01*
X2066797Y5303773D01*
X2061718Y5293360D01*
X2051304Y5277865D01*
X1999234Y5226050D01*
X2072131Y5226050D01*
D11*
X1119301Y3365144D02*
G01*
X1119301Y3222142D01*
X1119301Y3365144D02*
G01*
X1207693Y3365144D01*
X1119301Y3297072D02*
G01*
X1173657Y3297072D01*
X1119301Y3222142D02*
G01*
X1207693Y3222142D01*
X1348155Y3344824D02*
G01*
X1334693Y3358286D01*
X1314119Y3365144D01*
X1286941Y3365144D01*
X1266367Y3358286D01*
X1252905Y3344824D01*
X1252905Y3331108D01*
X1259509Y3317392D01*
X1266367Y3310788D01*
X1280083Y3303930D01*
X1320977Y3290214D01*
X1334693Y3283356D01*
X1341551Y3276498D01*
X1348155Y3263036D01*
X1348155Y3242462D01*
X1334693Y3228746D01*
X1314119Y3222142D01*
X1286941Y3222142D01*
X1266367Y3228746D01*
X1252905Y3242462D01*
X1393367Y3365144D02*
G01*
X1393367Y3222142D01*
X1393367Y3365144D02*
G01*
X1454581Y3365144D01*
X1475155Y3358286D01*
X1482013Y3351682D01*
X1488617Y3337966D01*
X1488617Y3317392D01*
X1482013Y3303930D01*
X1475155Y3297072D01*
X1454581Y3290214D01*
X1393367Y3290214D01*
X1547291Y3365144D02*
G01*
X1622475Y3365144D01*
X1581327Y3310788D01*
X1601901Y3310788D01*
X1615617Y3303930D01*
X1622475Y3297072D01*
X1629079Y3276498D01*
X1629079Y3263036D01*
X1622475Y3242462D01*
X1608759Y3228746D01*
X1588185Y3222142D01*
X1567865Y3222142D01*
X1547291Y3228746D01*
X1540433Y3235604D01*
X1533829Y3249320D01*
X1680895Y3331108D02*
G01*
X1680895Y3337966D01*
X1687753Y3351682D01*
X1694611Y3358286D01*
X1708327Y3365144D01*
X1735505Y3365144D01*
X1749221Y3358286D01*
X1756079Y3351682D01*
X1762683Y3337966D01*
X1762683Y3324250D01*
X1756079Y3310788D01*
X1742363Y3290214D01*
X1674291Y3222142D01*
X1769541Y3222142D01*
X1919655Y3365144D02*
G01*
X1919655Y3222142D01*
X1919655Y3365144D02*
G01*
X1967407Y3365144D01*
X1987727Y3358286D01*
X2001443Y3344824D01*
X2008301Y3331108D01*
X2015159Y3310788D01*
X2015159Y3276498D01*
X2008301Y3256178D01*
X2001443Y3242462D01*
X1987727Y3228746D01*
X1967407Y3222142D01*
X1919655Y3222142D01*
X2060117Y3276498D02*
G01*
X2141905Y3276498D01*
X2141905Y3290214D01*
X2135047Y3303930D01*
X2128189Y3310788D01*
X2114727Y3317392D01*
X2094153Y3317392D01*
X2080437Y3310788D01*
X2066975Y3297072D01*
X2060117Y3276498D01*
X2060117Y3263036D01*
X2066975Y3242462D01*
X2080437Y3228746D01*
X2094153Y3222142D01*
X2114727Y3222142D01*
X2128189Y3228746D01*
X2141905Y3242462D01*
X2186863Y3317392D02*
G01*
X2227757Y3222142D01*
X2268651Y3317392D02*
G01*
X2227757Y3222142D01*
X2313609Y3365144D02*
G01*
X2313609Y3222142D01*
X2409113Y3365144D02*
G01*
X2313609Y3269894D01*
X2347899Y3303930D02*
G01*
X2409113Y3222142D01*
X2454071Y3365144D02*
G01*
X2460929Y3358286D01*
X2467787Y3365144D01*
X2460929Y3372002D01*
X2454071Y3365144D01*
X2460929Y3317392D02*
G01*
X2460929Y3222142D01*
X2533319Y3365144D02*
G01*
X2533319Y3249320D01*
X2540177Y3228746D01*
X2553639Y3222142D01*
X2567355Y3222142D01*
X2512745Y3317392D02*
G01*
X2560497Y3317392D01*
X2717469Y3365144D02*
G01*
X2771825Y3222142D01*
X2826435Y3365144D02*
G01*
X2771825Y3222142D01*
X2939719Y3365144D02*
G01*
X2871393Y3269894D01*
X2973755Y3269894D01*
X2939719Y3365144D02*
G01*
X2939719Y3222142D01*
X2555976Y1518310D02*
G01*
X2555976Y1375054D01*
X2555976Y1518310D02*
G01*
X2617444Y1518310D01*
X2637764Y1511452D01*
X2644622Y1504594D01*
X2651480Y1491132D01*
X2651480Y1477416D01*
X2644622Y1463700D01*
X2637764Y1456842D01*
X2617444Y1449984D01*
X2555976Y1449984D02*
G01*
X2617444Y1449984D01*
X2637764Y1443380D01*
X2644622Y1436522D01*
X2651480Y1422806D01*
X2651480Y1402486D01*
X2644622Y1388770D01*
X2637764Y1381912D01*
X2617444Y1375054D01*
X2555976Y1375054D01*
X2737332Y1518310D02*
G01*
X2723616Y1511452D01*
X2710154Y1497736D01*
X2703296Y1484274D01*
X2696438Y1463700D01*
X2696438Y1429664D01*
X2703296Y1409090D01*
X2710154Y1395628D01*
X2723616Y1381912D01*
X2737332Y1375054D01*
X2764510Y1375054D01*
X2778226Y1381912D01*
X2791942Y1395628D01*
X2798800Y1409090D01*
X2805404Y1429664D01*
X2805404Y1463700D01*
X2798800Y1484274D01*
X2791942Y1497736D01*
X2778226Y1511452D01*
X2764510Y1518310D01*
X2737332Y1518310D01*
X2891510Y1518310D02*
G01*
X2877794Y1511452D01*
X2864078Y1497736D01*
X2857220Y1484274D01*
X2850616Y1463700D01*
X2850616Y1429664D01*
X2857220Y1409090D01*
X2864078Y1395628D01*
X2877794Y1381912D01*
X2891510Y1375054D01*
X2918688Y1375054D01*
X2932404Y1381912D01*
X2945866Y1395628D01*
X2952724Y1409090D01*
X2959582Y1429664D01*
X2959582Y1463700D01*
X2952724Y1484274D01*
X2945866Y1497736D01*
X2932404Y1511452D01*
X2918688Y1518310D01*
X2891510Y1518310D01*
X3052292Y1518310D02*
G01*
X3052292Y1375054D01*
X3004540Y1518310D02*
G01*
X3100044Y1518310D01*
X1108176Y1518310D02*
G01*
X1108176Y1375054D01*
X1108176Y1518310D02*
G01*
X1196822Y1518310D01*
X1108176Y1449984D02*
G01*
X1162786Y1449984D01*
X1108176Y1375054D02*
G01*
X1196822Y1375054D01*
X1241780Y1518310D02*
G01*
X1241780Y1375054D01*
X1241780Y1518310D02*
G01*
X1337284Y1375054D01*
X1337284Y1518310D02*
G01*
X1337284Y1375054D01*
X1781276Y1203604D02*
G01*
X1781276Y1065174D01*
X1790420Y1037488D01*
X1808962Y1018946D01*
X1836648Y1009802D01*
X1855190Y1009802D01*
X1882876Y1018946D01*
X1901418Y1037488D01*
X1910562Y1065174D01*
X1910562Y1203604D01*
X2100808Y1175918D02*
G01*
X2082266Y1194460D01*
X2054580Y1203604D01*
X2017750Y1203604D01*
X1990064Y1194460D01*
X1971522Y1175918D01*
X1971522Y1157376D01*
X1980666Y1139088D01*
X1990064Y1129690D01*
X2008606Y1120546D01*
X2063978Y1102004D01*
X2082266Y1092860D01*
X2091664Y1083716D01*
X2100808Y1065174D01*
X2100808Y1037488D01*
X2082266Y1018946D01*
X2054580Y1009802D01*
X2017750Y1009802D01*
X1990064Y1018946D01*
X1971522Y1037488D01*
X2161768Y1203604D02*
G01*
X2161768Y1009802D01*
X2161768Y1203604D02*
G01*
X2244826Y1203604D01*
X2272766Y1194460D01*
X2281910Y1185316D01*
X2291054Y1166774D01*
X2291054Y1148232D01*
X2281910Y1129690D01*
X2272766Y1120546D01*
X2244826Y1111402D01*
X2161768Y1111402D02*
G01*
X2244826Y1111402D01*
X2272766Y1102004D01*
X2281910Y1092860D01*
X2291054Y1074318D01*
X2291054Y1046632D01*
X2281910Y1028090D01*
X2272766Y1018946D01*
X2244826Y1009802D01*
X2161768Y1009802D01*
D12*
X3784600Y2997200D02*
G01*
X3784600Y3314700D01*
D11*
X3784600Y2997200D02*
G01*
X3530600Y2997200D01*
X3530600Y3505200D01*
X3784600Y3505200D01*
X3784600Y3314700D01*
X203200Y7429500D02*
G01*
X457200Y7429500D01*
X457200Y6413500D01*
X203200Y6413500D01*
X203200Y6604000D01*
D12*
X203200Y7429500D02*
G01*
X203200Y6604000D01*
D11*
X3790873Y4478426D02*
G01*
X3536873Y4478426D01*
X3536873Y5494426D01*
X3790873Y5494426D01*
X3790873Y5303926D01*
D12*
X3790873Y4478426D02*
G01*
X3790873Y5303926D01*
D11*
X196773Y4173626D02*
G01*
X196773Y3983126D01*
X450773Y3983126D01*
X450773Y5507126D01*
X196773Y5507126D01*
D12*
X196773Y5507126D02*
G01*
X196773Y4173626D01*
D13*
X2922577Y3699824D02*
G01*
X2922577Y3783307D01*
X2660489Y3699824D02*
G01*
X2922577Y3699824D01*
X2922577Y5570532D02*
G01*
X2922577Y5621426D01*
X1120876Y3783312D02*
G01*
X1120876Y3699824D01*
X1381264Y3699824D01*
X1120876Y5621426D02*
G01*
X1120876Y5570532D01*
X2920878Y5621426D02*
G01*
X1120876Y5621426D01*
X1285976Y5735726D02*
G01*
X1285976Y6205626D01*
X1527276Y6205626D01*
X1527276Y5964326D01*
X1781276Y5964326D01*
X1781276Y6205626D01*
X2035276Y6205626D01*
X2035276Y5964326D01*
X2289276Y5964326D01*
X2289276Y6205626D01*
X2543276Y6205626D01*
X2543276Y5723026D01*
X2543276Y6205626D02*
G01*
X2746476Y6205626D01*
X2746476Y5723026D01*
X1630578Y1395425D02*
G01*
X2420569Y1395425D01*
X2420569Y795426D01*
X1630578Y795426D01*
X1630578Y1395425D01*
X1120876Y6321425D02*
G01*
X2924276Y6321425D01*
X2924276Y5621426D01*
X1120876Y5621426D01*
X1120876Y6321425D01*
X597179Y5621426D02*
G01*
X3397173Y5621426D01*
X3397173Y795426D01*
X597179Y795426D01*
X597179Y5621426D01*
X2555976Y3852214D02*
G01*
X2644876Y3852214D01*
X2644876Y3649014D01*
X2555976Y3649014D01*
X2555976Y3852214D01*
X2428976Y3852214D02*
G01*
X2517876Y3852214D01*
X2517876Y3649014D01*
X2428976Y3649014D01*
X2428976Y3852214D01*
X2301976Y3852214D02*
G01*
X2390876Y3852214D01*
X2390876Y3649014D01*
X2301976Y3649014D01*
X2301976Y3852214D01*
X2174976Y3852214D02*
G01*
X2263876Y3852214D01*
X2263876Y3649014D01*
X2174976Y3649014D01*
X2174976Y3852214D01*
X2047976Y3852214D02*
G01*
X2136876Y3852214D01*
X2136876Y3649014D01*
X2047976Y3649014D01*
X2047976Y3852214D01*
X1920976Y3852214D02*
G01*
X2009876Y3852214D01*
X2009876Y3649014D01*
X1920976Y3649014D01*
X1920976Y3852214D01*
X1793976Y3852214D02*
G01*
X1882876Y3852214D01*
X1882876Y3649014D01*
X1793976Y3649014D01*
X1793976Y3852214D01*
X1666976Y3852214D02*
G01*
X1755876Y3852214D01*
X1755876Y3649014D01*
X1666976Y3649014D01*
X1666976Y3852214D01*
X1539976Y3852214D02*
G01*
X1628876Y3852214D01*
X1628876Y3649014D01*
X1539976Y3649014D01*
X1539976Y3852214D01*
X1400276Y3852214D02*
G01*
X1501876Y3852214D01*
X1501876Y3649014D01*
X1400276Y3649014D01*
X1400276Y3852214D01*
X2035276Y4626914D02*
G01*
X2174976Y4626914D01*
X2174976Y4499914D01*
X2035276Y4499914D01*
X2035276Y4626914D01*
X1857476Y4626914D02*
G01*
X1984476Y4626914D01*
X1984476Y4499914D01*
X1857476Y4499914D01*
X1857476Y4626914D01*
X1666976Y4626914D02*
G01*
X1806676Y4626914D01*
X1806676Y4499914D01*
X1666976Y4499914D01*
X1666976Y4626914D01*
X2035276Y4817414D02*
G01*
X2174976Y4817414D01*
X2174976Y4677714D01*
X2035276Y4677714D01*
X2035276Y4817414D01*
X1857476Y4817414D02*
G01*
X1984476Y4817414D01*
X1984476Y4677714D01*
X1857476Y4677714D01*
X1857476Y4817414D01*
X1666976Y4817414D02*
G01*
X1806676Y4817414D01*
X1806676Y4677714D01*
X1666976Y4677714D01*
X1666976Y4817414D01*
X2035276Y4995214D02*
G01*
X2174976Y4995214D01*
X2174976Y4868214D01*
X2035276Y4868214D01*
X2035276Y4995214D01*
X1857476Y4995214D02*
G01*
X1984476Y4995214D01*
X1984476Y4868214D01*
X1857476Y4868214D01*
X1857476Y4995214D01*
X1666976Y4995214D02*
G01*
X1806676Y4995214D01*
X1806676Y4868214D01*
X1666976Y4868214D01*
X1666976Y4995214D01*
X2771876Y5541314D02*
G01*
X2975076Y5541314D01*
X2975076Y5452414D01*
X2771876Y5452414D01*
X2771876Y5541314D01*
X2771876Y5414314D02*
G01*
X2975076Y5414314D01*
X2975076Y5325414D01*
X2771876Y5325414D01*
X2771876Y5414314D01*
X2771876Y5287314D02*
G01*
X2975076Y5287314D01*
X2975076Y5198414D01*
X2771876Y5198414D01*
X2771876Y5287314D01*
X2771876Y5160314D02*
G01*
X2975076Y5160314D01*
X2975076Y5071414D01*
X2771876Y5071414D01*
X2771876Y5160314D01*
X2771876Y5033314D02*
G01*
X2975076Y5033314D01*
X2975076Y4944414D01*
X2771876Y4944414D01*
X2771876Y5033314D01*
X2771876Y4906314D02*
G01*
X2975076Y4906314D01*
X2975076Y4817414D01*
X2771876Y4817414D01*
X2771876Y4906314D01*
X2771876Y4779314D02*
G01*
X2975076Y4779314D01*
X2975076Y4690414D01*
X2771876Y4690414D01*
X2771876Y4779314D01*
X2771876Y4652314D02*
G01*
X2975076Y4652314D01*
X2975076Y4563414D01*
X2771876Y4563414D01*
X2771876Y4652314D01*
X2771876Y4525314D02*
G01*
X2975076Y4525314D01*
X2975076Y4436414D01*
X2771876Y4436414D01*
X2771876Y4525314D01*
X2771876Y4398314D02*
G01*
X2975076Y4398314D01*
X2975076Y4309414D01*
X2771876Y4309414D01*
X2771876Y4398314D01*
X2771876Y4271314D02*
G01*
X2975076Y4271314D01*
X2975076Y4182414D01*
X2771876Y4182414D01*
X2771876Y4271314D01*
X2771876Y4144314D02*
G01*
X2975076Y4144314D01*
X2975076Y4055414D01*
X2771876Y4055414D01*
X2771876Y4144314D01*
X2771876Y4017314D02*
G01*
X2975076Y4017314D01*
X2975076Y3928414D01*
X2771876Y3928414D01*
X2771876Y4017314D01*
X2771876Y3890314D02*
G01*
X2975076Y3890314D01*
X2975076Y3801414D01*
X2771876Y3801414D01*
X2771876Y3890314D01*
X1070076Y3890314D02*
G01*
X1273276Y3890314D01*
X1273276Y3801414D01*
X1070076Y3801414D01*
X1070076Y3890314D01*
X1070076Y4017314D02*
G01*
X1273276Y4017314D01*
X1273276Y3928414D01*
X1070076Y3928414D01*
X1070076Y4017314D01*
X1070076Y4144314D02*
G01*
X1273276Y4144314D01*
X1273276Y4055414D01*
X1070076Y4055414D01*
X1070076Y4144314D01*
X1070076Y4271314D02*
G01*
X1273276Y4271314D01*
X1273276Y4182414D01*
X1070076Y4182414D01*
X1070076Y4271314D01*
X1070076Y4398314D02*
G01*
X1273276Y4398314D01*
X1273276Y4309414D01*
X1070076Y4309414D01*
X1070076Y4398314D01*
X1070076Y4525314D02*
G01*
X1273276Y4525314D01*
X1273276Y4436414D01*
X1070076Y4436414D01*
X1070076Y4525314D01*
X1070076Y4652314D02*
G01*
X1273276Y4652314D01*
X1273276Y4563414D01*
X1070076Y4563414D01*
X1070076Y4652314D01*
X1070076Y4779314D02*
G01*
X1273276Y4779314D01*
X1273276Y4690414D01*
X1070076Y4690414D01*
X1070076Y4779314D01*
X1070076Y4906314D02*
G01*
X1273276Y4906314D01*
X1273276Y4817414D01*
X1070076Y4817414D01*
X1070076Y4906314D01*
X1070076Y5033314D02*
G01*
X1273276Y5033314D01*
X1273276Y4944414D01*
X1070076Y4944414D01*
X1070076Y5033314D01*
X1070076Y5160314D02*
G01*
X1273276Y5160314D01*
X1273276Y5071414D01*
X1070076Y5071414D01*
X1070076Y5160314D01*
X1070076Y5287314D02*
G01*
X1273276Y5287314D01*
X1273276Y5198414D01*
X1070076Y5198414D01*
X1070076Y5287314D01*
X1070076Y5414314D02*
G01*
X1273276Y5414314D01*
X1273276Y5325414D01*
X1070076Y5325414D01*
X1070076Y5414314D01*
X1070076Y5541314D02*
G01*
X1273276Y5541314D01*
X1273276Y5452414D01*
X1070076Y5452414D01*
X1070076Y5541314D01*
X2632176Y1341526D02*
G01*
X3025876Y1341526D01*
X3025876Y1036726D01*
X2632176Y1036726D01*
X2632176Y1341526D01*
X1031976Y1341526D02*
G01*
X1425676Y1341526D01*
X1425676Y1036726D01*
X1031976Y1036726D01*
X1031976Y1341526D01*
X1263573Y2954426D02*
G01*
X1390573Y2954426D01*
X1390573Y2700426D01*
X1263573Y2700426D01*
X1263573Y2954426D01*
X1441373Y2954426D02*
G01*
X1555673Y2954426D01*
X1555673Y2700426D01*
X1441373Y2700426D01*
X1441373Y2954426D01*
X1263573Y2662326D02*
G01*
X1390573Y2662326D01*
X1390573Y2611526D01*
X1263573Y2611526D01*
X1263573Y2662326D01*
X1263573Y2573426D02*
G01*
X1390573Y2573426D01*
X1390573Y2522626D01*
X1263573Y2522626D01*
X1263573Y2573426D01*
X1263573Y2484526D02*
G01*
X1390573Y2484526D01*
X1390573Y2433726D01*
X1263573Y2433726D01*
X1263573Y2484526D01*
X1441373Y2662326D02*
G01*
X1555673Y2662326D01*
X1555673Y2433726D01*
X1441373Y2433726D01*
X1441373Y2662326D01*
X1898573Y2954426D02*
G01*
X2279573Y2954426D01*
X2279573Y2446426D01*
X1898573Y2446426D01*
X1898573Y2954426D01*
X2279573Y2827426D02*
G01*
X2419273Y2827426D01*
X2419273Y2573426D01*
X2279573Y2573426D01*
X2279573Y2827426D01*
X1758873Y2725826D02*
G01*
X1898573Y2725826D01*
X1898573Y2662326D01*
X1758873Y2662326D01*
X1758873Y2725826D01*
X1758873Y2865526D02*
G01*
X1898573Y2865526D01*
X1898573Y2802026D01*
X1758873Y2802026D01*
X1758873Y2865526D01*
X1758873Y2586126D02*
G01*
X1898573Y2586126D01*
X1898573Y2522626D01*
X1758873Y2522626D01*
X1758873Y2586126D01*
X2749473Y2776626D02*
G01*
X3028873Y2776626D01*
X3028873Y2649626D01*
X2749473Y2649626D01*
X2749473Y2776626D01*
X2838373Y2827426D02*
G01*
X2939973Y2827426D01*
X2939973Y2776626D01*
X2838373Y2776626D01*
X2838373Y2827426D01*
X2787573Y2649626D02*
G01*
X2838373Y2649626D01*
X2838373Y2586126D01*
X2787573Y2586126D01*
X2787573Y2649626D01*
X2939973Y2649626D02*
G01*
X2990773Y2649626D01*
X2990773Y2586126D01*
X2939973Y2586126D01*
X2939973Y2649626D01*
X1771573Y2192426D02*
G01*
X2292273Y2192426D01*
X2292273Y1671726D01*
X1771573Y1671726D01*
X1771573Y2192426D01*
G75*
G01
X2915564Y1195426D02*
G03X2915564Y1195426I-89992J0D01*
G75*
G01
X1315568Y1195426D02*
G03X1315568Y1195426I-89992J0D01*
X190500Y8191500D02*
G01*
X3886200Y8191500D01*
X3886200Y5651500D01*
X190500Y5651500D01*
X190500Y8191500D01*
X2921000Y9385300D02*
G01*
X3920997Y9385300D01*
X3920997Y8385302D01*
X2921000Y8385302D01*
X2921000Y9385300D01*
M02*
