G04 Layer: BottomSolderMaskLayer*
G04 Panelize: , Column: 2, Row: 1, Board Size: 40.01mm x 93.13mm, Panelized Board Size: 90.01mm x 93.13mm*
G04 EasyEDA v6.5.51, 2025-12-10 18:06:53*
G04 0555fe365c4c4ce19a54b4cc8b748554,f920225d1fc94cab822a7ee7b834fcf3,10*
G04 Gerber Generator version 0.2*
G04 Scale: 100 percent, Rotated: No, Reflected: No *
G04 Dimensions in millimeters *
G04 leading zeros omitted , absolute positions ,4 integer and 5 decimal *
%FSLAX45Y45*%
%MOMM*%

%AMMACRO1*4,1,8,-1.4207,-1,-1.45,-0.9707,-1.45,0.9707,-1.4207,1,1.4207,1,1.45,0.9707,1.45,-0.9707,1.4207,-1,-1.4207,-1,0*%
%AMMACRO2*4,1,8,-0.8851,-0.7933,-0.9148,-0.7635,-0.9148,0.7635,-0.8851,0.7933,0.885,0.7933,0.9148,0.7635,0.9148,-0.7635,0.885,-0.7933,-0.8851,-0.7933,0*%
%AMMACRO3*4,1,8,-1.3171,-1.1546,-1.3468,-1.1248,-1.3468,1.1248,-1.3171,1.1546,1.317,1.1546,1.3468,1.1248,1.3468,-1.1248,1.317,-1.1546,-1.3171,-1.1546,0*%
%AMMACRO4*4,1,8,-0.7635,-0.9148,-0.7933,-0.885,-0.7933,0.8851,-0.7635,0.9148,0.7635,0.9148,0.7933,0.8851,0.7933,-0.885,0.7635,-0.9148,-0.7635,-0.9148,0*%
%AMMACRO5*4,1,8,-0.8716,-0.6546,-0.9013,-0.6248,-0.9013,0.6248,-0.8716,0.6546,0.8715,0.6546,0.9013,0.6248,0.9013,-0.6248,0.8715,-0.6546,-0.8716,-0.6546,0*%
%AMMACRO6*4,1,8,-0.6211,-0.7508,-0.6508,-0.721,-0.6508,0.7211,-0.6211,0.7508,0.621,0.7508,0.6508,0.7211,0.6508,-0.721,0.621,-0.7508,-0.6211,-0.7508,0*%
%AMMACRO7*4,1,8,-0.6248,-0.9013,-0.6546,-0.8715,-0.6546,0.8716,-0.6248,0.9013,0.6248,0.9013,0.6546,0.8716,0.6546,-0.8715,0.6248,-0.9013,-0.6248,-0.9013,0*%
%AMMACRO8*4,1,8,-0.8085,-0.9008,-0.8382,-0.871,-0.8382,0.8711,-0.8085,0.9008,0.8084,0.9008,0.8382,0.8711,0.8382,-0.871,0.8084,-0.9008,-0.8085,-0.9008,0*%
%AMMACRO9*4,1,8,-0.8085,-0.8382,-0.8382,-0.8084,-0.8382,0.8085,-0.8085,0.8382,0.8084,0.8382,0.8382,0.8085,0.8382,-0.8084,0.8084,-0.8382,-0.8085,-0.8382,0*%
%ADD10MACRO1*%
%ADD11MACRO2*%
%ADD12MACRO3*%
%ADD13MACRO4*%
%ADD14MACRO5*%
%ADD15MACRO6*%
%ADD16MACRO7*%
%ADD17C,0.0188*%
%ADD18C,2.3516*%
%ADD19MACRO8*%
%ADD20C,1.8016*%
%ADD21MACRO9*%
%ADD22C,1.6764*%
%ADD23C,1.6256*%

%LPD*%
D10*
G01*
X1022705Y7359089D03*
G01*
X1022705Y7759089D03*
G01*
X1022705Y6959092D03*
G01*
X1022705Y6559092D03*
G01*
X1022705Y6159093D03*
G01*
X1022705Y5759093D03*
G01*
X1022705Y5359093D03*
G01*
X1022705Y4959096D03*
G01*
X3022701Y4959094D03*
G01*
X3022701Y5359093D03*
G01*
X3022701Y5759093D03*
G01*
X3022701Y6159093D03*
G01*
X3022701Y6559091D03*
G01*
X3022701Y6959090D03*
G01*
X3022701Y7359089D03*
G01*
X3022701Y7759089D03*
D11*
G01*
X1092200Y920249D03*
G01*
X1092200Y1238750D03*
D12*
G01*
X2247900Y918875D03*
G01*
X2247900Y1621124D03*
G01*
X1612900Y918875D03*
G01*
X1612900Y1621124D03*
G01*
X1263573Y8559601D03*
G01*
X1263573Y9261850D03*
G01*
X1898573Y8559601D03*
G01*
X1898573Y9261850D03*
D11*
G01*
X793673Y9260476D03*
G01*
X793673Y8941976D03*
G01*
X2381173Y8941976D03*
G01*
X2381173Y9260476D03*
D13*
G01*
X1847349Y3073400D03*
G01*
X2165850Y3073400D03*
D14*
G01*
X2159000Y3420823D03*
G01*
X2159000Y3716576D03*
D15*
G01*
X2230508Y4127500D03*
G01*
X1960491Y4127500D03*
D16*
G01*
X1211023Y4127500D03*
G01*
X1506776Y4127500D03*
D14*
G01*
X1219200Y3573223D03*
G01*
X1219200Y3868976D03*
D18*
G01*
X3404870Y8869324D03*
G01*
X3016250Y8483092D03*
G01*
X3816350Y9283064D03*
G01*
X3816350Y8483092D03*
G01*
X3016250Y9283064D03*
D19*
G01*
X3657600Y3378198D03*
D20*
G01*
X3657600Y3124200D03*
D21*
G01*
X330200Y6540500D03*
D22*
G01*
X330200Y6794500D03*
G01*
X330200Y7048500D03*
G01*
X330200Y7302500D03*
D21*
G01*
X3663873Y5367426D03*
D22*
G01*
X3663873Y5113426D03*
G01*
X3663873Y4859426D03*
G01*
X3663873Y4605426D03*
G01*
X323773Y5380126D03*
G01*
X323773Y5126126D03*
G01*
X323773Y4872126D03*
G01*
X323773Y4618126D03*
G01*
X323773Y4364126D03*
D21*
G01*
X323773Y4110126D03*
D23*
G01*
X752576Y5494426D03*
G01*
X752576Y5240426D03*
G01*
X752576Y4986426D03*
G01*
X752576Y4732426D03*
G01*
X752576Y4478426D03*
G01*
X752576Y4224426D03*
G01*
X752576Y3970426D03*
G01*
X752576Y3716426D03*
G01*
X752576Y3462426D03*
G01*
X752576Y3208426D03*
G01*
X752576Y2954426D03*
G01*
X752576Y2700426D03*
G01*
X752576Y2446426D03*
G01*
X752576Y2192426D03*
G01*
X752576Y1938426D03*
G01*
X752576Y1684426D03*
G01*
X752576Y1430426D03*
G01*
X752576Y1176426D03*
G01*
X752576Y922426D03*
G01*
X3298570Y922426D03*
G01*
X3298570Y1176426D03*
G01*
X3298570Y1430426D03*
G01*
X3298570Y1684426D03*
G01*
X3298570Y1938426D03*
G01*
X3298570Y2192426D03*
G01*
X3298570Y2446426D03*
G01*
X3298570Y2700426D03*
G01*
X3298570Y2954426D03*
G01*
X3298570Y3208426D03*
G01*
X3298570Y3462426D03*
G01*
X3298570Y3716426D03*
G01*
X3298570Y3970426D03*
G01*
X3298570Y4224426D03*
G01*
X3298570Y4478426D03*
G01*
X3298570Y4732426D03*
G01*
X3298570Y4986426D03*
G01*
X3298570Y5240426D03*
G01*
X3298570Y5494426D03*
M02*
